<?xml version="1.0" encoding="utf-8"?>
<!-- Generator: Adobe Illustrator 23.1.0, SVG Export Plug-In . SVG Version: 6.00 Build 0)  -->
<svg version="1.1" id="a154b3ae-224e-4b43-86b8-0ffeb27982c5"
	 xmlns="http://www.w3.org/2000/svg" xmlns:xlink="http://www.w3.org/1999/xlink" x="0px" y="0px" viewBox="0 0 1144 637"
	 style="enable-background:new 0 0 1144 637;" xml:space="preserve">
<style type="text/css">
	.st0{opacity:0.1;fill:#6C63FF;enable-background:new    ;}
	.st1{fill:#2F2E41;}
	.st2{opacity:0.2;enable-background:new    ;}
	.st3{fill:#6C63FF;}
	.st4{fill:#656478;}
	.st5{fill:#FBBEBE;}
	.st6{opacity:0.1;enable-background:new    ;}
	.st7{opacity:0.2;}
	.st8{fill:#3F3D56;}
	.st9{fill:#434175;}
	.st10{opacity:0.1;}
</style>
<title>working remotely</title>
<path class="st0" d="M1144,416.3c0.1,33.1-9,65.6-26.1,93.9c0,34.6-16.1,66-42.3,88.9c-6.6,5.7-13.6,10.8-21.1,15.3
	c-0.3,0.2-0.6,0.4-0.9,0.5c-0.6,0.3-1.1,0.7-1.7,1l-0.5,0.3l0,0c-2.4,1.3-4.8,2.7-7.3,3.9c-22.9,11.3-48.2,17.1-73.8,17H217.2
	c-6,0-11.9-0.2-17.8-0.7c-20.9-1.6-41.5-6.4-61.1-14.1c-3.8-1.5-7.6-3.1-11.2-4.9c-1.7-0.8-3.5-1.7-5.2-2.5
	c-1.1-0.5-2.1-1.1-3.2-1.7c-6.4-3.4-12.7-7.2-18.7-11.3c-5.5-3.8-10.8-7.8-15.8-12.1c-34-29.2-55.1-69.6-55.1-114.2
	C10,446.1-0.1,411.8,0,376.8c0-99.1,79.2-179.5,177-179.5c3,0,6,0.1,9,0.3c0.4,0,0.9,0,1.3,0.1c16.5-28.1,38.5-53.9,65-76.6
	C324.5,59.1,430.1,20.1,547.7,20.1c98.8,0,189.2,27.6,258.3,73.1c26.2-14.8,55.8-22.6,86-22.5c97.7,0,177,80.4,177,179.5
	c0,6.3-0.3,12.5-1,18.8C1115.8,302.7,1144.2,357.7,1144,416.3z"/>
<path class="st0" d="M910.7,274v-10.7c20-8.1,29.6-30.9,21.5-50.9c-8.1-20-30.9-29.6-50.9-21.5s-29.6,30.9-21.5,50.9
	c4,9.8,11.7,17.5,21.5,21.5V274c-9.8,2.7-18.6,8.1-25.5,15.5c-7.3-11-18.4-19-31.1-22.5v-10.7c20-8.1,29.6-30.9,21.5-50.9
	c-8.1-20-30.9-29.6-50.9-21.5s-29.6,30.9-21.5,50.9c4,9.8,11.7,17.5,21.5,21.5V267c-8.7,2.4-16.7,6.9-23.2,13.2
	c-7.3-9.8-17.6-16.9-29.4-20.2v-10.7c20-8.1,29.6-30.9,21.5-50.9c-8.1-20-30.9-29.6-50.9-21.5s-29.6,30.9-21.5,50.9
	c4,9.8,11.7,17.5,21.5,21.5V260c-10,2.8-19,8.4-26,16.1c-6.3-16.2-19.9-28.4-36.6-33.1v-10.7c20-8.1,29.6-30.9,21.5-50.9
	c-8.1-20-30.9-29.6-50.9-21.5s-29.6,30.9-21.5,50.9c4,9.8,11.7,17.5,21.5,21.5V243c-21.9,6.1-37.8,25.1-40,47.8
	c-5-3.5-10.6-6.1-16.6-7.8v-10.7c20-8.1,29.6-30.9,21.5-50.9c-8.1-20-30.9-29.6-50.9-21.5s-29.6,30.9-21.5,50.9
	c4,9.8,11.7,17.5,21.5,21.5V283c-15.1,4.2-27.7,14.6-34.7,28.7c-4.6-3-9.7-5.2-15-6.7v-10.7c20-8.1,29.6-30.9,21.5-50.9
	c-8.1-20-30.9-29.6-50.9-21.5s-29.6,30.9-21.5,50.9c4,9.8,11.7,17.5,21.5,21.5V305c-5,1.4-9.8,3.5-14.2,6.2
	c-7-13.8-19.5-24.1-34.4-28.2v-10.7c20-8.1,29.6-30.9,21.5-50.9c-8.1-20-30.9-29.6-50.9-21.5s-29.6,30.9-21.5,50.9
	c4,9.8,11.7,17.5,21.5,21.5V283c-16.1,4.5-29.3,16-35.9,31.4c-5.6-4.3-12-7.5-18.8-9.4v-10.7c20-8.1,29.6-30.9,21.5-50.9
	c-8.1-20-30.9-29.6-50.9-21.5s-29.6,30.9-21.5,50.9c4,9.8,11.7,17.5,21.5,21.5V305c-23.8,6.6-40.3,28.3-40.3,53v248H364v-22h52v22
	h110v-22h79v-40h68v17h82v7h86v7h110V327C951,302.3,934.5,280.6,910.7,274z"/>
<path class="st1" d="M490.8,169h91.4c94,0,170.3,76.2,170.3,170.3c0,0,0,0,0,0V570l0,0h-432l0,0V339.3
	C320.5,245.2,396.7,169,490.8,169L490.8,169z"/>
<path class="st2" d="M500.8,178.3h71.4c94,0,170.3,76.2,170.3,170.3c0,0,0,0,0,0v212.2l0,0h-412l0,0V348.6
	C330.5,254.5,406.7,178.3,500.8,178.3L500.8,178.3z"/>
<path class="st1" d="M1044,602.6v17.5c-22.9,11.3-48.2,17.1-73.8,17H217.2c-6,0-11.9-0.2-17.8-0.7c-20.9-1.6-41.5-6.4-61.1-14.1
	c-3.8-1.5-7.6-3.1-11.2-4.9c-1.7-0.8-3.5-1.7-5.2-2.5c-1.1-0.5-2.1-1.1-3.2-1.7c-6.4-3.4-12.7-7.2-18.7-11.3v-47.4
	c0-16,12.9-28.9,28.9-28.9h0h831.2c7,0,13.7,2.6,19,7.2l55,48.2C1040.4,586.3,1044,594.3,1044,602.6z"/>
<path class="st3" d="M482.7,225.8c-21.8,1.4-43.5,3.8-65.2,7c-6.1,0.9-12.4,1.9-18,4.7c-4.4,2.3-8.4,5.2-11.9,8.6
	c-16.1,14.4-29,31.9-38,51.5c-5.6,12.1-9.6,25-14.8,37.3c-18.7,43.8-52.6,79.5-72.3,122.8c-4.3,9.4-7.9,19.2-9.3,29.3
	c-1.5,10.5,0.2,22.8,8.9,29c4,2.8,8.9,4,13.6,5c59.9,13.3,120.5,23.2,181.6,29.7c-6.6-6.4-8.8-16.3-8-25.4s4.5-17.8,8-26.3
	c-34.5-7.6-69-15.6-103.4-24c-5.1-1.3-11.3-3.6-11.9-8.8c-0.3-2.7,1-5.2,2.3-7.6c14.7-26.5,32.2-51.4,52.4-74
	c0,28.1-1.4,59.8-1.4,87.8h324.1c-3.9-16-6.2-32.4-6.8-48.8c-1.5-53.8,16.6-107.1,11.9-160.8c-0.4-5-1.1-10-3.7-14.3
	c-4.5-7.3-13.4-10.4-21.6-12.9c-31.4-9.6-63.5-19.2-96.4-18.5c-9.8,0.2-19.5,1.4-29.2,2.5C543.9,223.1,512.4,223.8,482.7,225.8z"/>
<path class="st4" d="M330.9,548.3l23.6,75.5c0.3,1,1.2,1.6,2.3,1.7H458l-24-88l-101.1,7.8c-1.3,0.1-2.3,1.2-2.2,2.5
	C330.8,548,330.8,548.2,330.9,548.3z"/>
<path class="st5" d="M504,258.3c-4.4,2.5-9.5,3.4-14.5,4.3l-32.3,5.6c-6.3,1.1-12.9,2.3-17.7,6.5c-9.9,8.5-7.8,24.1-4.8,36.7l6,25.4
	c4.5,19.1,9.1,38.5,18.4,55.8c16.2,30.2,45.9,52,78.6,62.5c11.7,3.8,24,6.2,36.2,4.8c23.9-2.6,44.3-19.6,56.8-40.1
	s18.6-44.2,24.1-67.5c5.3-22.4,10.3-45.1,9.9-68.1c-0.1-7.2-0.8-14.6-4.6-20.7c-8.4-13.3-27.3-14.3-42.9-11.9
	c-2.4,0.4-4.9,0.8-7.3,0.1c-7-2.2-7.2-11.8-10.2-18.5c-5.7-12.6-22.5-14.8-36.2-13.7s-35.2,2.6-47.1,10.4
	C504.8,237.5,517.5,250.5,504,258.3z"/>
<path class="st6" d="M504,258.3c-4.4,2.5-9.5,3.4-14.5,4.3l-32.3,5.6c-6.3,1.1-12.9,2.3-17.7,6.5c-9.9,8.5-7.8,24.1-4.8,36.7l6,25.4
	c4.5,19.1,9.1,38.5,18.4,55.8c16.2,30.2,45.9,52,78.6,62.5c11.7,3.8,24,6.2,36.2,4.8c23.9-2.6,44.3-19.6,56.8-40.1
	s18.6-44.2,24.1-67.5c5.3-22.4,10.3-45.1,9.9-68.1c-0.1-7.2-0.8-14.6-4.6-20.7c-8.4-13.3-27.3-14.3-42.9-11.9
	c-2.4,0.4-4.9,0.8-7.3,0.1c-7-2.2-7.2-11.8-10.2-18.5c-5.7-12.6-22.5-14.8-36.2-13.7s-35.2,2.6-47.1,10.4
	C504.8,237.5,517.5,250.5,504,258.3z"/>
<path class="st3" d="M477.3,287c4.9,10.2,8.5,21.1,14.4,30.8c4.7,7.7,10.7,14.5,16.7,21.2c15.5,17.5,31.2,35.2,50.4,48.5
	c7.9-40.8,27.1-78.5,55.4-109c8.3-8.9,18.6-17.6,30.7-17.3c7.5,0.2,14.5,3.9,20.7,8.1c7,4.6,13.6,10,18.7,16.7
	c8,10.6,11.4,24.1,12,37.3s-1.4,26.5-3.5,39.6l-10.5,67.7c-0.6,3.9-1.5,8.3-4.7,10.6c-1.8,1.2-3.9,1.9-6,2.2
	c-38.2,7.4-77.5,2.6-116.4,2.2c-43-0.4-87.2,4.5-127.9-9.2c-2.1-0.7-4.3-1.5-5.8-3.3c-0.9-1.3-1.6-2.8-2-4.3
	c-9.5-30.7-1.9-63.7,3.8-95.4c4.5-25.1,7.6-50.4,9.5-75.8c0.2-2.3,25.3,2.8,28.1,4.4C468.5,266.6,473.6,279.2,477.3,287z"/>
<g class="st7">
	<path class="st8" d="M166.9,536.8c0,0.5-0.1,0.9-0.1,1.3c-3.8-1.5-7.6-3.1-11.2-4.9c-2-0.3-3.8-1.1-5.2-2.5
		c-1.1-0.5-2.1-1.1-3.2-1.7c0.2-0.5,0.5-1,0.8-1.5c2.1-3.3,5.2-5.3,8.6-5.2s6.4,2.3,8.3,5.7C166.3,530.8,167,533.8,166.9,536.8z"/>
	<path class="st8" d="M167.4,519.7c-0.1,3-0.9,5.9-2.5,8.5c-2.1,3.3-5.2,5.3-8.6,5.2l-0.7,0c-2-0.3-3.8-1.1-5.2-2.5
		c-1-0.9-1.8-2-2.4-3.1c-2.8-5.4-2.6-11.9,0.5-17.1c2.1-3.3,5.2-5.3,8.6-5.2s6.4,2.3,8.3,5.7C166.9,513.7,167.5,516.7,167.4,519.7z"
		/>
	
		<ellipse transform="matrix(3.158516e-02 -0.9995 0.9995 3.158516e-02 -349.6993 643.5512)" class="st8" cx="157.3" cy="502.2" rx="14" ry="10.7"/>
	
		<ellipse transform="matrix(3.158516e-02 -0.9995 0.9995 3.158516e-02 -332.0594 627.5172)" class="st8" cx="157.8" cy="485.1" rx="14" ry="10.7"/>
	
		<ellipse transform="matrix(3.158516e-02 -0.9995 0.9995 3.158516e-02 -314.4288 611.4727)" class="st8" cx="158.3" cy="468" rx="14" ry="10.7"/>
	<path class="st3" d="M122,349.5c-1.4-1.9-2.7-3.9-3.8-6l28.3-3.7l-30.5-0.7c-5.5-13-5.4-27.7,0.3-40.6l40.1,22.4l-36.8-28.8
		c14.9-24.1,46.5-31.5,70.6-16.6c24.1,14.9,31.5,46.5,16.6,70.6c-1.3,2.1-2.8,4.2-4.4,6.1c2.2,3,4,6.2,5.6,9.5L171,379.4l39.3-11.8
		c5,16.6,1.3,34.6-9.8,47.9c16.8,22.8,11.9,54.9-10.8,71.7s-54.9,11.9-71.7-10.8c-14.1-19.1-13.2-45.3,2-63.4
		C106,393.9,106.8,367.7,122,349.5z"/>
	<path class="st6" d="M212.5,384.1c-0.4,11.5-4.6,22.6-12,31.3c16.8,22.8,12,54.9-10.8,71.7c-22.8,16.8-54.9,12-71.7-10.8
		c-14.1-19.1-13.3-45.3,2-63.5C113.4,404,212.7,378.4,212.5,384.1z"/>
</g>
<circle class="st0" cx="68" cy="141.2" r="21.6"/>
<circle class="st0" cx="158.2" cy="21.6" r="21.6"/>
<circle class="st0" cx="150.8" cy="103.8" r="36.3"/>
<circle class="st5" cx="543" cy="185.5" r="84"/>
<path class="st9" d="M508.9,20.7c-22.4,2.8-46.6,6.6-62.4,22.7c-8.9,9-14,21-18.3,32.9c-6.6,18.5-11.5,38-10,57.6
	c1.4,17.6,7.9,35.5,2.6,52.3c-2.4,7.7-7.2,14.5-10.9,21.7c-6.8,13.4-10.1,28.4-11.2,43.4c-0.8,10.3-0.7,20.9,2.7,30.7
	c3.6,10.4,10.6,19.3,15.1,29.3c6.6,14.9,7.3,31.6,7.8,47.8s0.9,32.4,1.3,48.6c0.2,10.2,0.3,21.1-5.4,29.6
	c20.8-8.3,41.9-16.8,59.7-30.4s32.2-33.2,34.5-55.5c1.9-18.1-4.2-35.9-9.5-53.2c-13-43-21.4-88.8-11.9-132.8
	c3.4-15.8,11.7-33.5,27.6-36.4c9.7-1.8,19.4,2.7,28.2,7.2c20.7,10.8,42,24.8,49.7,46.9c7,19.9,1.1,42.1-8,61.1s-21.5,36.5-28.6,56.4
	c-10.9,30.5-7.8,66.2,10.3,93.1c18.1,26.9,51.4,43.4,83.5,39.1c-2.5-10.8-10.4-19.6-14.6-29.9c-7.7-18.7-2.5-40.2,5.8-58.7
	s19.5-35.7,24.7-55.3c3.6-13.8,4.1-28.2,4.1-42.5c0-22.5-1.1-44.9-3.3-67.3s-5.5-45-12.6-66.5c-5.7-17.3-14-33.9-26.5-47.2
	c-13.3-14.1-30.5-23.6-47.5-33c-10.1-5.6-20.5-11.2-31.9-13.3c-9-1.6-18.5-4-27.6-4.1C519.8,14.9,513.3,16.2,508.9,20.7z"/>
<path class="st4" d="M612.9,118.6l54,10.5c1.6,0.3,2.6,1.8,2.3,3.4l-25.9,133.5c-0.3,1.6-1.8,2.6-3.4,2.3l-54-10.5
	c-1.6-0.3-2.6-1.8-2.3-3.4l25.9-133.5C609.8,119.3,611.4,118.3,612.9,118.6z"/>
<path class="st8" d="M612.9,110.7l54,10.5c1.6,0.3,2.6,1.8,2.3,3.4L643.4,258c-0.3,1.6-1.8,2.6-3.4,2.3l-54-10.5
	c-1.6-0.3-2.6-1.8-2.3-3.4L609.5,113C609.8,111.4,611.4,110.4,612.9,110.7z"/>
<ellipse transform="matrix(0.1905 -0.9817 0.9817 0.1905 364.6588 751.7367)" class="st3" cx="638.1" cy="154.8" rx="10" ry="4.1"/>
<path class="st5" d="M655,201c-2.6-4.7-5.5-9.5-9.9-12.5c-2.6-1.6-5.3-2.8-8.2-3.7c-9.7-3.4-19.5-6.8-29.8-7.4
	c-1.7-0.1-3.6,0-4.7,1.3c-2.2,2.6,1.3,6.2,4.4,7.8l24.4,12.6l-22.5-2.4c-3.3-0.4-7.9,0.5-7.7,3.8c0.2,2.1,2.5,3.3,4.6,4
	c14.5,5,31.2,8.9,39.1,22c-10.5-1-21.3-2-31.6,0.3c-2.8,0.6-5.8,1.6-7.6,3.9s-2.1,6,0.3,7.8c1.4,1.1,3.4,1.1,5.2,1
	c7.3-0.4,14.8-1.8,21.9,0.3s13.3,9.5,10.9,16.4c6.2,0.6,13.6,0,19.4-2.7c6.4-3,6.2-8.6,5.8-15.4C668,224.8,661.4,212.4,655,201z"/>
<path class="st6" d="M648.7,419c-5.6-39.4-13.3-78.4-23-116.9c-5-20-10.7-40.3-9.3-60.9c20.7,2.6,39.2,4.6,58.2-3.9
	c0.3,10.8,8.2,20,11,30.5c1.9,7,1.2,14.4,1.9,21.6s3,14.2,4.9,21.2c9.6,34.7,11.8,71.1,6.6,106.7C681.5,419.4,666.3,421.7,648.7,419
	z"/>
<path class="st3" d="M645.7,419c-5.6-39.4-13.3-78.4-23-116.9c-5-20-10.7-40.3-9.3-60.9c20.7,2.6,39.2,4.6,58.2-3.9
	c0.3,10.8,8.2,20,11,30.5c1.9,7,1.2,14.4,1.9,21.6s3,14.2,4.9,21.2c9.6,34.7,11.8,71.1,6.6,106.7C678.5,419.4,663.3,421.7,645.7,419
	z"/>
<path class="st8" d="M356.6,613.8l9.8-242.9c0.3-8,7-14.3,15-14.3l386.5,3.7c8.2,0.1,14.8,6.8,14.7,15c0,0.4,0,0.8-0.1,1.1
	l-20.4,232.7c-0.7,7.6-6.9,13.4-14.5,13.6l-375.9,6.5c-8.2,0.1-15-6.4-15.1-14.6C356.6,614.3,356.6,614.1,356.6,613.8z"/>
<ellipse class="st3" cx="299.5" cy="560.7" rx="17" ry="20"/>
<path class="st8" d="M936,453.3l-0.8,6.9l-13,110.9c-33.9,23.6-60.3,0.9-60.5,0l-16.4-111.4l-0.9-6.3L936,453.3z"/>
<path class="st6" d="M936,453.3l-0.8,6.9c-38.2,22.2-78.9,4.9-89.9-0.5l-0.9-6.3L936,453.3z"/>
<path class="st3" d="M842.5,447.2v10c0,0,50.5,29.4,96,0v-10H842.5z"/>
<path class="st3" d="M848.4,434c0,0-1.5,6.8-5.9,7.3v8.5h96v-7.6c0,0-5.9-1.5-5-8.2L848.4,434z"/>
<ellipse class="st3" cx="890.2" cy="434.8" rx="43.3" ry="12.5"/>
<ellipse class="st6" cx="890.2" cy="434.8" rx="43.3" ry="12.5"/>
<path class="st6" d="M928.2,434c0,5-16.4,9.1-36.7,9.1h-1.1c-13.6-0.1-25.4-2-31.4-4.8c-2.7-1.3-4.3-2.7-4.3-4.3
	c0-2.5,4.2-4.8,11-6.5c8.4-1.8,17.1-2.7,25.7-2.6C911.8,424.9,928.2,429,928.2,434z"/>
<path class="st6" d="M890.5,443.1c-13.6-0.1-25.4-2-31.4-4.8l0,0l6.7-10.8L890.5,443.1z"/>
<path class="st6" d="M852.1,434.7c-0.5-0.1-1.2,0.1-1.3,0.6c0,0.3,0.1,0.5,0.2,0.8c1.1,1.8,2.8,3.2,4.8,4.1c0.3,0.2,0.7,0.3,1.1,0.3
	c0.4,0,0.8-0.2,1-0.5c0.1-0.3,0.1-0.6-0.1-0.9c-0.3-0.5-0.7-1-1.2-1.4C855.2,436.7,853.8,435,852.1,434.7z"/>
<circle class="st3" cx="891.7" cy="515.8" r="25.8"/>
<path class="st8" d="M188.3,515.8h12.1c13.8,0,25,11.2,25,25V578l0,0h-62.1l0,0v-37.2C163.3,527,174.5,515.8,188.3,515.8z"/>
<path class="st6" d="M188.3,515.8h12.1c13.8,0,25,11.2,25,25V578l0,0h-62.1l0,0v-37.2C163.3,527,174.5,515.8,188.3,515.8z"/>
<circle class="st8" cx="191.9" cy="524.5" r="5"/>
<circle class="st8" cx="191.9" cy="518.3" r="5"/>
<circle class="st8" cx="191.9" cy="512.1" r="5"/>
<circle class="st8" cx="191.9" cy="505.9" r="5"/>
<circle class="st8" cx="191.9" cy="499.7" r="5"/>
<circle class="st8" cx="191.9" cy="493.5" r="5"/>
<circle class="st8" cx="191.9" cy="487.3" r="5"/>
<circle class="st8" cx="199.4" cy="489.8" r="5"/>
<circle class="st8" cx="204.3" cy="487.3" r="5"/>
<circle class="st8" cx="209.3" cy="484.8" r="5"/>
<circle class="st8" cx="191.9" cy="481.1" r="5"/>
<circle class="st8" cx="191.9" cy="474.9" r="5"/>
<circle class="st8" cx="191.9" cy="468.6" r="5"/>
<circle class="st8" cx="191.9" cy="462.4" r="5"/>
<path class="st3" d="M212.5,446.4c-1.2,0.2-2.5,0.3-3.7,0.4c1.2-1,2.2-2.1,3.2-3.3c-0.7-2.1-1.7-4.1-3-5.8c-1.2,0.7-2.6,1.1-4,1.3
	c-1.2,0.2-2.5,0.3-3.7,0.4c1.6-1.3,3.1-3.3,4.8-5c-8.6-7.8-22-7.2-29.8,1.5s-7.2,22,1.5,29.8s22,7.2,29.8-1.5
	c4.4-4.8,6.3-11.4,5.2-17.8L212.5,446.4z"/>
<path class="st3" d="M229.1,471.1c-1.3,0.8-2.7,1.3-4.2,1.4c-1.2,0.2-2.5,0.3-3.7,0.4c1.3-1.2,2.5-2.5,3.7-3.8
	c-6.6-1.7-13.4,2.3-15.2,8.9c-1.7,6.6,2.3,13.4,8.9,15.2c6.6,1.7,13.4-2.3,15.2-8.9C235.1,479.3,233.2,474.1,229.1,471.1
	L229.1,471.1z"/>
<circle class="st8" cx="184.4" cy="489.8" r="5"/>
<circle class="st8" cx="179.5" cy="487.3" r="5"/>
<circle class="st8" cx="174.5" cy="484.8" r="5"/>
<path class="st3" d="M154.7,471.1c1.3,0.8,2.7,1.3,4.2,1.4c1.2,0.2,2.5,0.3,3.7,0.4c-1.3-1.2-2.6-2.5-3.7-3.8
	c6.6-1.7,13.4,2.3,15.2,8.9c1.7,6.6-2.3,13.4-8.9,15.2c-6.6,1.7-13.4-2.3-15.2-8.9C148.7,479.3,150.6,474.1,154.7,471.1L154.7,471.1
	z"/>
<path class="st8" d="M188.3,519.6h12.1c13.8,0,25,11.2,25,25v32.9c0,2.3-1.9,4.2-4.2,4.2h-53.6c-2.3,0-4.2-1.9-4.2-4.2v-32.9
	C163.3,530.8,174.5,519.6,188.3,519.6z"/>
<g class="st10">
	<path d="M212.9,447.8c-0.5,0.5-1,1-1.6,1.5c0.6,0,1.1-0.1,1.7-0.2C213,448.7,212.9,448.2,212.9,447.8z"/>
	<path d="M203.8,441.8c1.3-0.1,2.5-0.2,3.7-0.4c1.1-0.1,2.2-0.4,3.2-0.9c-0.5-1-1.1-2-1.7-2.9c-0.6,0.4-1.3,0.7-2,0.8
		C206,439.7,205,440.8,203.8,441.8z"/>
	<path d="M173.3,452.5c0-11.6,9.4-21.1,21-21.1c4.1,0,8,1.2,11.5,3.4l0.3-0.3c-8.7-7.7-22-7-29.8,1.7c-7.7,8.7-7,22,1.7,29.8
		c0.1,0.1,0.2,0.1,0.2,0.2C175,462.3,173.3,457.5,173.3,452.5z"/>
</g>
<g class="st10">
	<path d="M221.2,475.4c1.2-0.1,2.5-0.2,3.7-0.4c1.5-0.1,2.9-0.6,4.2-1.4c2.8,2.1,4.7,5.3,5,8.8c0-0.4,0.1-0.9,0.1-1.3
		c0-3.9-1.8-7.7-5-10c-1.3,0.8-2.7,1.3-4.2,1.4l-1,0.1C223.1,473.6,222.2,474.5,221.2,475.4z"/>
	<path d="M221.7,471.1c0.4,0,0.8,0,1.2,0.1c0.6-0.7,1.3-1.4,1.9-2.2c-6.6-1.8-13.4,2.2-15.2,8.8c-0.3,1.1-0.4,2.1-0.4,3.2
		c0,0.4,0,0.8,0.1,1.2C210,476,215.3,471.1,221.7,471.1z"/>
</g>
<g class="st10">
	<path d="M162.6,475.4c-1.2-0.1-2.5-0.2-3.7-0.4c-1.5-0.1-2.9-0.6-4.2-1.4c-2.8,2.1-4.7,5.3-5,8.8c0-0.4-0.1-0.9-0.1-1.3
		c0-3.9,1.8-7.7,5-10c1.3,0.8,2.7,1.3,4.2,1.4l1,0.1C160.7,473.6,161.6,474.5,162.6,475.4z"/>
	<path d="M162.1,471.1c-0.4,0-0.8,0-1.3,0.1c-0.6-0.7-1.3-1.4-1.9-2.2c6.6-1.8,13.4,2.2,15.2,8.8c0.3,1.1,0.4,2.1,0.4,3.2
		c0,0.4,0,0.8-0.1,1.2C173.8,476,168.5,471.1,162.1,471.1z"/>
</g>
<g>
	<g>
		<path d="M696.8,564.1c3.5-0.8,7-0.2,10.6,0.4c-0.7,0.4-1.5-0.2-2.2,0.5c1.1,0.2,2,0.4,3.3,0.6c-2,0.7-3.8-0.6-5.9,0.2
			c2.7,0.9,5.3,0.6,7.6,1.6c-0.5,0.5-1.2-0.1-1.7,0.5c0.9,0.1,1.6,0.1,2.8,0.2c-2.5,0.6-4.5,1-6.6,1c1.4,0.7,2.9,0.5,4.3,0.8
			c-0.4,0.1-0.7,0.1-1.4,0.3c1.6,0.6,3,0,4.3,0.6c-0.2,0.6-1.1,0-1.3,0.9c2.1-0.2,3.6,1.5,5.7,1.6c-0.8,0.3-1.8,0.2-2.8,0.9
			c1.7,0.2,3.1-0.1,4.4,0.7c-0.3,0.5-1.1,0.1-1.3,0.8c0.7,0.9,1.7-0.1,2.6,0.5c-1.5,1.3-3.5,1.6-5.2,2c-1.4,0.3-1.4,0.7-1.2,1.7
			c-0.5-0.4-1-0.6-1.6-0.6c-0.4,0.4,0.6,1-0.2,1.2c-0.3,0.1-0.6,0.1-0.7-0.3c-0.3-0.8-0.9-1.1-1.5-0.6c-0.7,0.6,0.9,0.6,0.6,1.3
			c-0.4,0.5-0.7-0.4-1.1,0c1.3,1.3,3.7,0.8,4.5-1c0.9,1,1.6,0.6,2.1-0.4c0.3,0.7,0.8,2.3,1.3,1.5c0.8-1.3,1.9-0.8,2.7-1.2
			c-0.2,0.4-0.2,0.9,0.4,0.8c2-0.3,4.1-0.8,6.4-0.8c-0.4-0.4-0.5-0.5-0.6-0.5c-2.1-0.2-4.2,0.3-6.3,0.5c0.3-0.4,1.1-0.1,1.1-0.9
			c-2-0.7-2-0.7-5.2,0.6c0.8-1.2,3.2-2.1,4.8-1.7c1.1,0.3,2.1,0.5,3.3,0.1c0.7-0.3,1.9-0.3,2.4,0.3c1.3,1.8,3,1.5,4.7,1.5
			c-2.2,0.3-4.4,0.5-6.6,0.8c-0.5,0.1-1.1-0.1-0.4,0.8c0.5,0.6-0.2,0.6-0.6,0.6c-0.6,0.1-1.2-0.2-1.7-0.4c-0.7-0.3-1.1,0.1-1.4,0.6
			c-0.2,0.4-0.5,0.8,0,1.1c0.6,0.5,1.3,0.5,1.9,0c0-0.7-0.9-0.3-1-0.9c0.4-0.4,0.8-0.1,1.1,0.1c1.1,0.4,2.2,1.1,2.6-0.9
			c0.2-0.7,1.1-0.6,1.7-0.7c4.5-0.4,9-0.9,13.7-0.1c-3.9,0.2-7.5-0.2-11.1,0.7c3.7,0.6,7.4-0.4,11.6,0c-2.1,0.8-3.9,0.7-6,0.9
			c1.2,0.8,2.3,0,3.2,0.5c-0.1,0.6-0.9,0.3-1.1,0.9c1.3,0.4,2.5-0.2,3.7-0.3c3.7-0.4,7.3-0.3,11-0.2c1.5,0,2.8,0.7,3.8,1.8
			c1.2,1.3,2.3,2,3.6,0.2c0.4-0.2,0.9-0.4,1.3-0.6c0,5.4,0,10.7,0,16.1c-1.2,0.1-2-1.2-3.3-1.1c0.3-0.9,0-1.3-0.9-1.4
			c-1.1-0.1-2.2-0.5-3.3-0.7c-0.7-0.1-1.4-0.9-2.8-0.3c2,0.6,3.2,1.5,4.6,2.1c0.8,0.3,1.6,0.5,2.4,0.1c0.1,0.8-0.1,1-0.9,0.9
			c-1.5-0.1-2.7-1-4.3-0.9c1.4-0.1,1.2,2.8,3.3,1.7c0.2-0.1,0.2,0.3,0.2,0.6c0,0.4,0.3,0.6,0.5,0.4c1.3-1.1,2.9-0.7,4.4-0.7
			c0,2.5,0,5,0,7.5c-0.6,0.2-0.7,0.7-0.8,1.3c-0.1,1.1-0.5,1.3-1.7,0.9c-1.2-0.4-2.5-0.4-3.8-0.5c0.7,0.7,1.6,0.8,2.6,1
			c0.4,0.1,1.1,0.2,1,0.5c-0.9,2,0.3,3.5,0.9,5.1c-0.1,0-0.2,0-0.4,0c-0.1-0.5,0.3-1.2-0.4-1.4c-1.9-0.7-3.7-1.8-5.9-1.5
			c0.5,0.6,1.2,0.7,1.8,0.7c1.5,0.1,1.8,0.9,1.6,2.2c-17.8,0-35.5,0-53.3,0c-1-0.9-2.7-0.7-3.4-2.2c0,1.1,0.7,1.8,1.6,2.2
			c-2.3,0-4.5,0-6.8,0c-1.7-0.5-3.5-1-5.2-1.6c-0.3-0.1-1-0.1-0.9-0.7c0.1-0.4,0.6-0.2,0.9-0.3c0.1,0,0.1-0.1,0.1-0.2
			c-0.2-0.6-1.1-0.3-1.2-1.1c1.9-0.4,3.6,0.9,5.4,0.5c-0.5-0.8-1.3-0.6-2-0.8c-0.8-0.2-1.4-0.4-1.9-1.3c1.6,0,3.1,0,4.9,0
			c-1.6-0.9-3.2-0.4-5-1c1.6-0.1,2.8-0.1,4-0.2c-2.3-1.3-4.8-1.1-7.1-1.5c1.7-0.4,3.6-0.8,5.8-0.3c-1-1.5-0.6-2.1,0.9-2
			c0.5,0,0.9-0.5,1.2-0.9c0-0.1-0.2-0.4-0.2-0.4c-1,0.1-1.4-1-2.6-1c1.1-0.7,2.3-0.5,3.3-1.2c-1.4-0.4-2.7,0.3-4,0.2
			c0.1-0.7,1-0.5,1.1-1.3c-1.2,0.3-2.2,0.6-3.5,0.9c1.1-1.4,2.7-1.6,3.8-2.8c-1.2-0.4-1.9,1-3,0.5c0.9-1.4,2.1-2.6,3.4-3.8
			c-1.9-0.5-2.1,1.6-3.4,1.8c-0.4-0.8,0.1-1.6,0-2.3c0-0.4,0.1-0.9-0.5-0.9c-0.5,0-0.4,0.5-0.5,0.8c-0.2,0.7,0,1.5-0.7,2.2
			c-1.1-1.6-0.9-3.5-1.2-5.2c-0.1-0.4,0-1-0.6-0.9c-0.6,0-0.4,0.6-0.4,1c0,0.7,0,1.3,0,2c-0.6-0.4-0.8-0.9-1-1.4
			c-0.1-0.1-0.4-0.2-0.6-0.1c-0.3,0.1-0.3,0.4-0.2,0.6c0.8,1.1,0.4,2.6,1.3,3.6c0.4,0.5,0.5,1,0,1.6c-1.4-1-1.6-3.2-3.5-3.7
			c-0.3,1.7,1.8,2,1.7,3.5c-1.3-0.2-1.7-1.6-2.9-1.7c0,0.7,0.4,1,0.8,1.4c0.7,0.5-0.6,1.1,0,1.7c-0.5,0.4-0.9-0.1-1.3-0.3
			c-0.6-0.3-1.1-0.3-1.7,0c-0.2,0.1-0.5,0.1-0.7,0c-0.4-0.2-0.6-0.6-1.2-0.2c0,1,1,1.7,1.1,2.7c0.1,0.7-0.1,1.1-0.6,0.6
			c-0.8-0.6-2-0.5-2.5-1.5c-0.3-0.5-0.8-0.6-1.3-0.2c0.8,1.3,2.5,2.2,2.2,4c-1.1,0.3-1.5-3.3-2.8-0.2c-0.1,0.3-0.5,0-0.8-0.2
			c-0.3-0.2-0.6-0.4-0.9-0.6c-0.4-0.3-0.9-0.6-1.3-0.1c-0.3,0.3,0.1,0.8,0.3,1.1c0.5,0.7,1.1,1.3,1.2,2.2c-1,0.2-1.1-1.2-2-0.9
			c0.4,1.6,0.3,1.9-0.6,1.5c-1.1-0.4-1.5-0.1-1.6,1c-0.1,0.9-0.6,1.1-1.2,0.2c-0.2-0.3-0.4-0.4-0.7-0.5c-0.5-0.2-0.6-1-1.3-0.6
			c-0.7,0.4,0.1,0.8,0,1.2c-0.1,0.3,0.1,0.7-0.4,0.9c-0.3,0.1-0.5-0.1-0.7-0.4c-0.6-1-0.7-0.3-0.9,0.2c-0.3,0.8,0,1.8-0.7,2.9
			c0-1,0-1.7-0.1-2.3c-0.1-0.5,0.5-1.5-0.6-1.5c-0.9,0-2.1,0.1-2.1,1.3c0,1.5-1,2.1-2,2.9c-0.3-0.6,0.2-1,0.3-1.4
			c0.1-0.6,0.4-1.3-0.1-1.7c-0.7-0.6-0.8,0.6-1.4,0.7c-0.8,0.1-1,0.9-1.2,1.4c-0.4,1.2-1.2,1.7-2.3,1.9c1-1.4,1.5-3.1,1.4-4.8
			c0-0.4,0.2-1.1-0.5-1.1c-0.6,0-0.6,0.6-0.5,1c0.2,1.6-1,2-2.1,2.4c-0.8,0.3-1.6,0.6-2.4,0.9c-1.1,0.5-1.3-0.4-1.6-1.1
			c-0.1-0.3,0.4-0.7-0.1-1.2c-1.6,0.8-1.2,3.2-3,3.9c-0.5-0.4,0.5-1-0.2-1.4c-0.8,0.2-1,0.9-1.3,1.6c0.1-0.5,0.2-0.9,0.3-1.4
			c0-0.4,0.4-0.9-0.2-1c-0.6-0.2-0.5,0.5-0.7,0.8c-0.2,0.5-0.3,1-1,1.2c-0.5-0.3,0.5-1.1-0.4-1.2c-0.7-0.1-0.5,0.6-0.9,0.9
			c-0.3,0.3-0.5,0.5-0.5,0.9c0.1,1.1-0.6,1.6-1.5,1.9c-3.6,0-7.2,0-10.7,0c1.1-1-0.4-2.2,0.6-3.5c-0.5,0.3-0.7,0.3-0.8,0.4
			c-1.3,0.8-0.1,2.2-0.8,3.1c-8.5,0-16.9,0-25.4,0c1.5-0.3,2.6-1.5,3.9-2c-1-1.7-2.4,0-3.4-0.7c-0.3,0.8,0.8,0.8,0.5,1.5
			c-0.6,0-1.2,0.4-1.9,0.2c-1-0.2-0.6,0.5-0.6,0.9c-4.4,0-8.8,0-13.2,0c0.2-1.2-1.1-1.9-1.2-3c0-0.3-1-0.9-1.5-0.8
			c-0.6,0.1-0.1,0.9-0.3,1.4c-0.4,1.2,0.9,1.5,1.1,2.4c-0.4,0-0.7,0-1.1,0c-0.3-2.5-2.4-4.4-2.1-7c0-0.2-0.2-0.4-0.5-0.4
			c-0.4,0-0.5,0.3-0.6,0.6c-0.3,1.2-0.1,2.4-0.1,3.6c0,0.4,0.2,0.9-0.5,0.9c-0.5,0-0.7-0.4-0.7-0.9c0-0.9,0-1.9,0-2.8
			c0-0.1-0.2-0.2-0.3-0.3c-0.6,0.2-0.2,0.9-0.6,1.2c0-0.2,0-0.4-0.1-0.6c-0.2-0.7,0.6-1.9-0.2-2c-1.2-0.2-0.5,1.2-0.8,1.8
			c-0.3,0.5-0.6,0.9-1.2,0.9c-0.8-0.1-0.7-0.7-0.6-1.2c0.2-1.1,0.3-2.2,0.2-3.4c-1.7,0.3-0.7,1.9-1.4,2.6l0.1,0
			c-0.4-1,0.4-2.2-0.5-3.6c-1.4,3.1-1.7,6.2-2.1,9.3c-0.4-0.8-0.5-1.5-0.5-2.3c-0.1-1.7,0.7-3.2,0.9-4.8c0.1-0.8,0.7-2,0-2.2
			c-0.9-0.2-1,1.2-1.5,1.8c0,0-0.1,0.1-0.1,0.2c-0.1-0.7-0.1-1.2-0.2-1.8c-0.1-0.6,0.3-1.3-0.3-1.6c-0.7-0.3-0.7,0.8-1.5,0.9
			c0-0.7-1.5-0.9-0.7-1.9c0.4-0.6,0.7-1,0-1.5c-0.3-0.2-0.4-0.6-0.9-0.4c-0.6,0.3-1.1,0.7-1.1,1.5c0,0.8-0.2,1.8,0.1,2.5
			c1.2,2.8,0.4,6,1.3,8.9c0.3,0.8,0,1.6-1.2,1.6c-0.5,0-1.1,0-1.3,0.7c-3.8,0-7.6,0-11.4,0c0-1.3,0.5-2.7,0.1-4
			c-1,0.1-1.1,1.7-2.5,1.4c1.4-1.3,2.2-3,4.1-4.4c-1.7,0.4-2.3,1.3-3.1,2.1c-0.2,0.2-0.5,0.7-0.9,0.4c-0.5-0.4,0-0.7,0.4-0.9
			c1.5-1.1,2.9-2.4,3.3-4.4c-1.6,0.3-2.5,1.8-4.5,2.4c2.1-2.3,4.3-3.6,6.5-4.8c-1.9,0-3.2,1.5-5,2.1c2-0.9,0.2-2.8,1.4-3.8
			c-0.8-0.1-1.1,0.6-1.7,0.4c0-0.4,0.6-0.3,0.5-0.9c-1.5,0.2-2.6,1.3-4.1,1.9c0.6-0.9,1.9-1.1,2.2-2.2c-2,0.7-3.5,2-5.1,3
			c-0.4,0.2-0.6,1.2-1.2,0.5c-0.4-0.6,0.5-0.9,0.9-1.1c2.6-1.5,4.6-3.8,7.2-4.9c-2.2-1.7-3.9,0.6-6,0.7c1.7-0.4,2.1-2.1,3.8-3
			c-2.2,0.1-3.4,1.5-5.2,1.2c1.2-0.6,2.4-1.2,3.6-1.7c-2.5,0.2-4.4,1.7-6.7,2.2c2.2-1.7,4.9-2.6,7.4-3.7c0.4-0.2,0.9-0.4,1.3-0.5
			c-0.7-1.5,1.1-1.5,1.5-2.2c-0.9-1.1-2.1,0-3.1-0.3c0.9-1.7,2.6-1.9,4.3-2.9c-1.2-0.5-2.1,0.9-2.9-0.2c0.4-0.5,0.9-0.9,1.5-1.6
			c-3.2,0.5-5.9,1.9-9.1,2.7c1.1-1.8,2.4-1.7,3.6-1.9c2.7-0.4,5-2.5,8-2c1,0.2,1.9,0.2,2.9,0.2c-3.9-2-7.9-2.5-12.1-0.8
			c2.2-0.4,2.7-3,4.9-2.9c-0.1-0.8-0.8-1-0.7-1.7c0.1-0.4,0.4-0.6,0.7-0.7c0.2-0.1,0.4,0,0.5,0.3c0.5,2.1,1,2.3,2.9,1.4
			c-0.4-0.6-1.3-0.2-1.7-0.8c0.3-0.5,1-0.7,0.8-1.5c-0.8-0.1-1.6-0.1-2.3-0.2c-0.4-0.1-1.1-0.4-0.6-0.7c1.1-0.9-0.5-1-0.4-1.7
			c1.7-0.4,3.1-1.9,5-1.5c0.5,0.1,0.8-0.2,0.8-0.7c0-0.4-0.3-0.7-0.5-0.5c-1.3,0.8-3.2-0.4-4.3,1.3c-0.4,0.6-0.9,0.3-0.9-0.4
			c0-1.2-1.6-0.5-1.7-1.5c-0.1,0.1-0.3,0.2-0.4,0.3c-0.3,1-1.7,1.5-0.6,3.2c-1.8-1-2.1-3.1-4-3.1c0.1,1.1,2.2,2.1,0,3.2
			c-0.4,0.2,0,0.5,0.2,0.7c0.3,0.4,0.7,0.9,1,1.3c-1.4-0.4-2.3-1.7-3.8-2c1.7,0.9,1.4,2.9,2.7,4.1c-1.8-0.2-2.3-1.9-4-2.1
			c1.4,1.8,3.7,2.5,4.4,5c-2.3-1.3-3.5-4-6.8-3.6c2.1,1.7,3.9,3.2,5,5.6c-2-1.2-2.6-3.5-5-4c0.2,0.8,1.1,0.7,1.3,1.5
			c-0.4,0.1-0.8,0.1-1.4,0.2c1.1,1,2.3,1.8,2.9,3.3c-2.4-0.8-4.2-1.8-6.2-2.6c0.8,1.3,2.4,1.8,3.4,3.4c-1.7-0.6-2.5-1.9-4.3-2.1
			c2.4,2,4.6,3.8,6.6,6.4c-2.9-1.6-4.9-4.1-8.4-4.9c3.6,2.5,6.9,4.8,9.5,7.9c-2.9-1.6-5.2-4.3-8.4-5.4c-0.1,0.1-0.2,0.3-0.3,0.4
			c1.4,0.9,2.7,1.7,4.1,2.6c-1.5,0.1-2.5-1.3-4.3-1.1c1.4,1,2.9,1.4,3.8,2.6c-0.9-0.3-1.8-0.6-2.7-0.9c1.1,0.8,2,1.8,3.4,2.1
			c-0.7,1.1-1.4-0.6-2.2,0c-1.2-1.4-2.9-1.4-4.4-1.9c1.4,0.8,2.8,1.8,4.5,1.9c0.7,1.1,2.1,1.3,3.1,2.5c-2.1-0.8-3.7-2.1-6-2.2
			c1.4,1.2,3.2,1.2,4.4,2.5c-1.1,0.3-1.9-1-3-0.4c0.8,0.9,2.2,0.5,2.8,1.5c-0.6,0-1-0.6-1.5-0.1c0,0.8,1.2,0.3,1.2,1.1
			c-1.2-0.2-2.2-1-3.5-0.8c1.1,1.1,2.6,0.9,3.7,1.8c-0.7,0.6-1.4-0.6-2.3,0.2c2,0.5,3.8,1.3,5.6,2.2c-0.4,0.5-1-0.3-1.3,0.3
			c0.3,0.4,1,0.3,1.2,1c-0.6-0.1-1.2-0.3-1.8-0.3c-0.6,0.1-1.5,0.1-1.6,0.8c-0.1,0.8,0.9,0.8,1.5,0.9c0.5,0.1,1,0,1.4,0.1
			c0.3,0,0.8,0.1,0.8,0.5c0,0.4-0.4,0.4-0.7,0.4c-0.6,0-0.4,0.2-0.2,0.6c0.4,0.9,1.3,1.2,2.1,1.5c0.3,0.1,1,0.2,0.8,0.5
			c-0.9,1.3,0.6,1.1,0.9,1.2c1.3,0.5,2.7,0.9,3.7,2c-1.7-0.6-3.3-1.4-5.2-1.5c1.7,0.6,3.1,2.1,5.2,1.5c0.1,0.6,0.6,1,1.1,1
			c1.1,0.2,1.6,0.9,2.2,1.7c-2.7-0.2-4.9-2.1-7.7-2.1c2,0.9,4,1.7,5.9,2.6c-5.6,0-11.2,0-16.8,0c-0.5-2.2,0.7-3.7,2.1-5.3
			c-1.5,0-2.1,1.4-3.7,1.5c1.5-1.1,0.2-2.5,1-3.6c-0.8,0.7-1.4,1.5-2.4,1.7c-0.2-0.8,0.5-1.4,0.7-2.1c-1,0.2-1,1.4-1.6,1.4
			c-1.5-1.7-1.3-3.5-0.6-5.5c-0.4,0.6-0.6,1.2-0.8,1.8c-0.1,0.4-0.7,0.6-0.7,0.6c-0.1-1.2-1.6-0.9-1.8-1.6c-0.3-1.1-1.4-1.4-1.6-2.5
			c-0.9,0.9,0.1,1.8-0.2,2.6c-1.7-1.5-3.9-2.5-4-5.1c-0.9,0.6,0.1,1.2-0.7,1.6c-1.3-1.3-2.1-3.5-4.6-3.2c-0.1,0-0.2-0.3-0.3-0.4
			c-0.6-0.2-0.9-1-1.8-0.9c1.2,1.4,2.9,1.9,3.8,3.4c-1.4-0.2-2.4-1.3-3.9-1.3c0-0.2,0.1-0.5-0.1-0.6c-2.3-1.4-4.6-2.8-7.3-3.4
			c2,1.2,4,2.4,6,3.6c-0.7,1.2,0.6,1,1,1.2c2.6,1.1,5.3,2,7.8,3.4c0.9,0.5,1.2,1,0.7,1.8c-0.7,1-0.2,1.2,0.7,1.6
			c1.2,0.5,2.6,0.3,3.5,1.4c0.3,0.4,1.3,0.2,1,1c-0.4,0.7-0.8-0.4-1.3-0.2c-0.1,0-0.2,0.1-0.3,0.2c0.4,0.3,0.9,0.6,1.3,1
			c0.1,0.1,0.4,0.3,0.1,0.6c-0.3,0.2-0.6,0.1-0.8,0c-1.1-0.8-2.2-1.5-3.6-1l-0.1,0c-0.3-1.6-1.8-2.2-3.5-1.4
			c0.8,0.9,2.1,0.9,3.1,1.5c0,0.2,0.1,0.4,0.1,0.6c0.3,0.6-1.2,1.2,0.1,1.8c2,0.8,3.6,2,4.8,3.8c-10.7,0-21.5,0-32.2,0
			c-1.9-0.9-3.8-1.8-5.7-2.7c0.5,0.1,0.9-1.6,1.5,0c0.1,0.3,1.5,1,1.8,0.3c0.6-1.6,1.5-1.1,2.5-0.9c1.7,0.4,2.1,0.4,3.1-0.2
			c-2.5-1.2-5.6-0.8-8-2.6c0.7-0.8,1.4,0.3,1.9-0.4c-0.3-0.7-1.5-0.6-1.5-1.7c0.8-0.1,1.6,0.8,2.5,0.1c-0.2-0.2-0.3-0.3-0.4-0.4
			c-0.7-0.7-2.2-0.6-2.1-1.6c0.1-1.1,1.7-0.2,2.4-1.2c-0.5-0.4-1.4-1.1-1.4-1.2c1-2.1-1.1-1.9-1.8-2.3c-1.3-0.8-2.5-1.5-3.4-2.6
			c1.8,1,3.4,2.1,5.4,2.5l0,0c0.5-0.3,1.2,0.3,1.6-0.5c-0.1-0.1-0.3-0.3-0.4-0.3c-0.5-0.3-1.2-0.5-0.7-1.3c0.5-0.7,0.9,0,1.3,0.1
			c0.7,0.3,1.4,0.9,2.3,0.8c-1-0.6-1.4-1.5-2-2.4c-1.6-2.1-3.5-4-5.2-6c0,0,0.1-0.2,0.2-0.4c0.6,0.3,0.9,0.8,1.4,1.3
			c1.1,1.1,1.7,2.7,3.6,2.9c1.6,2.2,4,3.3,6.5,4.1c-1.5-0.9-2.9-2.1-4.2-3.3c0.4-1,2.1-1.6,0.6-2.9c2.1,0.3,4.1,0.7,5.8,2.1
			c-1.7-2.2-4.4-3.3-5.7-5.9c0.8,0.5,1.5,1.1,2.2,1.7c0.4,0.3,1.1,0.8,1.2,0.5c0.6-1.6,1-0.1,1.5,0c0.5,0.2,0.8,1,1.8,0.6
			c-0.7-0.5-1.3-0.9-1.8-1.5c-0.5-0.5-1.5-0.7-1.4-1.8c1.2,0.4,1.8,1.8,3.4,1.9c-1.6-1.7-3.5-2.8-4.4-5.1c1.1,0.2,1.4,1.7,1.8,1.3
			c1.2-1.3,1.2,0.5,1.8,0.5c0.6,0,0.6,1.3,1.5,0.8c0.1-0.4-0.2-0.6-0.4-0.9c-1.3-1.6-3-3-2.8-5.3c0-0.4-0.2-1.1,0.5-1.2
			c0.7-0.1,0.5,0.6,0.6,1.1c0.3,1.4,1.1,2.4,2.7,3.2c-0.5-1.1-1.1-1.6-1.2-2.4c0.5-0.5,0.7,0.5,1.1,0.1c0.4-0.4-0.2-0.7-0.3-1.1
			c-0.4-1.4-0.6-2.8,0.8-4.1c0.1,3.6,1.2,5.5,3.8,6.5c0.1-0.3-0.2-0.4-0.3-0.5c-1.1-1.3-2.5-2.6-2.5-4.5c0-0.3-0.2-0.8,0.3-0.9
			c0.4-0.1,0.5,0.3,0.6,0.7c0.4,1.1,0.5,1.1,1.7,1.7c-1.6-1.7-0.4-3.6-1.5-5c-0.5-0.7,0-1.5,0.6-2.1c0.2-0.2,0.6-0.6,0.2-0.9
			c-0.4-0.2-0.6,0.1-0.8,0.5c-0.9,1.4-2,2.5-3.6,3c-1.5,0.4-3,0.7-4.5,1.1c-2.9,0.7-5.9,1-8.8,1.3c3.9,0.6,7.7-0.8,11.5-0.7
			c-3.4,0.6-6.8,1.1-10.1,2c2,0.1,3.8-0.7,5.8-0.3c-4.9,1.6-10,2.5-15,3.3c5.9-0.3,11.6-1.4,17.2-3c-4.7,2.5-9.9,3.1-15.3,4.2
			c1.6,0.5,2.8,0,4.3,0.1c-1.3,0.9-2.8,0.6-4,1.5c-1.5,1.1-3.5,1.7-5.4,2.4c-0.4,0.2-1,0.5-0.6,1.1c0.2,0.4,0.5,0.9,1.1,0.5
			c0.7-0.4,1.4-0.1,2.2,0.3c-2,0.9-3.6,2.3-6,1.9c0.8,1,1.5,0,2,0.6c-0.7,1-2.1,0.1-2.9,0.9c0.6,0.7,1.3,0.3,1.9,0.2
			c0.7-0.2,0.5,0.3,0.4,0.6c0,0.2,0.6,0.6-0.1,0.5c-1.2-0.2-2.1,0.7-3.6,0.5c1.3,0.8,2.3,0.1,3.5,0.5c-1.6,0.4-2.9,0.7-4.1,1
			c0,0.1,0,0.2,0,0.3c1.4-0.2,2.9-0.4,4.6-0.6c-2.9,1.5-5.9,1.2-8.6,2.1c1.7,0.4,3.4-0.5,5.3,0c-0.6,0.4-1.3,0.2-1.6,0.7
			c0.7,0.4,1.4-0.4,2.2,0.2c-1.3,0.4-2.4,0.7-4,1.1c2,0.5,3.4-0.6,4.9-0.2c-2,0.6-4.1,1.1-6.1,1.7c4,0.2,7.4-1.8,11.2-2.7
			c-2.3,1.6-5.1,2.1-8,3.6c2.1,0.2,3.5-0.8,5.2-1.1c-2.2,1.7-4.9,2-7.1,3.5c0.7,0.6,1.4-0.6,2.1,0.1c-1.3,0.6-2.5,1.1-4,1.8
			c2.8,0.3,4.9-1.1,7.5-1.1c-1.7,1.3-3.7,1.8-5.5,2.8c0.7,0.4,1.3-0.4,1.9,0.2c-0.6,0.3-1.2,0.6-2.1,1.1c1.9,0.1,3.2-1.1,4.9-1.3
			c-1.5,1.3-3.3,1.7-4.8,2.6c1.1,0.9,2.1,0.3,3.1,0c1-0.3,2-0.7,3-1c0.9-0.3,1.6-1.3,2.9-1.2c-2.7,2.2-6,2.8-9.1,4.4
			c2.4,0.2,3.9-1.3,6.1-1.5c-0.7,0.7-1.6,0.6-1.9,1.3c0.3,0.5,0.9-0.2,1.2,0.2c-1,1-2.5,0.9-3.4,1.9c-5.2,0-10.5,0-15.7,0
			c1.2-0.5,0.9-2,1.6-2.8c-0.3,0.7,0.3,0.7,0.6,0.6c1.7-0.6,3.5-1.2,5.2-1.9c0-0.1-0.1-0.2-0.1-0.3c-1.6,0.4-3.2,0.7-4.8,1.1
			c0.7-0.3,0.9-1,0.7-1.6c-0.3-0.6-0.9-0.8-1.7-0.5c-0.5,0.2-1.1,0.4-1.7-0.1c0.7-1,1.4-1.9,2.4-2.5c-0.5-0.4-1.1,0.1-1.4-0.6
			c0.9-0.5,2.2-0.4,3.1-1.9c-1.7,1-2.7,0.6-3.2-0.7c-0.7-1.7,1.2-1.9,1.9-3.1c-1.7,0.3-2.7,0.2-1.5-1.7c0.2-0.3,0.3-0.9-0.2-1.1
			c-0.5-0.2-0.8,0.4-1.1,0.7c-0.9,0.6-0.8,2-2.3,2.4c1.2-2.5,3.1-4.1,5.1-6c-1.8,0.2-2.4,1.7-3.8,2.2c0.2-1.2,1.2-1.6,1.7-2.4
			c0.2-0.4,1.2-0.6,0.3-1.1c-0.6-0.4-1.2-1.3-1.9-0.3c-0.2,0.3-0.3,0.6-0.9,0.6c-0.1-0.6,0.2-1.1,0.6-1.5c0.9-1.1,1.9-2.1,3.2-2.8
			c0.8-0.5,0.6-1.5,0.1-1.4c-1.4,0.4-2.8,0-4.1,0.4c-0.4,0.1-0.7,0.6-1.4,0.2c1.3-1,2.5-2,3.8-3c-1.2-0.2-1.7,0.7-2.4,1
			c-1.2,0.6-2,1.7-3.7,0.2c-0.8-0.8-1.8-0.9-1.4-2.3c0-0.1-0.1-0.4-0.2-0.5c-1.5-0.2-1.2-1.2-0.6-2.4c-1.7,1.2-1.8,2.9-2.4,4.4
			c-1.1-1.6,0.5-2.7,0.5-4.4c-1.2,1.1-1.7,2.2-2.3,3.5c-1.3-1.3-0.5-2.6-0.3-3.9c-0.7-0.1-1,0.2-1.2,0.7c-0.1,0.3,0,0.8-0.5,0.8
			c-0.6,0-0.5-0.6-0.6-1c0-0.2,0-0.4,0-0.5c0-0.4,0-0.8-0.5-0.8c-0.6,0-0.3,0.6-0.5,1c-0.3,0.9,0.9,1.6,0.3,2.5
			c-0.7-0.2-0.8-1.2-1.7-1.2c-0.5,0.1,0.5,1.7-0.6,0.9c-1.2-0.7-2.2-1-3.6-0.9c-0.9,0-1.9-0.6-3-0.6c0.7,0.9,2,0.6,2.6,1.7
			c-2.3-0.3-4.3-1-6.5-0.9c1.1,1.1,2.2,1.6,3.9,1.6c1.4,0,3.1,0.3,5,1c-2.5,0.4-4.5-0.3-6.5,0.3c1.6,0.4,3.2,0,4.9,0.5
			c-0.8,0.2-1.5,0.5-2.2,0.7c2.7,0.2,5.4,0.2,8.3,0.9c-1.3,0.4-2.3,0.9-3.5,0.5c-0.8-0.2-1.5-0.4-1.8,0.7c-0.3,1.2,0.7,1.2,1.4,1.3
			c1.4,0.2,2.7,0.3,3.9,1.3c-0.8,0.9-2-0.2-2.7,0.8c3.4-0.4,6.7,1.1,10.2,0.6c-2.5,1.3-5.1,2-7.8,2.4c3.3,0.6,6.6,0.4,9.8,1.6
			c-1.5,0-3,0-4.7,0c0.8,0.7,1.7,0,2.3,0.5c0.3,0.8-1.3,0.8-0.6,1.7c0.9,1.1,0.9,2.1,0.1,3.4c1.2,0.3,2.3,0.7,3.6,1.7
			c-2.1-0.2-2.8,0.4-1.6,2.3c-0.9-0.2-1.6-0.4-2.2-0.5c0.2,2.1,2.8,2.1,3.4,3.9c-1.1,0.1-1.8-0.8-2.7-0.4c0.8-0.3,0.4-0.7,0-0.8
			c-1.4-0.5-2.8-1.1-4.4-1.1c1.7,0.1,2.8,1.8,4.5,1.9c-0.7,0.2-1.7,0.1-1.7,0.9c0,1.4,1.7,1.1,2.7,2.4c-1.9-0.8-3.5-0.8-5.1-0.9
			c1.6,1.1,3.4,1.7,4.8,3c-8.5,0-16.9,0-25.4,0c0-1.3,1.9-1.6,1.6-3.1c-1,0.2-1.5,1.4-2.7,1.1c0.7-1,1.1-2,2.1-2.6
			c0.7-0.4,0.5-1.2,0.2-1.7c-0.4-0.7-0.9-0.1-1.3,0.2c-1.2,0.8-1.5,2.4-2.5,3.3c-0.9,0.8-1,1.7-0.6,2.7c-0.3-1.2-1.5,0-2-0.8
			c-0.2-0.4-0.7,1.2-1.1,0.1c-0.3-0.7-0.1-1.2,0.6-1.6c0.8-0.4,0.6-0.9-0.3-1.3c1.9-0.1,5-3.3,4.6-5c-0.1-0.5-0.1-1.4-0.5-1.5
			c-0.6-0.2-1,0.6-1.2,1c-0.7,1-1.4,1.8-2.5,2.3c0.4-0.6,0.3-1.4,0.9-1.8c1.6-1.2,1.9-3.3,3-4.8c0.2-0.2,0.3-0.9,0.1-1
			c-1.2-0.7-0.3-1.4,0-2.1c0.2-0.5,0.5-1.1,0.1-2c-1.7,3-2.4,6.2-4.5,8.7c0.6-1.7,0.8-3.4,1.1-5.7c-0.8,1.2-1.3,2-1.4,2.9
			c-0.1,0.6-0.3,1.3-1,0.4c-0.2-0.3-0.5-0.4-0.7-0.1c-0.2,0.2-0.2,0.5,0,0.6c0.8,0.8,0.4,1.8,0.6,2.7c0.1,0.3,0.4,0.7-0.1,0.9
			c-0.4,0.2-0.6-0.2-0.8-0.5c-0.3-0.6-0.6-1.4-1.9-1.3c1,1.4,2.1,2.5,2.3,4.1c-0.8,0.1-1.2-0.9-1.9-0.6c0.1,0.7,1.1,0.7,1.1,1.5
			c-1-0.1-1.2,0-1.7,0.9c-0.5-0.2-1-0.5-1.4-0.7c-1.6-1-3.2-1.9-5.1-0.4c-0.3-0.7,0.9-0.8,0.2-1.6c-0.8,0.7-1.6,1.4-2.4,2.1
			c-0.5-0.7,0-1.3-0.2-1.9c-0.1-0.3-0.1-0.8-0.5-0.8c-0.4,0-0.5,0.3-0.4,0.6c0.2,1.7-1.9,3.2,0.1,5c-1.3,0-1.9-0.9-2.9-0.7
			c0.9,1.1,2.6,1,2.9,2.6c-10.5,0-21,0-31.5,0c0.4-0.9,1.7-1,2-1.9c-0.6-0.5-0.9,0.4-1.4,0c0.3-0.7,1-1.1,1.5-1.5
			c0.2-0.2,0.7-0.5,0.3-0.6c-1.5-0.5-0.2-0.9,0-1.2c1.3-2.3,3.3-3.6,5.7-4.5c0.3-0.1,1.4-0.2,0.2-0.8c-0.3-0.2,0-0.3,0.1-0.5
			c0.8-0.9,1.9-1.6,1.3-3.2c-0.5-1.2-0.5-2.8-1.3-3.8c-1.1-1.2-1.5-2.4-1.4-3.8c0-0.7-0.5-0.8-0.8-1c-0.2-0.1-0.4-0.1-0.6,0.1
			c-0.6,1-0.7,1-1.3,0c-0.5-0.8-0.9-1.6-1.9-1.8c-0.2,0.7,0.3,0.8,0.5,1.1c0.8,1.4-0.4,4.6-1.7,4.4c-1.4-0.2-0.9,0.5-1,1.2
			c0,0.6,0.8,1.1,0,1.8c-1.1,1.1-1.2,2.5-0.8,4c0.1,0.4,0.9,0.9,0.1,1.3c-0.6,0.3-1.1-0.4-1.2-0.8c-0.3-1-1.1-1.3-2-1.5
			c0-6.7,0-13.3,0-20c0.7-0.1,1.5-0.3,1.4,0.9c0,0.3-0.1,0.8,0.3,0.9c0.4,0.1,0.6-0.2,0.9-0.4c1.6-1.8,3.1-3.6,4.1-5.8
			c0.3-0.7,0.9-1.3,1.5-1.4c1.6-0.2,2.7-1.1,4-1.9c0.9-0.6,1.8-0.8,3-0.2c1.3,0.7,2.6-0.2,3.9-0.6c-0.8,0.8-0.8,1.1-0.4,1
			c1.2-0.1,2.5,0.2,3.4-0.9c0.3-0.3,0-0.5-0.3-0.5c1.9,0.2,3.9,0.5,5.8,0.6c0.7,0,2.1-0.4,2.1-0.6c-0.2-2.6,3.2-2.5,3.3-4.7
			c-0.9-0.1-1.5,1-2.6,0.7c1.3-2,2.9-3.4,5-4.3c3.2-1.3,6.4-2.5,9.7-3.7c0.9-0.3,2-0.7,2.8-0.4c2.4,0.7,4.3-0.5,6.3-1.3
			c0.8-0.3,1.5-0.9,2.5-0.9c0.4,0,0.9-0.1,0.6-0.7c-0.2-0.5,0-0.5,0.4-0.4c2.2,0.2,3.9-0.7,5.4-2.2c0.3-0.3,0.6-0.4,0.9-0.2
			c0.7,0.4,1.4,0,2.1-0.2c0.5-0.2,1.2-0.5,1.5-0.1c1.1,1.2,2.4,1.3,4.1,0.7c-0.4,1.3-1.5,1.1-2.2,1.7c0.8,0.7,1.6,0.1,2.4,0.1
			c0.4,0,0.9-0.1,1.1,0.3c0.2,0.5-0.1,0.8-0.4,1.1c-0.3,0.2-0.9,0.4-0.5,0.9c0.3,0.3,0.7,0.5,1.1,0.5c0.6,0,0.7-0.3,0.5-0.8
			c-0.2-0.6,0.3-0.5,0.6-0.5c0.5,0,0.9,0.2,1.4-0.2c-0.4-0.7-1.8-0.6-1.6-1.8c0.1-0.6,0.7-0.7,1.5-0.7c-0.8,1.3-0.2,1.6,1,1.6
			c0.3,0,0.7,0.1,0.4-0.6c-0.4-0.7,0.4-0.9,0.7-0.7c2.2,1.7,3.4-0.3,4.8-1.3c0.3-0.3,0.5-0.7,0.9-1.3c-1.4-0.1-2.5,1.1-3.8,0.5
			c0.2-0.7,0.9-0.5,1.3-0.6c1.2-0.5,1.6-2.5,0.7-3.3c-0.9-0.8-0.2-1.2,0.3-1.6c1.3-1,1.3-1.1-0.4-1.7c3.8-0.7,7.3-1.8,11.1-1.2
			c0.2,0.4-0.8,0.8-0.2,1.3c0.4,0.3,0.7-0.2,1.1-0.3c0.6-0.1,1.1-0.3,1.7-0.4c0.3-0.1,0.7,0.2,0.4,0.5c-0.9,1,0,0.8,0.5,0.8
			c1.8,0,0,0.8,0.4,1.4c1.2-1.6,2.9-0.6,4.5-0.8c0.1,0.4-0.6,0.9-0.2,1.1c0.9,0.4,0.9-0.7,1.6-1c-0.3,1.4,0.1,1.2,1.3,1
			c1.3-0.2,2.6,0.1,3.4-1.3c0-0.1,0.3-0.1,0.3-0.1c1.1,1.9,2.5,0.2,3.7,0.3c0.8,0.1,0.9,0.3,0.8,1c-0.1,0.3-0.1,0.8,0.4,0.8
			c0.3,0,0.5-0.3,0.5-0.6c0.1-1.1,0.5-1.1,1.1-0.3c0.4,0.5,0.8,1,1.4,0.9c0.9-0.1,0.3-1,0.6-1.5c2.2,1.2,4.1-0.2,6.1-0.8
			c-0.8-0.1-1.4-0.4-1.9-0.9c-0.6,0.6-1.3,1-2.3,0.9c0.2-0.4,1.1-0.3,0.9-1.1c-0.2-1-1.9-0.6-1.7-2c0.3-1.7-1.4-0.2-1.8-0.9
			c0.6-0.9,0.6-0.9,2-1.4c-1.1-0.4-1.1-0.5-1.9-0.2c-1.7,0.7-2.6-0.4-3.5-1.4c-0.5-0.6,0.2-0.7,0.5-1c1.4-0.8,2.9-1,4.4-1.4
			c6.6-1.9,13.2-3.8,19.8-5.3c1.8-0.4,2.4,0.2,1.9,2c-0.1,0.6-0.8,1.1-0.3,1.9c0.9-0.1,1.4-1.4,2.6-0.9c-0.4,1-1.5,0.9-2.1,1.5
			c-0.4,0.3-0.9,0.6-0.6,1.1c0.4,0.8,0.8,0.1,1.2-0.1c1.1-0.5,2.2-0.3,3.2,0.2c0.6,0.3,1.2,0.5,1.8,0.8c0.3-1.1-0.1-1.8-1-2.5
			c2.1,0.5,4.1,1,6.2,1.4c0-0.2,0.1-0.3,0.1-0.5c-1.6-0.7-3.5-0.6-5.3-1.6c1.8-0.3,3.3,0.7,5.2,0.5c-0.8-0.3-1.4-0.5-1.9-0.7
			c0.7-0.7,1.5-1.4,3-0.3c-1.3-2-2.5-3-3.9-3.9c-0.8-0.5-0.9-2.2-2.4-1.1c-1.1-1.5-1.6-0.3-2.2,0.5c-0.2,0.3-0.8,0.2-0.7,0
			c0.1-0.7-0.6-1.5,0-2c1.1-0.9,0.9-1.7,0.7-2.9c-0.4-1.8,1.8-3.8,3.8-4c0.3-0.5-0.9-0.5-0.4-0.8c1.5-1.4,1.7-2.1,0.6-3.9
			c-1.1-2-2.9-3.2-4.3-4.9c-1.6-2-3.1-4.2-4.7-6.2c-1-1.3-1.3-3.1-2.1-4.6c-1.3-2.3-3.1-4.3-3.4-7.1c0-0.2-0.2-0.5-0.3-0.6
			c-1.2-0.5-3.1,0.2-3.3-2c-2.2,0.4-2.9-1.5-3.4-2.8c-2-4.5-5.6-8-7.6-12.5c-1.2-2.6-3.7-4.4-5.6-6.6c-2.6-2.9-2.9-6.3-2.4-9.8
			c0.3-2,1.8-2.6,3.5-3.1c3-0.8,5.7,0.1,8.2,1.4c1.2,0.6,2.5,0.8,3.8,0.7c1.3-0.2,1.6-1,0.8-2c-2-2.7-2.9-5.8-3.7-9
			c-0.9-3.6-0.5-7.3-1.1-10.9c-0.6-3.7,0.2-7.2,0-10.8c-0.3-3.7,1.1-6.8,2-10.2c0.6-2.2,1.6-4.3,1.2-6.7c-0.1-0.4-0.3-0.6-0.5-0.9
			c-1.1-1.9-1.5-4-0.1-5.7c0.7-0.9,2.1-1.3,2.7-2.5c0.7-1.5,2-2.8,1.8-4.8c-0.1-1-0.9-1.2-1.2-2c-0.6-1.8-0.5-2.1,1.3-2.1
			c1.1,0,2.1,0,3.3,0c-0.6-1.1-1.7-1.9-1.1-3.3c0-0.1-0.1-0.3-0.1-0.3c-2-0.1-1.2-1.4-0.7-2.2c0.7-1.1,1.9-1.9,3.2-1.5
			c1,0.3,2,0.3,3,0.2c0.2,0,0.5-0.1,0.7,0c2.5,1.5,3.6-0.3,5.2-1.7c1-0.9,2.3-1.3,3.6-1.8c0.8-0.3,0.6,1.1,1.3,0.9
			c1.3-0.3,2.7-0.4,3.9-0.9c1.1-0.4,2.4-0.7,2.9-2.1c0.2-0.4,1.2-0.5,1.9-0.8c2.1-0.7,3.9-2.3,6.2-2.4c1.4,0,2.8-1.4,4.2,0
			c0.2,0.2,0.6,0.1,0.8-0.2c0.5-0.7,1.3-0.8,1.9-0.5c2,0.8,4.2-1,6.1,0.5c0.3,0.2,0.5-0.1,0.8-0.3c0.8-0.5,1.4-0.9,2.6-0.5
			c1.2,0.4,2.9-0.4,3.6-1.9c0.8-1.7,2.3-1.9,3.8-2.1c0.8-0.1,1.6-0.3,2.4-0.6c1-0.4,2-0.7,3.1-0.1c0.7,0.4,1.3,0.3,2-0.1
			c0.7-0.4,1.6-0.5,2.2,0c1.3,1,2.6,0.7,3.9,0c0.9-0.5,2.4,0.1,2.6,1.2c0.1,0.7,0.4,1,1,1c2.6,0.1,5.3,0.4,7.9-0.7
			c0.8-0.3,1.6-0.2,2.4-0.3c2.2-0.2,3.5-2.2,5.7-2.1c2,0.1,4.2,0.2,5.9,0.9c1.7,0.6,3.7,0.4,5,1.5c1.7,1.4,3.8,0.8,5.5,1.9
			c0.5,0.3,1.1-0.1,1.7-0.3c2.9-0.8,5.5,0.1,8,1.4c0.6,0.3,0.9,0.4,1.4,0c0.4-0.4,1-0.5,1.5-0.8c3.1-1.4,4.6,1.7,6.8,2.4
			c0.1,0,0.2,0.4,0.3,0.4c2.8-0.1,4.9,2.4,7.9,2c2.9-0.3,3.8,2.2,5.1,4.1c0.6,0.9,1.1,1.5,2.2,1.3c0.2,0,0.3,0,0.5-0.1
			c0.1,2.2,2,1,3,1.6c1.2,0.7,2.2,1.1,1.7,2.9c-0.2,0.8-0.7,2.6,1.2,3.1c1,0.2,1.3,1.3,1.3,2.3c-0.1,1.1,0.2,1.9,1.4,2.2
			c0.9,0.2,1.4,1.3,2.4,1.3c0.1,0,0.1,0,0.2,0.1c0.1,0.1,0.2,0.2,0.1,0.3c-0.6,1.6,1.5,2.5,0.9,4c-0.2,0.6,0,1.4-0.7,1.9
			c1.2,0.6,2.7,0.8,1.8,2.6c-0.2,0.5,0.2,0.6,0.4,0.8c1.6,1.3,2,3.6,0.8,5.2c-0.9,1.1-0.9,2.2-0.3,3.3c0.6,1.2,0.6,2.5,1.5,3.6
			c0.4,0.5,0.3,1.3,0,2c-0.7,1.5-1.1,3,0,4.6c0.1,0.2,0.3,0.5,0.2,0.7c-0.7,1.3,0.1,2.7-0.1,3.8c-0.4,2.3,0.7,4.4,0,6.6
			c-0.4,1.2-0.2,2.3,0,3.6c0.5,3.1-0.8,6-1.3,9c-0.6,3.3-2.5,5.9-4,8.8c-0.2,0.5-0.6,1-0.2,1.5c0.4,0.5,1,0.3,1.5,0.2
			c1.1-0.3,2.1-0.7,3.2-1.2c1.4-0.6,2.9-1,4.5-1c1.3,0,2.3,0.6,2.7,1.7c0.3,0.9,0.7,1.1,1.5,1.3c1,0.2,1.4,0.9,1.5,1.9
			c0.4,4.6-1.7,8.2-4.7,11.4c-1.5,1.6-3.6,2.9-4.4,4.8c-1.1,2.7-3.3,4.2-4.9,6.3c-0.4,0.6-0.7,0.6-1,0c-0.3-0.6,0-2-1-1.7
			c-0.8,0.3-1.6,1.5-1.8,2.4c-0.3,1.8-0.3,3.6-1.4,5.2c-0.4,0.5,0,1.2,0.3,1.7c0.7,1.1,0.2,1.6-0.8,1.7c-1.2,0.1-1.9,0.7-2.3,1.9
			c-0.1,0.5-0.5,0.7-0.9,1.1c-0.8,0.8-1.7,1.5-1.4,2.8c0.1,0.5-0.2,0.8-0.4,1.1c-1.5,1.8-2.5,3.8-3.7,5.7c-0.9,1.5-2.2,3.1-3.6,4.3
			c-1.2,1-2.5,1.9-2.2,3.7c0.1,0.7-0.3,1.3-0.7,1.8c-1,1.2-1,2.7,0.2,3.8c0.3,0.2,0.5,0.6,0.9,0.5c0.4-0.1,0.4-0.5,0.4-0.9
			c0-1,0.1-1.9,0.1-2.9c0-1.3,0.7-1.5,1.8-1c1.3,0.7,2.2,1.7,3.1,2.8c0.3,0.3,0.5,0.8-0.2,1c-0.3,0.1-1-0.3-1,0.4c0,0.6,0.4,1,1,1.1
			c0.7,0.2,1.5,0.3,1.8,1c0.2,0.4,0.4,1,0.2,1.3c-0.2,0.5-0.7,0.1-1.1,0.1c-0.3,0-0.6-0.1-0.9-0.2c0.3,0.8,1.3,0.8,1.5,1.6
			c-0.8,0.5-1.3-0.5-2-0.3c0.8,2.3-0.8,3.7-2.3,4.6c-1.8,1.1-2.8,2.3-3,4.4c0,0.3-0.4,0.6-0.9,1.2c1.8-0.6,2.8-2,4.7-2.4
			c-1.7,1.5-3.1,2.7-4.5,4c0.1,0.1,0.2,0.3,0.3,0.4c1.9-1.5,4.3-2,6.3-3.5c-0.9,1,0.3,2.9-1.7,3.6c1-0.1,1.8-0.4,2,0.9
			c0,0.2,0.4,1.3,1.4,1.5c0.5,0.1,1.1,1.1,0.3,2c-1.1,1.2-2.2,2.3-3.6,3.6c-0.1,0.4,1.3,0.7,0.8,1.6c-0.5,0.7-1.2,0.4-2,0.3
			c0.8,1.3,2.9,1.5,3.3,0.3c0.3-0.9,1.2-1.5,1.1-2.6c0-0.4,0.4-1.6,1-0.1c0.2,0.5,0.7,0.6,0.6-0.2c-0.1-0.8,0.8-0.3,0.9-0.8
			c-0.2-0.7-1.2-0.4-1.5-1.2c1-1,2.1-1.9,2-3.6c0-0.7,0.7-0.8,1.1-0.4c0.4,0.4,0.8,0.6,1.2,0.2c0.5-0.6-0.2-1-0.6-1.2
			c-1.3-0.7-1-1.8-0.9-2.9c0.3,0,0.5,0,0.5,0.1c0.1,1.9,1.4,2,2.9,1.8c0.9-0.2,1.9-0.2,2.8-0.3c-0.3,0.8-1.2,0.9-1.8,1.5
			c1,0.8,2,0,3.2,0.3c-0.6,0.8-1.3,1-2,0.9c-2.1-0.2-1.6,1.8-2.2,2.7c-0.1,0.1,0.2,1.3,1.2,1c1.3-0.4,2.5-0.6,1.3,1.7
			c1.8-0.5,3.3-0.4,4.8,0.1c0.5,0.2,1.1,0.1,1.4-0.5l-0.1,0c3.2,0.9,6.4,1.7,10,0.5c-1.8-0.6-3.4-1.2-5.4-1c1.3-0.5,1.3-0.5,3-0.4
			c0.3,0,0.7,0,0.8-0.1c0.3-0.3,0-0.6-0.2-0.9c0-0.1-0.1-0.2-0.2-0.3c-0.9-0.3,0.4-1.7-0.9-1.8c-0.9-0.1-1.2,1-2,1
			c-0.4-0.6,0.8-0.7,0.3-1.2c-0.4-0.3-0.9-0.3-1.4-0.2c-1.1,0.4-2.1,0.8-3.2,1.2c-0.6,0.2-1.5,0.5-1.7-0.3c-0.2-0.8-1.7-1.4-0.6-2.4
			c0.6-0.5,0.1-0.8-0.2-1.1c-1-0.9-2.1-1.5-3.5-1.6c-2.3-0.2-3.9-1.6-5.4-3c0.1-0.4,0.3-0.5,0.5-0.5c3,0.6,6,1.3,8.4,3.5
			c1.2,1,2.6,1.2,4,1.2c1.5,0,3-0.2,4.5,0.7c1,0.6,2.8-0.1,4.2-0.2c0.4,0,0.8-0.1,1.2-0.2c0.3,0.5,0,0.7-0.1,1
			c-0.1,0.3-0.4,0.6,0,0.8c0.2,0.1,0.5,0.1,0.7,0c1.3-1.1,1.8-0.4,2.1,0.9c0.2,0.9,0.5,1.7,1.2,0.2c0.1-0.1,0.2-0.3,0.4-0.3
			c1,0,1.6,1.3,3,0.3c0.6-0.4,1.8,1,2.4,2c0.4,0.7,1,1.1,2,1.7c-0.6-1.1-0.4-2-0.6-2.8c-0.1-1-1.6-1.1-2.6-2
			c1.7,0.3,2.7,1.4,4.1,1.2c-1.6-1.1-3.3-2.1-5.7-1.4c0.4-0.9,1-1.2,1.7-1.1c1.8,0.3,3.6,0.1,5.4,0.2c1.9,0.1,3.8,0.4,5.5,1.4
			c1.9,1.2,4.1,1.5,6.3,1.5c1.8,0,3.6,0.3,5.3,0.8c1.1,0.3,2.1,0.7,3.1,1.4c0.5,0.3,1,1,0.8,1.3c-0.4,0.6-1.1,1.1-1.8,1.3
			c-0.5,0.2-0.6-0.6-0.8-1c-0.2-0.4-0.5-0.8-0.9-1.1c-0.3-0.3-0.9-0.2-0.8,0.1c0.6,1.3-0.6,1.5-1.1,2.2c-0.1,0.2-0.6,0.2-0.3,0.7
			c0.2,0.3,0.6,0.7,0,1c-0.6,0.3-1.1-0.1-1.4-0.4c-0.6-0.6-1-1.5-2.3-2c1,1-0.2,2,0.8,2.8c0.2,0.1,0.1,0.5-0.2,0.6
			c-0.5,0.2-1,0-1.2-0.5c-0.4-1-1.2-1.6-2.2-2.5c0.4,1.4-2.8,2.6,0.5,3.5c-1.4,1-2.4,0.6-3.5-0.4c-0.3-0.3-1.1-0.8-1.1-0.3
			c0,0.9-1.4,0.3-0.9,1.2c0.2,0.4,0.7,0.5,1.2,0.6c1.5,0.4,3,0.5,4.4,1.2l0,0c0.2,0.7,0.5,1.3,1.2,1.7c-1.6-0.5-2.8-1.7-4.7-1.7
			c1.1,1,2.7,1.1,3.4,2.4c-0.8,0.5-1.6-1-2.2-0.1c-0.7,1.1,0.6,1.5,1.4,2.2c-1.6,0-2.4-1.2-3.8-1.1c0.4,0.8,1.4,0.6,1.9,1.4
			c-0.4,0.6-1.1-0.4-1.5,0.1c0.3,0.5,0.9,0.6,1.2,0.8c-1.7,1-3.2-0.4-5-0.4c1.6,0.6,2.1,2.2,3.3,3.2c1.2,1,2.2,2.3,3.7,3.1
			c-2.5-1.2-4.9-2.5-7.7-2.5c1.7,0.7,3.3,1.5,5.1,2.3c-1.2,1.2-2.5-0.4-3.8,0.4c2.2,1,4.2,2,6.5,3.5c-2.8-0.3-5-3.1-7.6-0.8
			c0.2,0.8,1.4,0.3,1.6,1.2l0,0c-0.5-0.1-1-0.4-1.6,0c0.7,1,2.2,0.5,2.9,1.5c-1.5,0.2-2.7-1.1-4.4-0.6c0.8,0.9,1.9,0.7,2.8,1.3
			c-1.1,0.4-2.2-0.4-3.5,0.2c2,0.7,4,0.4,5.8,1.5c-1.7,0.3-3.1-0.7-4.7-0.2c0.4,0.6,1,0.6,1.5,0.6c0.8,0,1.4,0.3,1.7,1.2
			c0.4,1.1,1.4,1.1,2.3,1.4c0.9,0.3,1.8,0.7,2.7,1.4c-1.9-0.3-3.7-0.7-5.6-1c2.5,1,5.1,1.4,7.5,2.6c-1.6,0-3.1-1-4.9-0.7
			c1.7,1.1,3.7,1,5.2,2.1c-2.4,0.3-4.7-0.4-7-0.3c0.9,0.8,2.2,0.4,3.1,1.1c-0.8,0.4-1.6-0.3-2.4,0.5c4.5,1.9,9.4,2.2,13.7,4.4
			c-4.4-1.3-8.8-2.2-13.4-2.8c2.8,1.3,5.9,1.4,8.8,2.5c-1.4-0.2-2.8-0.3-4.3-0.5c3.5,1.4,7.4,1.7,11.1,3.2c-0.5,0.2-0.8,0.3-1.4,0.4
			c1.8,1,3.8,0.8,5.3,2.1c-4.2-1-8.4-2.3-12.8-2.2c1.5,0.3,2.9,1,4.4,0.9c2.2,0,3.4,1.8,5.3,2.1c1.3,0.2,2.5,0.5,3.7,1.3
			c-0.8,0.4-1.7-0.4-2.5,0.2c0.7,0.7,1.8,0.3,2.8,1.1c-2.5-0.4-4.6-0.9-6.8-0.7c5.3,1.1,10.6,1.9,15.6,4c-2.7-0.2-5.3-1.3-8-0.7
			c2.4,0.7,5,0.8,7.3,1.7c-1.8,0.2-3.6-0.7-5.5,0c8,0.3,14.4,4.4,21.1,7.9c-0.4-1-1.3-1.2-2-1.6c-2.1-1.1-2.8-2.6-2.7-4.9
			c0.1-2.2,0.8-4.2,1.2-6.2c0.1-0.4,0.4-0.9-0.2-1.1c-0.5-0.2-0.9,0.3-1,0.8c-0.4,1.6-1.2,3-1.4,4.8c-2-1.2-0.4-2.6-0.5-3.8
			c-0.1-0.6,1.1-1.2,0.3-1.7c-0.8-0.6-1,0.7-1.9,1c0.4-1.2,0.7-2.4-1.4-1.9c0.5-1.2,0.9-2.2,1.4-3.1c0.2-0.3,0.5-0.6,0.1-0.9
			c-0.4-0.3-0.8,0-1.1,0.3c-1,1.3-1.8,2.7-1.7,4.5c0,0.4,0,0.7,0,1.1c-1.7-1.8,0.1-3.6-0.1-5.4c-0.1-0.5,0.5-1.1-0.1-1.5
			c-0.6-0.4-0.8,0.6-1.2,0.6c-0.5-0.7,0.5-1,0.2-1.5c-0.8-0.3-1.2,0.2-1.7,0.6c-0.3,0.3-0.7,0.3-1,0c-0.3-0.3-0.1-0.7,0.1-1
			c0.7-0.9,1.4-1.7,2.2-2.7c-2.1,0.3-2.9,1.4-4.8,6c-0.4-0.2-0.4-0.5-0.4-0.9c-0.1-1.3,1-2.6,0.1-4c-0.2-0.3,0.3-0.7,0.6-1
			c0.2-0.2,0.5-0.7,0.5-0.7c-2-1.8,1-1.6,1.1-2.7c0-0.3,0.9-0.6,0.5-1.1c-0.4-0.5-0.8,0-1.2,0.3c-0.8,0.6-1.6,1.2-2.4,1.9
			c-0.7,0.7-1.3,1.5-2.1,2.3c-0.1-0.4-0.2-0.5-0.2-0.7c-0.1-0.7,1.2-1.2,0.5-1.6c-0.9-0.6-1,0.8-1.7,1.2c-0.3,0.2-0.5,0.5-0.8,0.8
			c-0.3-1.3,0.5-2,1.2-2.7c0.9-1,1.2-1.9-0.7-2.2c0.8-1.1,2-1.6,2.9-2.5c-1.1-0.7-1.6,0.3-2.3,0.5c-0.4,0.1-0.8,0.6-1.1,0.2
			c-0.4-0.6,0.2-0.8,0.6-1c0.4-0.3,1-0.3,1.2-1.1c-0.9-0.4-1.4,0.2-2.1,0.5c-0.7,0.3-1.1,1.2-2.3,0.8c1.6-2.1,4.2-2.6,6-4.6
			c-2.4,0-3.7,1.7-5.7,2.5c0.4-1.2,1.7-1.4,2.1-2.3c-0.8-0.7-1.3,0.6-2.1,0.1c1-1.2,2.5-1.7,3.7-2.8c-0.6-0.5-1.1-0.3-1.6,0
			c-1,0.7-2,1.3-2.9,2c-0.6,0.5-1.2,0.9-1.6,0.1c-0.3-0.7-1-1.7,0.2-2.3c1.7-0.9,3.2-2,5-2.6C696,564.8,696.7,564.8,696.8,564.1
			L696.8,564.1z M505.6,604.5c0.9,0.4,1.8,0.8,2.8,0.6c-0.5-0.6-0.5-1.5-1.4-1.6c-1.9-0.7-3.9-1.4-5.8-2.1c1.9,1.5,4.6,2.3,5.9,2.1
			C506.8,604.2,506.2,604.3,505.6,604.5c-1.5-1.3-3.3-0.9-5-1C502.3,603.8,504,604.2,505.6,604.5z M484.5,574.9
			c-2.1,0.3-4.2,0.6-6.2,1.5c1.9-0.2,3.8-0.5,5.7-0.9C484.4,575.4,484.5,575.2,484.5,574.9c2.3,0.9,4.3-0.5,6.4-1.1
			c0.7-0.1,1.4-0.2,2.4-0.3c-3.9,2.3-8.2,2.2-11.9,3.9c4.1-0.7,8.1-1.2,11.8-3.2c3-1.6,6-1.6,9.1-0.5c0.6,0.2,1.2,0.3,1.7,0.4
			c0.3,0.1,0.8,0.2,0.8-0.4c0-0.4-0.1-1-0.4-1.3c-0.2-0.2-0.5,0-0.6,0.5c-0.1,0.6-0.6,0.2-1,0.1c-1-0.2-1.9-0.6-2.9-0.7
			c-1.8-0.1-3.2-0.5-3.9-2.4c-0.1-0.4-0.4-0.8-0.4-1.3c-0.1-1.3-0.6-2.5-1.6-3.4c0.1,1.1,0.5,2,0,3.5c-0.5-1.2-0.8-2.1-1.2-2.9
			c-0.1-0.4-0.4-0.4-0.7-0.3c-0.3,0.1-0.2,0.4-0.1,0.6c0.4,0.5,0.7,1.1,0.6,2.2c-0.9-1.2-1.5-2.2-0.9-3.3c0.1-0.3,1-0.3,0.6-0.8
			c-0.3-0.4-0.9-0.6-1.5-0.5c-0.6,0.1-0.4,0.6-0.4,1c0,1.2,0.1,2.2,0.9,3.3c0.6,0.9,1.5,1.7,2.2,3c-0.5-0.3-0.6-0.4-0.8-0.5
			c-1.6-0.8-1.9-3-3.7-3.6c-0.3-0.1-0.5-0.7-0.8-0.4c-0.4,0.4,0,0.7,0.2,1.1c0.7,1,1.4,2.1,2.2,3.3c-3.4-1.3-3.9-4.4-5.2-7.1
			c0.4,1.6-1.2,2.7-0.7,4.5c-2.2-1.7-1.5-4.1-2.4-6.4c-0.6,2-0.5,3.6,0,5.1c-0.8-0.9-0.6-2.2-1.3-3.2c-0.3-0.4,0.2-1.2-0.6-1.3
			c-1-0.1,0.2,1.1-0.8,1.2c-0.1-0.3-0.1-0.7-0.2-1c-0.1-0.4,0.1-1-0.5-0.9c-0.6,0.1-0.2,0.7-0.3,1c-0.1,1.1,0.3,2.2,0.6,3.6
			c-2.4-2.1-1.1-5.1-2.7-7.3c-0.1,1.3-0.2,2.3-0.3,3.5c-0.9-0.2-0.4-1.5-1.2-1.8c-0.5,0.2,0,1-0.6,1.1c-0.1-0.9-1.4,0-1.4-0.9
			c0-1.5-1.2-2.1-2-2.9c-0.3-0.3-0.6-0.6-0.5-1c0.1-0.3,0.2-0.8-0.3-0.8c-0.6-0.1-0.7,0.4-0.7,0.8c-0.2,2.4-0.3,4.9,0.3,7.3
			c0.1,0.5,1.1,0.9,0.2,1.8c-1.1-3-2.1-5.8-2.3-9.1c-0.9,1.5-1.2,0.2-1.6-0.4c-0.8,1-0.5,2.3-1.2,3.2c0.1-1-1.3-1.4-0.8-2.6
			c0.2-0.5,0.6-1.4-0.4-1.6c-0.9-0.2-1.9-0.2-2.2,1.2c-0.3,1.4-1,2.7-1,4.2c-0.3-1.4-0.2-2.7,0-4.1c0.1-0.6,0.2-1.1-0.6-1.4
			c-0.7-0.2-1.3-0.7-1.9,0.1c-0.3,0.4-0.5,1-1.1,0.8c-1.3-0.5-2.6,0.1-3.8,0c-2.8-0.2-5.2,0.6-7.6,2.1c1.1,0.3,2,0.6,3.1,1
			c-1.8,0.4-3.1-0.6-4.6-0.3c3.5,1.4,7.3,1.2,10.9,2.1c-1.6,0.7-3.2,0.2-4.8-0.1c-1.6-0.3-3.1,1.4-4.8,0.5c1.6,0.4,3,1.3,4.8,0.5
			c-0.3,1-1.2,0.4-1.7,0.9c0.5,0.3,1.1,0,1.5,0.5c-1.6,0.8-3.2-0.4-4.6,0.7c2.7,0,5.3,0,8,0c-1,0.3-2,0.3-3.2,1.2c1.5,0,2.6,0,3.7,0
			c0,0.1,0,0.1,0,0.2c-1.4,0.3-2.7,0.5-4.1,0.8c0,0.1,0.1,0.3,0.1,0.4c1.6-0.1,3.1-0.3,4.7-0.4c-0.7,0.5-1.6,0.2-2.2,0.9
			c2.1,1.9,4.4-0.2,7,0.4c-2.4,0.5-4.4,1-6.5,1.5c0,0.1,0.1,0.3,0.1,0.4c2.4-0.4,4.8-0.9,7.5-1.3c-0.6,0.9-1.5,0.7-2.2,1.3
			c2.5-0.1,4.6-1.4,7-0.9c-1.5,0.4-2.9,0.9-4.4,1.3c1.6,2.6,4.1,0.2,6.1,1.2c-0.9,0.3-1.9,0.2-2.6,1.3c2-0.4,3.7-0.8,5.5-1.2
			c-0.3,1.1-1.4,0.6-2.2,1.3c2.6-0.2,4.8-1.3,7.1-0.8c-1.9,0.6-3.9,0.7-5.6,1.9c0.9-0.1,1.7-0.4,2.5-0.6c6.3-1.3,12.7-0.9,19-1.6
			c0.5-0.1,0.1,0.5,0.2,0.7c-7.3,0.9-14.9,0.1-21.9,3.3c2.7-0.7,5.4-1.2,8.1-1.5c4.6-0.5,9.3-0.4,13.8-1.7c1.6,0.4-0.6,0.7,0,1.1
			C488.7,573.4,486.7,574.7,484.5,574.9z M664.8,569.5c1.1,0.8,1.9,0.5,2.7-0.5c0.7-0.9-0.1-2.3,0.8-3.2c-0.2-0.1-0.3-0.4-0.5-0.4
			c-0.6-0.1-1.3-0.7-1.8-0.1c-0.5,0.7-0.1,1.6,0.4,1.9c1.5,1,0.5,1.3-0.3,1.7C665.7,569.2,665.2,569.4,664.8,569.5
			c1-0.8,1.1-1.3-0.4-1.7c-1.1-0.2-1.9,0.1-3,0.3C664,569.7,664.2,569.8,664.8,569.5z M590.5,574.4c-0.9-0.7-2-1-3-1.4
			c-0.3-0.1-0.6-0.2-0.8,0c0.9,1-1,1.2-0.6,2.1c-0.1-1-2-1.4-0.6-2.9c-2,0.6-3.6,1.3-5.2,2c1.9-1.6,4.2-2.6,6-4.4
			c-2,0.2-4.1-0.5-5.9,0.9c0.4-0.9,2-0.6,1.7-1.8c-0.2-0.8-1.1,0.1-1.5,0c0.8-1.7-0.1-3.3,0-4.8c0-0.3-0.6-0.4-0.7-0.1
			c-0.6,2.2-1.8,1.6-3.2,1c-0.6-0.2-1.4,0.2-1.9,0.7c-0.1,0.1-0.1,0.8,0,0.8c1.2,0.5,0.8,1.4,0.8,2.4c0,1,0.1,2,0.4,3
			c0.7,1.9,0.7,1.9-1.4,1.9c-0.6,0-1.2,0-1.8-0.1c-3-0.5-4,0.1-5,3.2c-0.2-0.4-1.5,0-0.7-0.9c0.5-0.6,1-1.3,0.3-1.7
			c-0.7-0.4-0.7,0.7-1,1.1c-0.1,0.1-0.2,0.1-0.3,0.2c-0.4-0.5,0.7-1.4-0.6-1.6c-1.2-0.2-2.2-0.3-2.3,1.3c-0.4-0.3-0.3-1-0.7-0.9
			c-1.2,0.3-0.2,1.7-1.1,2.2c-0.5,0-0.3-1.3-1.2-0.7c-1,0.6-2.1,1-1.1,2.8c-0.8-0.3-1.1-0.6-1.2-1.1c-0.1-0.4-0.3-0.8-0.7-0.6
			c-0.8,0.5-0.3,1.6-0.9,2.2c-0.1,0.1,0.2,0.5,0.4,0.4c1.7-0.5,3.6,0.5,5.2-0.1c2-0.8,4.5-0.6,6.1-2.6c0.4-0.1,0.8-0.3,1.2-0.3
			c2.3,0.3,4.2-0.4,6-1.8c0.3-0.3,0.7-0.1,1,0.1c0.3,0.2,0.2,0.4,0,0.6c-0.9,1-1,1.9,0.3,2.6c0.1,0.1,0.2,0.4,0.1,0.5
			c-1.5,2.2,1,1.9,1.6,2.8c-0.8,0.4-2.3,0.3-1.9,2.1c-1.4-1-2.7-0.9-4.7-0.1c1.9,0.4,3.3,0.8,4.7,0.1c0.4,0,0.5,0.3,0.7,0.5
			c1.1,0.8,1,1.3-0.1,2c-0.8,0.5-1.8,0.1-2.4,0.9c0.6,0.9,1.5-0.2,2.2,0.3c-0.5,0.7-1.6-0.1-1.7,0.7c-0.3,1.7-1.6,1.4-2.8,1.6
			c-0.8,0.1-1.6,0.2-2.4,0.2c1.2,0.5,2.6,0.2,3.7,1.3c-1.1,0.1-2.1-0.1-3.3,0.5c0.7,0.1,1.1,0.1,1.4,0.2c1.9,0.7,3.1,0.4,4.6-0.8
			c0.2-0.2,0.4-0.2,0.6,0c0.7,0.5,1.5-0.1,2.2,0.3c-0.6,0.4-1.5,0.2-1.9,0.9c-0.3,0.6-0.1,1.4-0.7,1.9c-0.8-1.4-1.8-1.5-5.4-0.3
			c0.6,0.4,1.4-0.2,2.1,0.5c-1.7,0.6-3.6,0.3-5.2,0.9c2.1,0.4,4.2-0.3,6.3,0.1c-2.5,0.6-5.1,1.2-8,1.9c1.6,0.5,2.5-0.2,3.9-0.2
			c-1.6,1.1-3.5,0.6-4.8,2.2c2.4-0.7,4.6-1.3,7-2c-0.4,1.1-1.7,0.9-1.9,2.1c0.7-0.1,1.3-0.4,1.9-0.7c0.5-0.3,1-0.7,1.6,0
			c-0.8,0.3-1.2,1.1-1.7,1.7c-0.2,0.3-0.6,0.8-0.2,1.1c0.4,0.3,0.7-0.1,1-0.4c0.6-0.7,1.1-1.4,0.9-2.4c1.8-0.3,1.7-2.4,3.1-3.1
			c0.6,1,0.8,2.3,2.3,2.3c-0.3-1.8,1.9,0.4,1.8-1.1c0.3,0.1,0.7,0.2,0.7-0.4c0-0.9,0.5-1.9-0.5-2.6c0.9,0.2,1.1,1.5,2.4,1
			c-0.9-0.9-1.9-1.7-1.7-3.1c1.1,0.4,1.7,1.3,2.4,2c1.3,1.3,1.2,1.3,2.5,1.2c0.2-0.6-1-0.6-0.6-1.3c0.8-0.2,1.2,1.2,2.2,0.7
			c-0.7-1.1-2.2-1.8-2-3.4c1.7,0.5,2.7,2.2,4.9,2.6c-1.5-1.3-2.7-2.2-3.9-3.2c-0.3-0.2-0.6-0.5-0.4-0.9c0.2-0.4,0.7-0.3,1-0.1
			c0.6,0.3,1.2,0.8,1.8,1.1c1.2,0.7,2.3,1.5,3.8,1.7c-1.7-1-3.4-2-4.8-3.3c1.9-0.8,3.8-1.8,5.8,0.2c0-0.2,0-0.4,0.1-0.6
			c-2.5-1.7-5-3.4-7.7-5.3c1-0.4,1.4,0.1,1.9,0.3c1,0.4,1.2-0.6,1.7-0.9c0.6-0.4-0.3-0.6-0.6-0.9c-0.9-0.9-1.9-1.9-3.1-3.1
			c2.3,0.1,2.7,2.6,4.9,2.5c-2.1-1.8-4.1-3.3-5.6-5.4c2.2,1.3,3.9,3.3,6.3,4.4c0.1-0.6-0.3-0.7-0.5-0.8c-1.6-0.5-1.5-2-2.1-3.2
			c-0.2-0.3,0.2-0.3,0.4-0.3C591,575.2,590.7,574.8,590.5,574.4c1.1,0.8,2.4,1.1,3.7,1.5C592.9,575.5,592.2,573.8,590.5,574.4z
			 M551,570.5c-0.3-1-1.2-0.7-2-0.7c0-0.3,0-0.4,0.1-0.5c0.3-0.5,0.9-0.8,0.5-1.5c-0.2-0.4-0.6-0.4-0.9-0.3
			c-0.7,0.2-0.9,0.8-0.9,1.4c-0.1,2-1,1.1-1.7,0.5c-0.5-0.5-1.1-0.7-1.8-0.4c-0.9,0.4,0,0.7,0.1,1c0.1,0.3-0.2,0.4-0.3,0.5
			c-1.1,1.1-0.1,1.6,0.6,2.3c0.9,0.8,1.1-0.2,1.6-0.6c0.3-0.2,0.4-0.8,1.1-0.4c-0.1,0.2-0.3,0.4-0.4,0.7c-0.3,0.5-1.3,0.9-0.6,1.6
			c0.7,0.7,1.6,0.5,2.2-0.2C549.4,572.8,550.4,571.8,551,570.5c1.1-0.8,2.3-1.6,1.9-3.4c-0.1-0.3,1-0.6,0.3-1
			c-0.6-0.4-1.3,0.2-1.4,0.7C551.7,568.1,550.6,569.2,551,570.5z M487.3,473.5c0.6-0.7,0.4-1.8,1.3-2.2c0.4-0.2,1.2-0.2,1-1
			c-0.1-0.3-0.4-0.6-0.7-0.7c-0.7-0.2-1.1,0.3-1.3,0.9c-0.6,1.3-1,0.4-1.5-0.4c-0.5,1.6,0.2,2.6,1.1,3.5c-0.6-0.1-1.1,0-1.3,0.7
			c-0.1,0.4,0,0.8,0.4,0.9c1.5,0.2,1.2,1.4,1.3,2.3c0.1,1.3,0,2.6,0.3,3.9c0.1,0.6,0.1,1.2,0.8,1.4c0.8,0.2,1.4,0,1.9-0.7
			c0.3-0.5,0.5-0.9,1.2-0.7c0.5,0.1,0.7-0.3,0.4-0.6c-0.5-0.7,0.7-1.5-0.1-1.9c-0.8-0.4-1.1,0.7-1.8,0.8c-0.1,0-0.2-0.1-0.6-0.2
			c1.5-1.6,2.2-3.2,0.1-4.8c0,0,0-0.1,0-0.2C489.6,472.7,488.6,472.7,487.3,473.5z M658.6,552.5c-1.8-1.1-3.7-2-5.8-2.5
			c0.6,0.5,1.2,1,1.9,1.2C656.1,551.6,657.1,552.8,658.6,552.5c0,0.5,0.5,0.8,0.9,1c2.4,1.1,4.8,2.4,7,3.9c0.5,0.3,1,0.7,1.6,0.2
			c-0.3-0.6-0.7-1-1.2-1.2c-1.7-0.6-0.9-1.2,0-1.8c1.3-0.8,2.8-1.1,4.1-2.2c-1.3-0.3-2.2,0.7-3.2,0.6c-0.2-0.6,0.7-0.5,0.5-1.2
			c-1.3,0.5-2.6-0.6-3.9,0.4c-0.4,0.3-0.5-0.3-0.6-0.6c-0.3-1.2-1.4-0.7-2.1-1c-0.7-0.3-0.7,0.5-1.1,0.7
			C660,551.5,660.2,553.4,658.6,552.5z M575.1,516.5c-2.5-1.5-5.2-2.5-8.1-2.2c-4.7,0.5-9.3,0.3-13.9-0.3c-0.3,0-0.8-0.1-1,0.1
			c-1.2,1.1-2.5,0.8-3.9,0.8c-1.3-0.1-1.8,0.9-2.2,2c-0.1,0.3,0,0.7,0.4,0.9c0.4,0.1,0.4-0.3,0.5-0.6c0.4-1,1-0.6,1.4,0
			c0.3,0.4,0.3,0.9,0.5,1.3c0.8,1.9,2.6,2.8,4.6,2.9c1.7,0.1,3.4-0.7,5.2,0.3c0.9,0.5,3.2,0.4,3.3,0c0.3-1.6,1.6-0.9,2-0.9
			c2.9,0.6,5.7,0.1,8.7,0c-0.4-0.5-0.8-0.8-1.2-1.3c2.5,0.7,2.7,0.7,2.8,0.2c-0.2-0.6-1.1-0.1-1.1-0.9c2.4-0.1,2.8-0.6,2.1-2.3
			c0.6,0.1,1.3,0.3,1.9,0.4c0.5,0.1,1.2,0.6,1.5-0.3c0.2-0.7,0.2-1.6-0.9-1.8c-1.2-0.3-2.5-0.2-3.9-0.2
			C574.2,515.3,574.7,515.9,575.1,516.5z M526.5,554.5c1.5,0.4,2.9-0.2,4.5,0c-0.3-0.3-0.4-0.5-0.6-0.7c-1.6-2.1-1.6-2.1,0.6-3.4
			c0.3-0.2,0.4-0.4,0.4-0.7c0-0.4-0.3-0.7-0.6-0.7c-1.3-0.2-2.1-0.9-3.1-1.7c-2.2-2-5.4-1.5-8-2.9c-1.1-0.6-3.2-0.5-4.9-0.5
			c0.9,0.4,1.8,0.7,2.7,0.9c0.4,0.1,1,0,0.9,0.6c-0.1,0.5-0.6,0.5-1,0.5c-1.2,0-2.3-0.2-3.5,0.3c2,0.2,4-0.4,6.2,0.2
			c-2.3,0.1-4.3,0.4-6.4,0.8c2.3,1.8,4.8,0.4,7.3,0.5c-1.4,1.2-3.3,1-4.7,1.8c0.3,0.1,0.6,0.1,0.9,0.2c0.3,0.1,1.1-0.4,0.9,0.5
			c-0.1,0.5,0,1.2-0.9,1c-0.7-0.1-1.4-0.1-2.1,0c-0.9,0.1-1.7,0.1-1.8-1.1c-0.1-0.5-0.6-0.6-0.9-0.9c-1.5-1.9-3.6-3.5-2.7-6.4
			c0-0.1-0.1-0.2-0.2-0.3c-1.3,0.7-1,2-0.7,3c0.3,1-0.1,1.3-0.7,1.7c-0.4,0.3-1,0.1-1.4,0.6c0.6,0.3,1.3-0.2,1.8,0.2
			c-0.3,1.1-1.6,0.5-2.2,1.4c1,0.4,1.9-0.2,3.1-0.6c-0.9,1.7-2.5,1.3-3.6,1.8c1.7,0.4,3.3-0.1,5-1.5c-0.7,1.7-1.6,2.5-2.4,3.5
			c1.3,0.3,2-1,3.2-0.9c-0.8,1.6-2.5,1.7-3.7,2.6c0.7,0.2,1.3,0.4,2,0.6c-0.7,0.9-1.8,0.5-3.1,1.2c1.8-0.2,1.6,1.6,3,1.7
			c-0.6,0.3-1.2,0.2-1.5,0.9c0.8,0.3,1.2,1.1,1.8,1.8c-1.1,0.3-1.9,1.1-3,0.7c-0.4-0.2-0.7,0.1-0.9,0.4c-0.2,0.5,0.3,0.6,0.6,0.7
			c0.8,0.3,1.6,0.5,2.4,0.7c0.1-0.5-0.7-0.4-0.4-0.8c0.1-0.2,0.5-0.2,0.8-0.2c1.1,0.1,2,0.9,3.2,0.8c-0.4-0.6-1.3-0.3-1.3-1.2
			c1.4,0.1,2.7,0,3.9,1.3c0.9,1,2.3,1.7,3.8,1.6c-0.1-0.6-0.9-1-0.2-1.6c0.7-0.6,0.8,0.3,1.1,0.6c0.4,0.4,1,0.4,1.4-0.1
			c0.4-0.5,0-0.9-0.4-1.2c-0.9-0.7-1.6-1.4-1.6-2.7c0-0.9-0.7-1.4-1.7-1.4c-0.2,0-0.5,0.2-0.6-0.1c-0.2-1.7-0.9-3.2-2.1-4.3
			c0.4-0.6,1,0.2,1.4-0.4c-0.7-0.4-1.5-1-1.3-1.7c0.3-0.8,1.2-0.2,1.9-0.3c0.6,0,1.2-0.1,1.8-0.1c1.1,0,1.8-1.1,3-0.9
			c-1.2,1.6-3,1.6-4.9,2.2c2.1,0.3,3.6-0.7,5.5-0.9c-0.2,1.1-1.2,1.5-1.9,2.3c1.2,0,2.1,0.2,3-0.5c0.7-0.6,1.1-0.1,1.2,0.6
			c0.1,0.5-0.1,1.1-0.1,1.6c0,0.3-0.2,0.6,0.2,0.7c0.3,0.1,0.5-0.1,0.7-0.5c0.4-0.8,0.8-1.6,1.1-2.4c0.1-0.3,0.2-0.8,0.7-0.6
			c0.3,0.1,0.6,0.5,0.7,0.8c0.2,0.6-0.4,0.4-0.7,0.5C527,554.4,526.8,554.5,526.5,554.5c-0.2,3.3,0.6,3.9,4.8,3.6
			C530.3,556.2,528.3,555.5,526.5,554.5z M604.9,551.7c0.1,0.5,0.9,0.7,0.4,1.4c-1.7-0.7-3.3-0.5-5.1,0.3c1,0.6,1.8,0.4,2.6,0.5
			l-0.1-0.1c0.6,0.5,0.2,0.7-0.3,1c-0.7,0.3-1.5-0.1-2.2,0.5c0.9,0.3,1.7,0.6,2.5,0.8c0,0.1,0,0.2,0,0.3c-1.1,0-2.2,0-3.5,0
			c3.2,1.7,6.5,0.9,10.1,1.8c-1.6,0.4-3,0-4.4,1c1.3,0,2.3,0,3.5,0c-2.6,1.2-5,2.1-7.5,2.7c2.6-0.7,5.1,0.1,7.6,0.2
			c1.5,0.1,3.2,0,4.7-1.1c-1.3-0.5-2.4,0.6-3.7,0.1c1-0.8,1.9-0.9,2.9-0.9c1.4,0,2.7-0.1,3.9-1.2c1.2-1.2,2.1-2.9,4-3.3
			c0.2,0,0.4-0.5,0.4-0.7c-0.1-1.3,0.5-1,1.3-0.7c1.1,0.4,1.5,1.1,1.2,2.3c0.8-1.3,0.2-2.2-0.8-3c-1.3-1-1.4-1.4-0.7-2.5
			c0.1-0.2,0.1-0.3-0.1-0.4c-0.9-0.2-0.5-1.2-1.1-1.8c-1.4,1.2,0.1,4.2-2.7,4.5c-1-2,1.1-3.3,1.4-5.3c-1.2,0.5-1.2,2.3-2.4,2
			c-0.9-0.2,0-1.3-0.3-2.2c-0.6,2.2-2.5,3-4.3,3.7c0.4-0.9,0.1-2.2,1.2-3.1c0.3,0.6-0.5,1,0.1,1.5c1.1-0.7,1-2,1.8-3
			c-0.8,0-1.1,1.1-1.7,0.4c-0.5-0.5-0.2-1.1-0.1-1.7c0.1-0.3,0.2-0.7,0.4-1c0.6-0.8,0.6-1.8,0.6-2.7c0-0.4,0.3-1.1-0.3-1.2
			c-0.8-0.1-0.5,0.7-0.6,1c-0.1,0.5-0.2,1.2-0.9,1c-0.8-0.2-1.1,0.5-1.7,0.7c-0.1-0.3-0.3-0.6-0.4-0.9c-0.2-0.7-0.6-1.2-1.3-1.2
			c-0.8,0-0.6,0.7-0.7,1.2c-0.1,0.9-0.3,0.3-0.5,0c-0.2-0.2-0.6-0.3-0.6-0.1c0.1,2.3-1.6,0.9-2.4,1.2c-0.1,0.3,0.1,0.3,0.2,0.4
			c0.6,0.4,0.6,1,0.2,1.3c-0.8,0.5-0.5-0.5-0.8-0.7c-0.6-0.7-1.1-0.7-2-0.3c-1.4,0.7-2.1,2.4-3.8,2.8c0.6,1,1.6,1,2.6,1.2
			c0.9,0.2,2,0,2.7,1c-2.4,0.3-4.6-1.5-7,0c2.9-0.4,5.3,0.6,7.6,2.2c-1.7-0.5-3.4-1.1-5.1-0.2C601.5,551.5,603.2,552.7,604.9,551.7z
			 M634.9,549.6c1.6,0.8,1.9-1.3,3.1-1.4c-1.2,0.1-2.4,0.1-3.2,1.2c0.1-0.8,0.7-1.4,1.2-2.5c-1.6,0.8-2.5-0.7-4-0.4
			c1.2,2.1,0.3,4.1-0.1,6c-0.2,0.7,0,2.4-1.2,2.5c-1.9,0.1-2.8,2-4.6,2.2c-1.7,0.3-2.5,1.9-3.5,3.3c-0.2,0.3-0.3,0.8-0.9,0.7
			c-0.6-0.1-0.3-0.6-0.4-1c-0.1-0.7-0.2-1.5-1.1-1.9c-0.3,0.6-0.4,1.2-0.3,1.8c0.2,1.4-0.7,1.8-1.9,1.7c-1.2-0.1-2.4-0.8-2.6,1.3
			c-0.2,1.6-0.9,3.2-0.4,4.9c0.2,0.7,2.1,2.2-0.8,1.7c-0.6-0.1-0.1,0.8-0.5,0.9c-0.9-1.2-0.7-3.2-3-3.6c0.4,0.7,1,1,1.2,1.6
			c0.1,0.3,0.3,0.6-0.1,0.7c-1.3,0-0.8,1.1-1,1.7c-0.2,0.5,0.3,1.2-0.7,1.5c-0.3-1.8-0.3-3.7-2.3-4.6c1.5,2,1.4,4.2,1,6.4
			c-0.3-1.1-0.4-1.2-3-2.3c0.7,2.8,0.4,4.4-0.9,5.4c-0.3-1.1,0.5-2.3-0.4-3.5c-1,1.2-0.3,2.7-1,3.9c-0.2-0.7-0.9-1.2-0.6-2.1
			c0.1-0.3,0-0.6-0.3-0.7c-0.2,0-0.5,0.1-0.6,0.3c-0.4,0.6,0.7,2.3,1.6,2.4c-1.5,0.7-2.4,0.6-2.7-1.3c-0.2-1.1-0.8-2-1.7-2.6
			c0.8,1.3,0.9,2.8,1.4,4.2c0.9,2.3-0.7,4-2.4,5.4c-0.3,0.2-0.7,0.5-0.4,0.8c0.4,0.5,0.7,0.1,1-0.2c0.9-0.8,1.6-1.8,2.8-2.4
			c3.3-1.5,6.8-2.5,10.4-3.1c1.2-0.2,2.4-0.4,3.6-0.5c0-0.1,0-0.2-0.1-0.3c-1,0-2,0-3.1,0c1-1.1,2.6-0.1,3.6-1.2
			c-1.9-0.5-3.6,0.8-5.3,0.4c4.7-1.6,9.5-2.9,14.5-3.2c-4.2-0.8-8.1,0.9-12.1,1.5c5.2-2.4,10.7-3.1,16.4-3.4c-3.4-0.6-6.7,0-10,0.4
			c3.9-1.2,7.9-2,12-1.7c-2.7-1.2-5.5,0.1-8.4-0.2c1.2-0.8,2.5-0.4,3.5-1.2c-2,0-3.9,0.3-5.8,0.8c2.2-0.9,4.4-1.5,6.8-1.8
			c2.4-0.3,4.7-0.5,7.1-0.8c-0.9-0.2-1.7-0.2-2.6-0.2c-0.3,0-0.8,0.2-0.6-0.2c0.4-1.4-0.7-0.4-1-0.7c-0.8,1.4-1.7-0.1-2.5,0.1
			c1.2-0.7,2.6-0.4,3.8-0.7c0.3-0.1,0.7-0.2,0.7-0.4c0.4-1.9,0.5-2.1,1.5-2.7c-0.4-0.3-0.8-0.6-1.4-1c0.8,0.1,1.4,0.1,2,0.2
			c0.1-2.2,2.1-1.4,3.1-2c0.1,0,0.1-0.2,0.1-0.3c-0.5-0.1-0.9-0.1-1.6-0.2c1.5-0.8,3.1-0.6,4.5-1.5c-1.8-0.5-3.4-0.3-5.2,0
			c0.5-0.8,1.2-0.7,1.7-1.1c-0.3-0.2-0.8,0.1-1.1-0.5c1.4-0.6,2.8-1.2,4.2-1.9c-2.2-0.2-4.1,0.6-6.2,1.4c3.1-3.2,6.8-4.8,11.1-5.2
			c-2.4,0.6-4.9,0.2-7.3,0.2C636.7,550.8,635.3,551.1,634.9,549.6z M390.2,596.5c-1.5-1.9-3.5-3-5.8-3.7c0.9,0.8,1.9,1.5,2.9,2.2
			C388.3,595.5,389,596.6,390.2,596.5c-0.2,0.3,0.5,0.7,0,1.1c-2.1-1.1-3.8-3-6.2-3.3c2,1.1,3.9,2.5,5.7,3.9c1.9,1.6,4.4,3,3.9,6.2
			c-0.1,0.5-0.4,1.6,0.5,1.6c0.8,0,0.6-1.1,0.8-1.8c0.1-0.3-0.2-0.7-0.2-1c-0.1-0.5,0-0.9,0.5-1.2c1.2-0.7,1.6-2.2,2.9-3
			c-0.6,0.2-1.3,0.4-1.9,0.6c1.6-1.8,3.9-2.1,5.8-3.3c-2.7,0.1-4.8,1.6-7.2,2.4c1.2-1.6,3.2-2.3,4.7-4.3c-2,0.9-3.5,1.6-5.1,2.3
			c1.5-1.6,3.4-2.7,5.3-3.5c0.4-0.1,1-0.2,0.7-0.8c-0.2-0.5-0.8-0.4-1.2-0.4c-0.5,0.1-0.6,1.1-1.5,0.5c1.3-1.3,3.3-1.2,4.2-2.9
			c0.2-0.4,1.2-0.4,1-1c-0.2-0.7-1.1-0.2-1.7-0.5c1.2-1.1,2.8-1.2,4.4-2.2c-1.1-0.4-2.4-0.5-2.3-1.6c0.1-1.3,1.3-1.3,2.3-1.4
			c0.4-0.1,1-0.2,0.8-0.7c-0.1-0.6-0.7-0.2-1-0.2c-1.7,0.1-3,1.4-4.8,1.2c1.6-0.8,3.1-1.6,5.1-2.5c-1.6-0.4-2.6,0-3.8,0
			c2-1.9,4.6-1.1,6.8-1.8c-0.7-0.2-1.5,0.1-2.2-0.6c1.6-0.4,2.6-1.4,3.6-2.2c2.2-1.7,4.3-3.4,7.3-2.2c0.1,0,0.1,0,0.2,0
			c0.3,0,0.6,0.1,0.8-0.2c0.2-0.4-0.1-0.5-0.3-0.7c-0.8-0.6-0.4-0.8,0.3-1c0.2,0,0.5,0.1,0.5-0.3c0-0.7,0-0.7,0.5-0.8
			c0.8-0.1,1.7,0.2,2.3-0.6c0.8-1.1,1.8-1.6,3.2-0.9c0.4,0.2,1.5,0.5,1.5-0.5c0.2-1.9,1.5-2,2.8-1.9c0.8,0.1,1.5,0.1,2-0.5
			c1-1.1,2.2-1.1,3.5-1c1.4,0,2.7,0.1,4-0.5c-0.8,0-1.7-0.2-2.5,0c-0.6,0.2-1.1-0.4-1.5-0.7c-0.2-0.1,0.7-0.2,0.6-0.4
			c-1.6-1.1-3-0.2-4.4,0.4c-1,0.4-2.1,0-3.1-0.1c-1.3-0.1-2.5-0.2-3.3,1.1l0,0c-2,0-3.9,0.6-5.8,1.1c-3.1,0.8-6.2,1.7-9.2,2.8
			c-0.7,0.3-1.5,0-1.9-0.8c-0.2-0.4-0.2-1-1.1-0.8c0.2,0.4,0.3,0.9,0.6,1.2c0.3,0.4,0.2,0.8-0.2,0.8c-1.2,0.1-2,1-3.3,1
			c-1.2,0-2.9,0.2-3,2.2c-1.6-2.5-1.7-0.7-1.8,1.3c-0.5-0.9-0.7-1.3-1-1.7c-0.6,0.5-0.1,2-1.5,1.2c-0.4-0.2-0.4,0.2-0.2,0.5
			c0.7,1.1-0.8,0.8-1,1.5c-0.2,0.6-0.7-0.3-1-0.5c-0.4-0.2-0.6-0.8-1.2-0.2c0.5,0.8,1,1.5,1.5,2.4c-0.7,0.3-1-1.1-1.5-0.4
			c-0.6,0.8,1,1.1,0.8,2c-1.1-0.1-1.5-1.6-3.1-1.3c2.6,1.7-1.9,1.5-0.4,2.8c-0.5,0.4-1-0.4-1.4,0c-0.2,1,1.2,0.9,1.2,1.7
			c-0.8,0.1-1.2-1.1-2.2-0.7c0.6,1,1.8,1.4,2.3,2.6c-1.4-1.3-2.8-0.5-4.3-0.4c0.1,0.5,1.2,0.7,0.7,1.4c-0.6,0.8-1-0.1-1.5-0.2
			c-0.9-0.2-1.6-1.2-2.8-0.9c1.4,1.5,4.2,1.6,4.1,4.4c-0.4,0.2-0.9-0.6-1.4,0.1c2,1.4,4,2.7,5.3,4.9c-2.4-1.4-4.2-3.9-7.4-4.4
			c0.4,0.8,1.1,0.9,1.5,1.2c2.5,1.6,4.8,3.5,6.7,5.8c0.2,0.2,0.6,0.4,0.1,0.6C390.7,596.7,390.5,596.6,390.2,596.5z M534.7,478.2
			c0.3-0.6,0.8-0.6,1.3-0.5c0.8,0,1.5-0.2,1.8-1.3c-0.9,0.6-1.7,0.3-2.5,0.1c-0.4-0.1-1.1,0-1.1,0.6
			C534.2,477.5,533.8,478.3,534.7,478.2c-0.3,0.6-0.7,0.8-1.2,0.2c-0.5-0.6-1.1-0.9-1.6-0.2c-0.6,0.9,0.7,0.9,0.9,1.5
			c-0.8,0-2,0.1-2.2-0.1c-1.5-1.5-2.3,1.2-3.5,0.5c-0.1,0.2-0.2,0.4-0.3,0.6c-0.1,0.4,0.3,0.5,0.6,0.4c0.7-0.2,1.2,0.3,1.8,0.6
			c-1,0.6-2,0.3-2.9-0.3c-0.9-0.7-1.7-0.5-2.6,0c-0.8,0.5-1.9,1.3-2.6,0.9c-1.4-0.9-2.7-0.2-4.2-0.3c2.1-0.6,3.8-1.8,5.5-3
			c0.1-0.1,0.3-0.2,0.5-0.2c2.9,0,5.3-1.6,7.9-2.4c2.6-0.9,4.4-3,6.9-3.8c0.3-0.1,0.5-0.4,0.6-0.6c0.4-1.1,1.3-1.7,2.3-2
			c1.2-0.4,1.2-1.4,1.2-2.3c0-0.7-0.7-0.7-1.2-0.8c-0.9-0.1-1.8-0.2-2.1,1c-0.1,0.4-0.1,0.7-0.5,0.9c-3.9,1.7-7.6,3.9-11.8,4.4
			c-3.3,0.3-6.7-0.1-10.1-0.1c-2.7,0-5.4-0.5-8,0.3c-0.5,0.1-0.8-0.2-1.2-0.3c-1.3-0.3-2.7-0.2-4-0.3c0,0-0.1,0.1-0.1,0.1
			c-0.4,1.7-1.8,2.4-3.1,3.2c-2.9,2-2.9,2.1-0.7,4.9c0.4,0.5,1.4,0.8,0.8,1.7c-0.7,1.2,0,1.9,0.9,2.5c1.1,0.8,2.4,0.7,3.6,1.1
			c1.8,0.5,4.3,0.3,4.3,3.3c0,0.5,0.6,0.8,1,1c1.2,0.7,2.3,1.4,2.4,3c0,0.5,0.5,0.6,0.9,0.7c0.5,0,0.9,0.1,1.3,0.6
			c0.3,0.4,0.4,1.2,1.1,0.8c0.7-0.3-0.2-0.9,0.1-1.4c1,0.5,2,1,2.8,2.3c-1.4-0.6-2.5-0.8-3.5,0.3c1.3,0.5,2.4,1,3.7,1.5
			c-1.6,0.6-1.3,1-0.1,1.8c1.5,1,3.1,0.9,4.7,1.2c0.2,0,0.3,0.1,0.4,0.2c0.2,0.6-0.8,0.9-0.2,1.6c1.1-0.3,2.1,0,3,0.7
			c0.5,0.4,0.8,0.4,1.1-0.2c0.4-1,1.8-1.4,2.2-0.5c0.6,1.3,1.2,0.9,2,0.4c0.4-0.2,0.8-0.3,1.2,0c0.6,0.4,0.7-0.2,1.1-0.4
			c1.4-0.9,1.3-4,4.1-2.6c0.5,0.3,0.9-0.4,1.1-0.7c1.3-1.8,2.6-0.8,3.8,0c0.2,0.1,0.4,0.2,0.7,0c0.2-0.4-0.8-0.6-0.3-1
			c2.1-1.4-0.2-1.3-0.6-1.8c-1.3-1.3-3.4-1.7-4-3.7c3.8,0.8,7-1.7,10.6-1.7c0.2,0,0.4-0.1,0.5-0.2c0.8-1.1,1.5-0.4,1.9,0.3
			c0.7,1.2,1.9,1.2,3,1.2c2.5,0,4.7,0.9,7,1.6c1.8,0.6,3.8,0.4,5.3-1c0.9-0.8,2.1-1.5,3.2-1.2c1.1,0.2,2,0,2.8-0.5
			c0.9-0.5,1.6-0.3,2.5,0.2c2.7,1.6,5.8,2,8.8,2.9c-0.3,0.7-0.9,1.1-1.7,1.4c-1.5,0.6-2.9,1.5-4.5,1.9c-0.4,0.1-0.8,0.3-0.7,0.9
			c0.1,0.5,0.5,0.5,1,0.5c1.9,0.1,3.8,0.2,5.7,0.3c-1.6,1.7-1.6,1.9-0.1,2.6c1.3,0.5,2.2,1.4,3.3,2.1c0.5,0.3,1.1,1,1.5,0.3
			c0.5-0.9-0.6-0.8-1.1-1.1c0.6-0.6,1.2-0.5,1.9-0.4c1.5,0.2,3,0.5,4.4,0.5c2.9,0,5.7,0.2,8.3,1.4c1.1,0.5,2.4,0.3,3.4-0.2
			c0.8-0.4,0.4-1.4,0-2.1c1.1-0.5,2.1,1.3,3,0.3c0.7-0.7,2.1-0.6,2.2-2.1c-1.2,0.2-1.9,1.1-3,1.1c0.1-1.4,1.7-3.4,2.2-2.9
			c1.9,1.7,1.7-0.7,2.5-1.1c0.4-0.2,0.6-0.7,1-0.7c1.4-0.3,2.2-1.7,3.8-1.8c0.6,0,1.4-0.7,1.2-1.7c-0.1-0.8,0.5-1.1,1.1-1.1
			c0.6,0,1,0.3,1.1,1.1c0.2,1.1,0.7,2,1.8,2.6c0.8,0.4,2.3-0.5,2.6,1.4c0.1,0.6,1.6,0.6,2.7,0.4c-1.4-0.1-0.9-1.4-1.5-2.1
			c-1.3-1.4-1.1-1.6,0.6-2.3c1-0.4,1.7-0.1,2.4,0.6c0.4,0.4,1.2,0.9,1.1-0.1c-0.1-1.1,0.3-0.9,0.9-0.9c0.3,0,0.9,0.2,1-0.1
			c0.3-2.5,2.7-3.8,3.2-6.5c0.8-4.3,2.3-8.4,2.7-12.8c0.2-2.9,0.3-3,3.1-2.9c1.9,0.1,3.1-0.2,2.9-2.4c0-0.4,0.3-0.6,0.6-0.8
			c0.2-0.2,0.5-0.4,0.3-0.7c-0.2-0.3-0.5-0.2-0.8,0c-1.6,0.8-3.3,1.4-4.7,2.6c-0.3,0.2-0.5,0.6-0.9,0.4c-0.6-0.4-0.3-1.1-0.4-1.6
			c0-0.3,0.1-1,0.4-0.9c1.3,0.8,2.3-0.3,3.2-0.7c2.3-1,4.8-1.6,6.9-3.1c0.3-0.2,0.9-0.4,0.6-0.9c-0.2-0.5-0.7-0.4-1.1-0.3
			c-3.3,0.5-6.5,1.2-9.5,2.8c-0.5,0.3-0.8,0.6-1-0.2c-1-2.9-1.1-5.9-0.7-8.9c0.3-2.3,0.7-4.5,0.9-6.9c0.1-2-0.8-4.2,0.7-6.1
			c0.1-0.1-0.2-0.5-0.4-0.7c-0.2-0.3-0.5-0.6-0.3-0.9c1.1-1.4-0.2-1.5-1-1.7c-0.5-0.1-1.2-0.5-1-0.7c0.9-1-1.1-3.4,1.7-3.5
			c0.1,0,0.2-0.2,0.2-0.2c-0.7-1.2,0.2-1.8,0.8-2.6c0.1-0.2,0.2-0.5-0.1-0.6c-0.2-0.1-0.5,0-0.6,0.1c-1,0.4-1.9,0.9-2,2.2
			c-0.1,0.6-0.5,0.9-1.2,0.8c-0.6-0.1-0.3-0.7-0.5-1c-0.9-1.8,0.6-3.9-1-5.6c-0.6-0.7-1.5-1.6-0.7-2.8c0.1-0.1-0.3-0.5-0.5-0.7
			c-0.6-0.5-0.8-1.1-1.2-1.7c-1.3-2.2-2.4-4.8-5.3-5.3c-1.1-0.2-2.5,0.7-3-1c0-0.1-0.5,0-0.7,0c-1.5,0.4-3.2,0.7-2.9,2.9
			c0,0.2-0.1,0.3-0.1,0.5c-2-0.4-0.8,0.5-0.5,1.1c0.3,0.5-0.2,0.9-0.3,1.3c-0.2,0.5-1,0.7-0.8,1.4c1.7-0.3,1.9-0.1,1.5,0.6
			c-1,1.5-0.1,1.7,1.2,1.7c-0.7,0.8-1.4,1-2.1,1.1c-0.5,0.1-0.7,0.4-0.6,0.9c0.1,0.3,0.3,0.7,0.6,0.5c1.6-1.1,2.4,0.5,3.6,0.8
			c-0.5,0.5-1.8-0.6-1.5,0.9c0.2,0.8-0.3,1.1-0.9,1.2c-0.7,0.2-1.1,0-1.5-0.7c-0.2-0.4-0.4-1-1-1.1c-0.8,0.7,0.2,1.5,0,2.2
			c-1.4,0.3-1.8-1.4-3.5-0.8c-2.2,0.7-4.8,0.4-7-0.9c-0.9-0.5-1.7-0.7-2.5-0.1c-0.5-0.5,0.6-1.2-0.1-1.2c-0.9-0.1-0.9-0.2-0.5-0.9
			c0.4-0.7-0.6-1.2-0.7-1.2c-2,0.2-1.8-2.7-3.8-2.5c-0.6,0.1-0.2-0.6,0.1-0.9c0.3-0.3,0.5-1,0-0.9c-1,0.1-1.1-0.2-1.8-0.9
			c-1.2-1.3-3.1-1.4-4.9-0.4c0.8,0.7,1.7-0.1,2.4,0.5c-4,1.3-6.4-1.2-8.8-3.9c0.7,1.1,0.1,1.8-0.3,2.5c-0.3,0.6-0.2,0.6-1.8,0.4
			c-1.4-0.2-2.8-0.4-4.1-1.1c-0.8-0.4-2.1-0.3-2.1,0.5c-0.1,3.8-1.3,1-2.2,0.4c-0.3-0.2-0.7-0.5-1-0.8c-1.4-1.5-3.5-1-4.2,1
			c-0.3,0.7-0.3,1.8-1.5,1.6c-1.2-0.2-1.8,0.7-2.9,1.2c1.8-0.4,2.4,0.9,3.6,2.1c-1.7-0.2-2.8-0.6-4-1.1c-2-0.7-3.7-2.5-6.3-1.7
			c-0.8,0.3-2.3-0.4-3.3-1.5c2.2,0.1,0.3-1.7,1.9-2.1c-1.6-0.3-2.6-0.2-3.4,0.6c-0.7,0.8-0.1,1.4,0.5,2c0.5,0.5,0.1,0.7-0.4,0.9
			c-0.6,0.2-1.4,0.4-1.9,0c-1.3-1.3-2.5-0.4-3.7,0.1c-0.4,0.1-0.7,0.5-1.3,0.1c0.7-0.2-0.1-1.4,1.1-1.2c0.5,0.1,1.1,0.7,1.2-0.3
			c0-0.6,0.4-1.4-0.8-1.9c-2.2-0.8-4.2,0.2-6.3,0.3c-1.7,0.1-3.4,0.2-5.5,0.3c1-1,2-0.5,2.6-1.3c-1.2-0.8-4.7-0.3-6.4,1.1
			c1.2,0.6,2.5,0.2,3.7,0.9c-1.3,0.6-2.4-0.2-3.5,0c-0.9,0.1-2.1-0.2-2,1.5c0,0.4-0.9,1.8-1.5,1c-0.9-1.2-2-1.3-3.3-1.6
			c1.6,2.9-1.8,1-2,2.2c0.9,0.6,1.8,0.5,2.7,0.1c0.4-0.2,0.9-0.2,1.1,0.3c0.2,0.6-0.2,0.7-0.7,0.8c-0.9,0.3-1.7,1.2-2.8,0.8
			c-0.3-0.1-0.7,0-0.6,0.4c0.3,1.3-0.6,0.7-1.1,0.8c-0.6,0.1-1.3,0-1.7,0.6c0.3,1,1.3,0.2,2,0.8c-0.6,0.3-1.1,0.6-1.6,0.9
			c-0.6,0.3-1,0.4-0.5,1.3c0.3,0.5,0.1,1.2,0.1,1.9c0,0.7-0.5,2-1.1,1.8c-2-0.6-1.7,1.1-2.4,1.9c-0.3,0.1-0.7,0.1-1,0.2
			c-0.3,0.1-0.7,0.2-0.8,0.6c-0.1,0.3,0.1,0.5,0.4,0.7c0.4,0.2,0.8,0.1,1.2-0.1c0.6-0.4,0.3-0.9,0.2-1.4c0.6-0.1,1.3-0.1,2-0.2
			c-0.4,1.2-0.9,2.2-2.2,2.5c-0.7,0.2-1.1,0.5-0.9,1.5c0.3,1.3-0.6,2.3-1.8,3c-0.3,0.2-1,0.1-0.9,1c1.4-0.2,2.5-1.5,4.2-1.4
			c-0.8,0.7-1.4,1.3,0.2,1.3c1.4,0,2.4,1.5,3.9,1.4c0.7-0.1,1.1,0.2,1.7,0.5c1.2,0.6,2.3,1.6,3.8,1.4c3.5-0.5,7.1,0.1,10.6,0.5
			c3.4,0.3,7,0.8,10.1,2.7c0.2,0.1,0.7,0.4,0.8,0.3c1.3-1.3,1.7,0.2,2.5,0.7c1,0.7,1.1,2.3,2.6,2.6c0.6,0.1,0.3,0.9,0,1.4
			c-0.3,0.4-1,0.4-1.1,1c1.1,0.2,1.2,0.3,0.9,0.6c-1,1-0.2,1.8,0.1,2.8c1.1-1.3,0.8-1,1.9,0.1c0.8,0.9-0.2,3,1.9,2.7
			c-0.1,1.1-1.4,0.1-1.5,0.5c-0.1,1.5,2.4,0.6,1.4,2.4c0,0,0.4,0.2,0.6,0.4c0.5,0.3,0.7,0.6,0.4,1.3c-0.4,1.2,0.4,2,1.7,1.9
			c0.7-0.1,1.4-0.2,1.9,0.4c-0.2,0.5-1.1,0.3-0.9,0.9c0.2,0.5,0.7,0.5,1.2,0.4c1-0.1,2.1,0.2,3.1-0.4c0.6-0.4,1.3-0.1,1.7,0.6
			c0.4,0.8-0.3,1.2-0.9,1.5c-1,0.5-2.2,1-3.1,0.4c-1.9-1.4-2.5,0.7-3.7,1.1c-0.4,0.1-0.5,0.9-0.2,1.3c0.7,0.7,0.2,0.8-0.3,1
			c-0.7,0.3-1.7,0.7-0.7,1.5c1.1,1,0.5,1.1-0.4,1.4c-0.6,0.2-1.1,0.4-1.7,0.6c-1.2,0.3-2.4,0.7-3.4-0.5c-0.5-0.6-1-0.3-1.1,0.4
			c-0.3,1,0.6,1.7,1.8,1.4c0.6-0.2,1.3-0.7,1.7,0.3c0.4,1-0.5,1.4-1.2,1.7c-0.7,0.3-1.5,0.6-2.2,0.6c-1.1-0.1-1.4,0.7-1.1,1.2
			c0.8,1.5-0.8,1.8-1.3,2.5c-0.6,0.8-0.8-0.6-1.4-0.7c-0.3-0.1-0.8-0.4-1-0.3c-1.5,0.7-3.1,1.2-4.9,1.1c-0.4,0-1,0.4-1.7,0.5
			c-1.2,0-2.4,1.8-1.8,2.7c0.7,1,0.2,1.6-0.2,2.3c-1.8-1.6-2.1-6-0.3-8.4c1.1-1.5,0.9-3,0.2-4.4c-0.2-0.3,0-1.1-0.5-0.9
			C536.4,480,535.7,478.8,534.7,478.2z M596,600c-3.3,1.9-5,5.6-8.6,7c4.7-4.3,5.3-7,3.8-10c0,3.7-1.1,6.6-4.2,8.5
			c1.3-1.5,1.8-3.4,2.4-5.2c0.3-0.8,0.7-2-0.2-2.3c-0.8-0.2-0.3,1.2-0.7,1.7c-0.1,0.1,0,0.2-0.1,0.3c-0.7,1.6-1.1,3.4-2.8,4.8
			c0.4-2.1,0.7-3.9,0.3-5.9c-0.3,0.6-0.6,1.1-0.7,1.6c-0.2,0.8-0.2,1.6-0.4,2.5c-0.5,3.2-1.2,3.8-4.3,4.3c-1.2,0.2-2.6,0-3.7,1
			c9.7-1.8,18.3,2.5,27.5,5.1c-1.6-1.5-3.3-1.7-4.9-2.4c-1.6-0.7-3.4-1-5.1-1.5c-1.6-0.4-3.3-0.4-5-1.4c6.3,0.7,11.9,2.7,17.6,4.4
			c-4.6-2.5-9.5-3.8-14.6-4.9c8.3,0.8,16.4,2.3,24.3,5.2c-7-3.6-14.7-4.8-22.4-6.1c7.4,0,14.4,1.7,21.5,3.7c-2.3-1.4-5-1.8-7.4-2.9
			c3.1,0.2,6,1.3,9,1.7c-2.1-1-4.2-1.6-6.4-2.2c6.1,0.7,11.9,3,17.8,4.7c-2.4-1.5-5.1-2.3-8-3.3c1.5-0.6,2.7-0.8,3.9-0.2
			c0.6,0.3,1,0,1.2-0.6c0.2-0.7-0.4-0.6-0.7-0.7c-0.3-0.1-0.6-0.1-0.6-0.5c0-0.7-0.1-0.7-0.5-0.9c-1.2-0.5-2.6-0.5-4-1.3
			c3-0.3,5.5,1.1,8.1,1.2c-1.4-1-3.2-1.1-4.7-1.9c3.4,0.2,6.5,1.6,9.9,1.7c-3.3-1.1-6.6-2.2-10-3c3.2,0.5,6.4,1,9.6,1.5
			c0-0.1,0-0.3,0.1-0.4c-2.1-0.5-4.1-1-6.2-1.5c0-0.1,0-0.2,0.1-0.2c2.4,0.4,4.9,0.8,7.3,1.3c0-0.2,0.1-0.3,0.1-0.5
			c-1.9-0.4-3.8-0.9-6.1-1.4c3.9-0.2,7.1,1.3,10.5,1.7c-3.2-1.4-6.6-2.2-10.1-2.7c3.2,0,6.3,0.1,9.5,0.6c-2.6-0.9-5.2-1.5-7.9-1.5
			c3.7-1,7.3,0.7,11,0c-1.7-0.3-3.4-0.6-5.7-0.9c2-0.8,3.5,0.3,5.4-0.6c-2.2-0.2-3.9-0.4-5.6-0.5c0-0.1,0-0.2,0-0.3
			c2.2,0,4.4,0,6.9,0c-2-0.9-3.9-0.4-6.1-1.2c1.6,0,2.8,0,3.9,0c1.1,0,2.1,0,3.2,0c1,0,2.1,0.3,3.3-0.6c-5.3-0.6-10.3,0.1-15.3,0
			c5.7-1,11.4-1.2,17.2-1.3c-3.6-1-7.3-0.4-11-0.4c4.4-1.1,8.8-1.1,13.3-1.4c-1.9-0.4-3.8-0.6-5.8-0.5c0-0.2,0-0.4,0-0.5
			c3.1,0,6.2,0,9.3,0c0-0.2,0-0.4,0-0.6c-2.5,0-4.9,0-7.6,0c0.5-0.6,1-0.1,1.2-0.8c-1.5,0-2.9,0-4.3,0c5.2-1.3,10.4-0.7,15.6-1.1
			c-2.8-0.8-5.6-0.6-8.4-1c2.1,0,4.2,0,6.3,0c-3-0.7-6-0.6-9-0.5c2.3-0.7,4.6-0.4,6.9-0.5c-0.8-1.8-2.2-1.6-3.6-1.5
			c-1.6,0.1-3.1,0-4.7,0c3.5-0.8,7-0.7,10.5-0.6c-2.3-0.5-4.7-0.5-7.2-1.1c1.8-0.3,3.5,0.2,5.4-0.6c-1.6-0.2-2.9-0.3-4.4-0.4
			c1.5-0.5,3,0.1,4.4-0.8c-2.5-0.5-4.8,0-7.1,0c2.7-1,5.6-0.9,8.5-0.8c-0.5-0.9-1.4-0.3-2.2-0.9c1.7-0.2,3.2-0.4,4.7-0.6
			c-2.8-0.8-5.5,0.1-8.3-0.3c3.5-0.6,7-1.2,10.5-1.7c-2.2-0.6-4.3,0.1-6.5,0.1c0.4-0.4,1-0.1,1.1-0.8c-2-0.1-3.9,0.7-6.2,0.9
			c2.5-1.7,5.2-1.8,7.6-2.8c-1.3-0.4-2.6,0.2-4.3,0.1c2-0.6,3.5-1.1,5.1-1.7c-0.7-0.8-1.4,0-2-0.3c0.7-0.6,1.9,0,2.5-1.3
			c-2.2,0.5-4.3,0.9-6.7,1.5c1.8-1.6,4-1.3,5.6-2.6c-2.3,1.1-4.8-0.2-7.1,0.8c0.8-0.6,1.7-1,2.5-1.4c0.9-0.5,2-0.8,2.7-1.8
			c-1.6,0-2.7,1.2-4.2,1.3c0.4-1.2,1.4-1.6,2.1-2.3c0.7-0.7,1.6-1.1,1.8-2.2c-1.4,0.1-1.8,1.7-3.1,1.5c1.1-2,2.4-3.7,3.9-5.5
			c-1.7,0.2-2.2,1.5-3,2.3c-0.3,0.3-0.3,1.1-0.9,0.9c-0.6-0.2-0.1-0.8-0.2-1.3c-0.2-0.8,0.4-2.2-0.7-2.3c-1.4-0.1-0.6,1.3-0.9,2.1
			c0,0.1,0,0.1,0,0.2c-0.1,0.3,0.1,0.8-0.4,0.9c-0.4,0.1-0.7-0.2-0.7-0.7c-0.2-1.3-1.2-2.3-1.5-3.6c-0.1-0.6-0.5-1.1-1.3-0.9
			c0.1,1.3,0.8,2.5,1.1,3.8c-0.8-1-1.7-1.6-2.9-2.5c0.8,2.8,3.5,4.4,3.4,7.6c-1.4-2.3-3.3-3.8-5.5-4.8c1.1,1.5,2.7,2.6,3.6,4.2
			c0.2,0.4,1,0.7,0.5,1.1c-0.5,0.5-0.9-0.2-1.3-0.5c-0.9-0.6-1.5-1.5-2.8-1.7c0.3,1,1.2,1.2,1.7,1.9c-0.3,0.6-0.9-0.3-1.2,0.4
			c0.7,0.7,1.4,1.4,2.1,2.8c-2.2-1.6-3-3.9-5.6-4.5c0.5,0.8,0.9,1.3,1.4,1.9c-0.6,0.2-0.8-0.7-1.4-0.2c0.6,0.9,1.2,1.7,2,2.3
			c0.6,0.4,0.6,1.1,0.2,1.6c-0.5,0.6-0.9,0-1.3-0.4c-0.4-0.4-0.6-1-1.2-0.6c-0.2,0.7,0.8,0.9,0.7,1.6c-1.7,0.2-3.1-1-4.8-1.3
			c2.6,1.9,3.1,4.8,4.3,7.7c-0.6-0.3-0.9-0.5-1.1-0.8c-0.6-0.9-1.2-1.7-1.9-2.5c-0.2-0.3-0.6-0.6-0.9-0.3c-0.4,0.4-0.1,0.7,0.2,1
			c0.3,0.4,0.9,0.6,1,1.3c-1,0-1.2-1.2-2.1-1.1c-0.4,0.6,0.7,0.8,0.1,1.4c-1.1-1.3-2.5-1.9-4.2-2.3c0,1,0.7,1.1,1.1,1.6
			c0.4,0.5,0.9,0.8,1.1,1.3c0.2,0.7,1.5,0.9,0.9,1.8c-0.9,1.2-1.3-0.5-2-0.5c-0.1,0-0.2,0.1-0.4,0.2c0.1,0.7,1.1,1.1,0.7,1.8
			c-0.2,0.4-0.8,0.4-1.1,0.3c-2.2-0.9-1.8,0.5-1.5,1.7c0.1,0.7,0,1.1-0.6,1.2c-1,0.3-0.6-0.8-1.1-1.1c-0.8-0.4-0.3,1.5-1.3,0.6
			c-0.3-0.3-0.5-0.8-1.2-0.7c0,0.3,0,0.6,0.1,0.8c0,0.2,0.2,0.3,0.1,0.5c0,0.6,1.2,0.9,0.3,1.7c-0.8,0.7-0.9-0.8-1.7-0.4
			c-0.1,3.1,2.3,6,0.6,9.3c0.1-2.7-0.5-5.3-1.4-7.8c-0.2-0.5-0.3-1.1-0.9-1.2c-0.6-0.1,0.1,1-0.7,0.9c-0.1-0.1-0.1-0.3-0.2-0.5
			c-0.1-0.5-0.3-1-0.9-0.8c-0.4,0.2-0.2,0.7-0.1,1.1c0.3,1,0,2.2,0.6,3.1c0.1,0.1,0,0.4,0,0.7c-1.6-0.1-0.6,1.2-0.8,1.7
			c-0.2,0.5,0.1,1.2-0.5,2.1c-0.2-1.5-0.2-2.6-0.4-3.8c-0.2-1.2-0.2-2.5-1.7-3.4c0.3,1.1,0.6,1.9,0.2,2.9c-0.6-0.5-0.4-1.5-1.7-1.6
			c1.5,2.1,0.1,4,0.1,5.9c0,2.2-1,5.1-1.9,5.5c-0.2-0.6,0.1-1.2,0.3-1.7c1.4-3.4,0.4-6.8,0.5-10.2c0-0.4-0.3-0.7-0.6-0.7
			c-0.6-0.1-0.4,0.5-0.4,0.8c0,1.6-1,2.5-2.3,3c-1,0.3-1.3,0.9-1.4,1.8c-1.1-0.7-2.2-1.3-2-2.8c0-0.1-0.2-0.3-0.3-0.3
			c-0.3-0.1-0.5,0.1-0.5,0.4c-0.1,0.5-0.1,0.9-0.1,1.4c-0.2,2.2,0,4.6-1.6,6.6c-1-1.7,1.3-3.2-0.1-5.1c-0.3,1.2-0.6,2.2-1,3.5
			c-0.5-1.3,0-2.2,0.3-3c0.1-0.4,0.1-0.9-0.4-1c-0.7-0.1-0.5,0.5-0.5,0.8c0,1.5-0.5,2.8-1.1,4.1c-0.4-1.3,0.4-2.7-0.5-4
			c-0.3,2.8-0.8,5.4-2.9,7.9c0.3-1.3,1.1-2.2,0.3-3c-0.4-0.4-0.4,0.5-0.8,0.5c-0.1-0.9,0.5-1.7,0-2.8c-0.7,1.8-1.3,3.6-2.2,5.1
			c-0.9,1.5-2.2,2.7-4.1,3.6C594.4,603.5,595.9,602.2,596,600z M578.3,536.3c0.9-0.2,1.5-0.6,2.3-0.5c1,0.2,1.8,0.2,1.9-1.1
			c0-0.4,0.4-0.3,0.7-0.4c1.6-0.8,3.2-1.7,5.1-1.7c0.5,0,0.7-0.6,0.9-1c0.1-0.2-0.1-0.2-0.3-0.3c-1-0.2-1.3-0.8-1.4-1.8
			c-0.1-0.9-0.7-1.8-1.7-1.6c-2,0.5-4.2-0.3-6.1,1c-0.6,0.4-0.9,0.4-0.7-0.5c0-0.2-0.4-0.5-0.7-0.7c-2.6-2-5.5-2.2-8.6-2.3
			c-1.6,0-3.1,1.1-4.5,0.7c-2.5-0.6-5,0.6-7.4,0c-2-0.4-3.9,0.5-5.8,0.3c-1.1-0.1-2.1,0.1-3.1,0.5c-1.4,0.6-2.7,1.4-4.4,0.9
			c-1-0.3-1.9,1.2-3.3,0.9c-0.2-0.1,0.6,0.9-0.3,0.8c-0.3,0-0.7-0.5-1-0.7c-0.4-0.3-0.9-0.5-1,0c-0.4,1.6-1.7,1.8-3,2.4
			c0.6,0.4,1.3,0,1.6,0.7c-0.2,0.4-0.6,0.4-1,0.6c-0.4,0.2-1,0.3-0.8,1c0.1,0.6,0.6,0.3,1,0.3c0.2,0,0.4,0.1,0.5,0.2
			c1.7,1.3,3.5,1.3,5.4,0.4c0.9-0.4,1.7-0.6,2.1,0.7c0.2,0.8,0.8,0.8,1.3,0.2c0.2-0.3,0.3-0.8,0.8-0.7c-0.1,0.9,0.2,2.1,0.5,2
			c0.8-0.2,1.3-0.6,1.5-1.5c0.2-1.2,2.3-1.7,3.1-0.8c0.4,0.4,0.6,0.9,1.3,0.7c0.8-0.3,0.4-1,0.6-1.5c0.1-0.5-0.1-1.1-0.4-1.5
			c-0.2-0.3-0.3-0.6,0-0.9c0.3-0.2,0.6-0.2,0.8,0c1,0.6,2.6,0.3,3.1,1.9c0.2,0.6,0.9,0.8,1.5,0.4c0.6-0.3,1.1-0.3,1.7-0.3
			c1.8,0,3.7,1.1,5.5-0.2c0.2-0.2,0.8,0,1.2,0.2c1.6,0.6,3.2,0.7,4.9,0.2c0.7-0.2,1.8-0.3,1.9,0.4c0.6,3,1.9,1.3,2.8,0.5
			c0.9-0.7,1.1,0,1.3,0.4C578.4,535.1,578.3,535.7,578.3,536.3z M744,594.6c1.5-3.2,4.8-4.8,6.5-8c-1.9,0.1-2.4,2-4.2,2.5
			c1-1.3,1.7-2.2,2.4-3.1c0.3-0.4,0.8-0.8,0.3-1.2c-0.4-0.3-0.8,0.1-1.2,0.5c-1.3,1.7-2.9,3.3-4,5.2c-0.2,0.3-0.3,0.8-0.8,0.6
			c-0.7-1.4,1.3-2.6,0.5-4.2c-1.5,1.4-1.4,3.3-2.2,4.9c-0.7-0.8-1-1.5-1.2-2.3c-0.2-0.8-0.2-1.8-1.6-1.7c1.4,3.1,2.4,6.2,1.4,9.6
			c-0.9,0.2-1.2-1.3-2.4-0.9c0.6,0.6,1.2,1.1,1.8,1.6c0.3,0.3,0.9,0.4,0.6,0.9c-0.2,0.5-0.8,0.6-1.2,0.6c-0.6,0-1.1-0.3-1.7-0.5
			c-0.9-0.3-1.8-0.9-2.9-0.7c1.8,0.8,3.5,1.6,5.1,2.8c0.3,0.2,0.9,0.4,0.5,0.9c-0.3,0.4-0.6-0.1-0.9-0.2c-1-0.7-2.7-1.9-3.2-1.4
			c-1.3,1.2-2-0.3-2.9-0.2c-0.2,0-0.5-0.1-0.5,0.4c1.7,0.8,3.6,1.2,5.2,2.7c-1.6,0-2.8-1.1-4.7-0.9c1.3,0.5,2.3,0.9,3.2,1.3
			c0.9,0.4,2,0.7,2.7,1.7c-1,0.4-2-0.6-2.9-0.2c0.1,0.5,0.9,0.2,0.8,0.8c-2.1-0.3-4-1.3-6.2-1c2.8,0.8,5.7,1.5,8.4,2.6
			c-2.7,0.2-5.2-1-8-0.6c3.6,0.4,6.6,2.5,10.2,2.9c-2,0.2-4-0.6-6.3,0c1.4,0.4,2.6,0,3.7,0.8c-1,0.3-2.1-0.1-3.4,0.6
			c2.3,0.2,4.3,0.2,6.1,0.8c-2.6-0.5-5.2,0.1-7.7,0.4c2.9-0.3,5.8,0.1,8.7,0.6c0.5,0.1,1.2-0.1,1.2-0.5c0-2,1.7-1.4,2.7-1.8
			c1.3-0.6,2.8-0.6,4-1.6c-2.2-0.8-4.2-0.2-6.2,0.5c0.2-1.2,1.1-0.8,1.4-1.4c-0.3-0.4-1,0.1-1-0.5c0-0.9,1.3-0.5,1.4-1.2
			c-0.5-0.3-1.4,0.5-1.5-0.5c-0.1-0.7,0.3-1.4,1.1-1.6c0.6-0.1,1.1-0.3,1.7-0.5c0.7-0.2,1.5-0.2,2.2-0.9c-1-0.4-1.8,0.4-2.6,0
			c-0.5-0.2-1.4-0.3-0.9-1.1c1-1.7,2.1-3.3,3.2-4.9c-0.3-0.4-0.9,0-1-0.4c0.2-0.8,1.2-0.8,1.3-1.7c-1.7,0-3,1.3-4.9,1.6
			c2.3-2.2,4.9-3.6,7.1-5.6C748.3,591.4,746.3,593.4,744,594.6z M550.9,508c1.8-0.6,3.6-0.3,5.2,0.2c3.7,1,7.3,1.4,11,0.3
			c2.7-0.8,5.5-0.4,8.2,0.1c4.3,0.7,8.6,0.7,12.8,2.1c1.2,0.4,2.3,0.2,2.4-1.6c-0.9,0-1.7,0-2.1-1c-0.3-0.7-1.2-0.8-1.9-0.6
			c-1.1,0.3-2.1,0-3.2-0.1c-2.8-0.2-5.5-1.7-8.3-0.6c-0.3,0.1-0.7,0-1.1,0c-3-0.4-6.1-0.6-9,0.4c-1.1,0.4-2.1,0.5-3.2,0.3
			c-5.1-1-10.1-1.6-15.3-0.7c-1.3,0.2-2.6,0.5-4,0.6c-1.6,0-3.3-0.2-4.6,1.2c-0.3,0.3-0.8,0.6-1.1,0.2c-0.7-0.8-1.3-0.2-1.7,0.1
			c-0.7,0.6-1.4,1-2.4,0.8c-0.5-0.1-0.8,0.2-0.8,0.7c-0.1,0.6,0.4,0.9,0.9,0.9c0.5,0,1,0,1.4-0.2c3.6-1.9,7.7-2.4,11.6-2.5
			c2.5,0,5.4,0.8,7.8,2.1c0.3,0.2,0.5,0.6,0.7,0.4C554,508.8,552.6,508.2,550.9,508z M487.1,456.2c1.7-0.9,2-0.4,2.1,1
			c0.1,1,0,1.9-0.4,2.9c-0.7,1.6-1.7,3.2-0.9,5.1c0.1,0.3,0,0.7-0.4,0.9c-0.3,0.1-0.8,0.2-0.6,0.7c0.2,0.4,0.6,0.5,1.1,0.5
			c1.4,0,2.7-2.4,2-3.6c-0.4-0.6-0.7-1.3,0.4-1.4c2-0.1,2.6-2,4-3c1.2-0.9,1.5-2.6,1.4-4.2c0-0.4,0.2-0.6,0.5-0.9
			c1.2-1.6,2.3-3.1,3.6-4.9c-2.5,0.4-4.9,2.9-5.3,5.4c-0.1,0.5,0,1.2-0.8,1.2c-0.6,0-0.6-0.5-0.7-0.9c-0.3-1.5-0.9-0.8-1.5-0.2
			c-0.4,0.4-0.6,1.2-1.7,1.3c1.7-1.6,0.5-3.5,1.1-5.1c0.1-0.3,0-0.7-0.4-0.9c-0.3-0.1-0.5,0-0.6,0.3c-0.2,1-0.8,1.4-1.7,1.4
			c-0.6,0-0.5,0.6-0.4,1c0.2,0.7,0.6,0.3,0.9,0c0.2-0.2,0.4-0.4,0.6-0.1c0.3,0.5,0.2,1.2,0.1,1.7c0,0.3-0.2,0.5-0.5,0.3
			C487.4,453.9,487.7,455.1,487.1,456.2z M523.8,469.5c0.2-0.1,0.7-0.2,0.5-0.5c-0.8-1.2,0.3-0.9,0.7-1c0.5-0.1,0.9-0.1,1.4-0.2
			c2.4-0.3,4.8-1.1,7.1-1.8c0.6-0.2,1.2-0.6,1.2-1.4c0-0.8-0.6-1.1-1.2-1.4c-1.9-1-3-0.8-4.3,0.8c-0.3,0.4-0.7,0.7-1.1,0.9
			c-3.2,1.9-7.6,2.3-10.2-0.5c-1.1-1.2-3.5-0.9-4.5,0.4c-0.7,0.9-0.7,1.6,0.6,2.3C517,468.7,520.8,467.6,523.8,469.5z M488.3,551.4
			c1.2-0.7,2.3-0.6,3.4-0.7c0.6-0.1,1.3-0.4,1.5-0.9c0.2-0.5-0.4-0.9-0.9-1.1c-0.3-0.1-0.7-0.4-0.4-0.6c1.2-0.7,0.3-1-0.1-1.6
			c-0.9-1.3-1.4-1.3-2.1,0c-0.5,1-1,1.9-2,2.5c-0.2-0.7,0.5-1.2,0-1.9c-1.7,1.7-1.8,4.6-4.5,5.7c0.1-1,1.2-1.2,1-2.2
			c-1.1,0.3-1.2,1.4-1.9,1.8c-1.2,0.8-1.8,0.4-1.7-1.1c-0.2,0.1-0.6,0.2-0.6,0.4c-0.7,2.4-2.6,2.8-4.7,2.9c-1.7,0.1-3.4,0.4-5.2,0.7
			c0,0.2,0,0.4,0,0.5c7-1.5,14.1-0.8,21.5-0.9c-0.4-0.2-0.7-0.4-0.9-0.5c-2.5-0.6-5,0.3-7.4-0.3c1.7,0.2,3.2-0.6,4.9-0.6
			c1.7,0,3.3-0.1,5,0.3c-2.1-1.1-4.4-0.9-6.7-0.9c1.7-0.9,3.6-0.7,5.6-1.2C490.7,551.2,489.6,551.6,488.3,551.4z M526.2,455.3
			c-1.3-0.7-2.7,0.1-3.9-0.4c-3-1.3-6-0.5-9-0.4c-0.6,0-0.8,0.5-1,0.9c-0.3,0.6,0.3,0.8,0.7,1.1c1.5,1.5,3.4,1.5,5.3,1.1
			c0.9-0.2,1.9-0.1,2.8-0.2C522.9,457.2,525.1,457.8,526.2,455.3z M554.3,499.3c1.3,0.3,2.1,0,2.8-0.1c1.4-0.3,2.4-0.1,2.6,1.5
			c0.1,0.9,0.7,1,1.5,0.8c0.9-0.2,1.8-0.3,2.6-0.8c1.6-1.1,3.1-1.1,4.7,0c0.8,0.5,1.3,0.1,1.2-0.8c-0.2-1.6,0.9-1.9,2.1-2
			c0.5-0.1,1.2,0.2,1.5-0.7c-0.5-0.1-1-0.1-1.3-0.4c-1.3-1.2-2.5-0.6-3.7,0c-0.7,0.3-1.3,0.6-1.5,1.4c-0.2,0.6-0.4,0.6-1,0.6
			C562,498.8,558.4,497.9,554.3,499.3z M368.9,585.6c2.4-0.7,1.9-3.9,4.6-4.4c-0.4-0.3-0.5-0.4-0.6-0.4c-3,0.6-5.3,2.3-7.4,4.5
			c-0.2,0.2-0.2,0.7-0.1,0.8c0.6,0.8,1.9,1.1,1.2,2.6c-0.1,0.1,0.9,0.4,1.3,0.1c1.3-0.9,2.9-1.4,4.3-2.1
			C370.7,587.5,370.1,585.8,368.9,585.6z M583.5,558.8c-1.1,0-1.5-1.2-2.4-1.4c-0.4-0.1-0.7-0.8-1.2-0.2c0.6,0.5-0.9,1.3,0.3,1.8
			c0.8,0.3,1.6,1,1.7,1.9c0.1,0.4,0.5,1.1-0.5,1.2c-0.5,0-1.1-0.1-0.7,0.7c0.3,0.6,0.7,0.4,1.2,0.3c2.1-0.6,4.1-3.6,3.9-5.9
			c-0.1-1.2-0.6-2.1-2-2.7c-0.1,1.3,1.2,2.1,0.7,3.3c-1.2-0.7-1.9-2.4-3.7-2C581.6,557.1,583.1,557.4,583.5,558.8z M638,484
			c1.4-0.1,2.4-0.7,3.1-1.7c2-2.9,2.3-6.6,4.6-9.3c0.2-0.2,0.3-0.6,0-0.8c-0.4-0.3-0.6,0.1-0.8,0.4c-0.7,1.2-1.3,2.6-2.7,2.8
			c-0.8,0.1-1.2,0.1-1.2,1c0,0.5-0.4,0.8-0.6,1.2c-0.6,1.3-2,2.5-0.8,4.1c0.3,0.4,0,0.8-0.3,1.1C638.8,483.2,638.1,483.1,638,484z
			 M730.7,615.8c2.9-0.2,5.8,0.2,8.6,0.7c0.6,0.1,1.4-0.3,1.4-0.5c-0.2-1.9,1.5-1.3,2.3-1.6c1.2-0.4,2.2-0.9,3.1-2
			c-3.6,2.3-7.5,0.6-11.5,1c0.6,0.4,1.2,0.1,1.5,0.7c-1.1,0.3-2.2-0.4-3.3,0.5c2,0.2,3.8,0.1,5.5,0.8
			C735.8,615,733.3,615.4,730.7,615.8z M597.3,516.4c-0.3-0.9-0.8-0.6-1.4-0.5c-1.6,0.1-3.3,0.7-4.8-0.3c-0.4-0.3-0.6-1-1.2-0.6
			c-0.5,0.3-1,0.8-0.9,1.4c0.1,0.6,0.4,1.1,1.1,1.3c0.6,0.2,1.3,0.3,1.6,0.7c1.2,1.8,2.6,0.7,3.8,0.1
			C596.2,518,596.7,517.1,597.3,516.4z M567.2,562.1c-1.8-0.5-2.7,0.6-3.8,0.9c-3.1,0.8-5,3.2-6.9,5.4c-0.3,0.3-0.5,0.7-0.6,1.1
			c-0.2,1.2-0.7,2.3-1.3,3.3c-0.2,0.4-1.3,1-0.4,1.5c0.7,0.3,1.6,0,2.1-0.9c0.2-0.4,0.2-0.8,0.3-1.2c0.7-3.8,3.1-6.5,6.3-8.3
			C564,563.1,565.4,562.7,567.2,562.1z M500.4,551.3c-0.1-0.7-0.8-0.7-0.7-1.2c0.1-2.2-1.9-3.8-1.8-6c0-0.3-0.6-0.8-0.6-0.4
			c-0.2,0.7-0.9,1.8-0.3,2.3c1.1,0.8,0.5,1.2,0,1.8c-0.6,0.7-0.9,1.8-0.8,2.5c0.2,0.8,1.4,0.9,2.3,1
			C499,551.2,499.6,551.2,500.4,551.3z M533.9,518.4c0.2-0.6-0.4-1.2,0.2-1.7c0.3-0.2,0.5,0.1,0.7,0.3c0.5,0.4,1.1,0.8,1.5,0.1
			c0.3-0.7-0.4-1.2-0.9-1.2c-1.3-0.1-2.6-1.2-3.8,0.3c-0.3,0.4-0.7,0.3-1.1,0.1c-1-0.6-2.1-0.1-3.6-0.4c0.8,0.9,1.6,0.9,2.3,1
			c0.7,0.1,1.8,0.1,1.9,1c0.1,1,0.4,1,1,0.7C532.7,518.3,533.3,518.5,533.9,518.4z M564.6,560.5c-1.3,0-2.9-0.8-3.7-0.1
			c-1.2,1.1-2.3,1-3.6,0.8c-0.4-0.1-0.8,0.1-1.2,0.3c-0.2,0.1-0.4,0.3-0.4,0.5c0,0.2,0.3,0.4,0.4,0.4c2.9,0.7,5.6,0.1,8.2-1.3
			C564.5,561.1,564.5,560.8,564.6,560.5z M481.3,463.7c-0.6,0.2-1.3,0.4-2,0.6c-0.2,0.1-0.4,0.2-0.4,0.5c0,0.3,0.2,0.4,0.5,0.5
			c1.3,0.5,2.7,1,4,1.5c1,0.4,1.3-0.1,1.3-1C484.7,464.5,483.4,463.7,481.3,463.7z M479.5,477.7c-0.1,0.6,0,1.2,0.2,1.8
			c0.3,0.8,0.8,1.7,1.8,1.3c0.9-0.4,0.9-1.2,0.4-2.1c-0.4-0.6-1.1-1.3-0.4-2.2c0.3-0.4-0.3-0.7-0.7-0.8c-0.5-0.2-0.8,0-1.1,0.4
			C479.4,476.5,479.5,477.1,479.5,477.7z M536.3,461.7c-1.1-0.8-2.2-1.2-2.9-2.2c-0.7-0.9-2.7-0.6-3.4,0.2c-0.5,0.5-0.6,1.1,0.3,1.3
			C532.1,461.6,534,461.7,536.3,461.7z M563.6,552.9c-1,0.4-1.6-0.2-2.4-0.3c-0.7-0.1-1.7-0.2-0.9,1.1c0.2,0.3,0.4,0.6,0.2,1
			c-0.5,1,0.2,1,0.8,0.9c0.8-0.1,1.5-0.1,2.3,0c0.2,0,0.5,0,0.6-0.3c0.1-0.3-0.1-0.5-0.3-0.5C562.5,554.5,562.9,553.8,563.6,552.9z
			 M670.5,597.6c0.1-0.5,0.1-0.8,0.1-1c0.2-1.2-1.5-2.4,0.2-3.5c0.1-0.1-0.1-0.4-0.4-0.5c-0.6-0.3-0.8,0.1-1.3,0.7
			c-0.8,1.1-1,2,0.2,2.8C669.8,596.4,670,596.9,670.5,597.6z M489.1,449.2c0.5-0.2,1.7,0.1,1.4-0.8c-0.2-0.8-1.1-1.9-1.8-2
			c-0.9-0.2-0.8,1.1-0.9,1.8C487.6,449.3,488.4,449.2,489.1,449.2z M403.5,567.6c0.1,0.6,0.2,1.3,1,1.6c0.4,0.1,0.7-0.2,0.6-0.3
			c-1.4-1.2-0.3-2.3,0.1-3.4c0.1-0.4,0.5-1-0.2-1.2c-0.6-0.2-1,0.3-1.1,0.8C403.7,565.9,403.6,566.7,403.5,567.6z M498,567.2
			c-0.9,0-1.3,0.2-1.3,1.1c0,0.9,0.7,1.4,1.3,1.4c1,0,1.3-1.2,1.4-1.9C499.6,567.1,498.4,567.4,498,567.2z M627.6,551.6
			c-0.7,0.2-1.6,0.4-1.7,1.6c0,0.7,0.5,0.9,1,1c1.5,0.1,1.1-1.4,1.7-2.1C628.9,551.8,628.2,551.6,627.6,551.6z M515.8,460.7
			c0.5,0.5,1.1,0.5,1.6,0.6c1.1,0.2,1.4-0.9,2.1-1.3c0.2-0.1,0.1-0.5-0.1-0.6c-0.7-0.3-1.4-0.1-2,0.2
			C516.8,459.9,516.2,460.1,515.8,460.7z M556.3,497.7c-1.9-2.2-3.1-2.1-4.5,0.8C553.4,497.2,554.8,497.7,556.3,497.7z M710.1,585.1
			c0.5,0.3-0.2,1.5,0.9,1.5c1.4,0,0.3-1.6,1.1-2.3c0.4-0.4-0.5-0.7-1-0.8C709.6,583.3,710.6,584.4,710.1,585.1z M483.4,470
			c-0.6-1-1.5-1.4-2.3-1.9c-0.4-0.2-0.8-0.4-1.1,0c-0.3,0.3-0.2,0.7-0.1,1c0.1,0.5,0.5,0.5,1,0.5C481.6,469.8,482.4,469.9,483.4,470
			z M675.6,595.9c-1-0.3-1.6-0.6-2.3-0.7c-0.8-0.1-1.5,0.5-1.6,1.1c-0.1,0.7,0.8,0.4,1.2,0.5C674,597.3,674.5,596.3,675.6,595.9z
			 M484.7,486.7c-0.2-0.4,0.1-1.3-0.6-1.1c-0.6,0.2-1.1,1-1.3,1.7c-0.1,0.6,0.3,0.8,0.8,0.9C484.6,488.1,484.7,487.4,484.7,486.7z
			 M754.4,603.2c-1.4-0.3-3-1.3-2.8,2.1C752.2,603.5,754.2,605.3,754.4,603.2z M372.3,607.8c-2.1-0.1-4.9,1.4-5.7,3.1
			C368.3,609.4,370.4,608.7,372.3,607.8z M577.5,419.2c-0.8-0.3-1.3-0.5-1.8-0.8c-0.6-0.4-1,0-1.3,0.4c-0.2,0.2-0.5,0.4-0.4,0.7
			c0.3,0.6,0.8,0.2,1.3,0.2C576,419.7,576.7,419.8,577.5,419.2z M403,569c-0.4-1.4,0-2.5,0.3-3.7C401.4,566.3,401.3,567.2,403,569z
			 M567.2,421.6c0.1-0.1,0.1-0.2,0.2-0.3c-0.6-0.5-1.1-1-1.7-1.4c-0.4-0.3-0.9-0.3-1.3,0c-0.2,0.1-0.4,0.4-0.3,0.6
			c0.1,0.5,0.6,0.5,1,0.6C565.8,421.2,566.5,421.4,567.2,421.6z M546.1,514.1c-1.4,0.1-2.3,0.7-2.6,2.1c-0.1,0.3-0.2,0.8,0.3,0.9
			c0.4,0.1,0.8-0.1,0.8-0.5C544.6,515.5,545.6,515,546.1,514.1z M583.9,612.6c-0.4,0.9,0,1.6-0.5,2.3c-0.4,0.5,0.4,0.8,1,0.9
			c0.4,0.1,0.8,0.1,0.7-0.4C584.8,614.4,584.7,613.5,583.9,612.6z M700.2,612c0.6,1.3,1.3,2,2.5,2c0.4,0,0.8,0,0.9-0.4
			c0.1-0.5-0.6-0.7-0.7-0.6C701.8,613.5,701.3,612.4,700.2,612z M413.2,600.7c1.4-1.4,2.4-2.5,2.8-4
			C414.9,597.7,413.8,598.7,413.2,600.7z M552.6,564.1c-2.1-1.7-2.1-1.7-3.2-1.6C550.1,563.5,550.8,564.5,552.6,564.1z M531,565.9
			c1.3-0.8,2.5-0.4,4,0.8C533.2,564.3,532.4,564.2,531,565.9z M491.6,484.5c-0.4-0.4,0.5-1.4-0.5-1.3c-0.9,0.1-0.4,1.2-0.6,1.8
			c-0.1,0.4,0,0.8,0.5,0.7C491.8,485.6,491.8,485.1,491.6,484.5z M516.5,468.8c1.7,0.6,3.4,1.2,5.2,0.3
			C520,469,518.2,468.9,516.5,468.8z M562.5,596.1c0.1-0.5-0.1-0.6-0.6-0.5c-0.8,0.1-1.3,0.5-1.3,1.4c0,0.3-0.1,0.8,0.5,0.7
			C562,597.6,562.3,597,562.5,596.1z M753.6,615.8c-1.8-0.1-3.5-0.2-5.3-0.3C750,616.2,751.8,616.7,753.6,615.8z M491.1,488.3
			c-0.1,0.8-0.7,1.6,0,2.3c0.3,0.2,0.7,0,0.9-0.4C492.5,489.2,491.6,488.8,491.1,488.3z M470.2,588.3c0,0,0-0.1-0.1-0.1
			c-2,0-4,0-6,0c0,0.1,0,0.3,0,0.4C466.2,588.5,468.2,588.4,470.2,588.3z M542.2,567.4c-0.5,1.2-1,2.1-1,3.1c0,0,0.4,0.1,0.4,0.1
			C542,569.6,543.1,568.9,542.2,567.4z M716.3,585c0-1.8-0.3-2-2.2-1.6C714.7,584.2,715.7,584,716.3,585z M441.5,561
			c1.9,0.1,3.8,0.1,5.7,0.5C445.3,560.9,443.4,560.4,441.5,561z M370.9,577.1c-0.6,0.1-0.7,0.6-0.7,1c0,0.4,0.1,0.7,0.6,0.6
			c0.5-0.1,0.7-0.5,0.8-1C371.5,577.4,371.3,577.1,370.9,577.1z M548.2,577.1c-0.7,0.7-1.2,1.2-1.7,1.8
			C547.9,579.1,548.5,578.8,548.2,577.1z M562.7,585.3c-0.4,0-0.8,0.1-0.7,0.7c0,0.4,0.2,0.8,0.7,0.9c0.6,0.1,0.8-0.4,0.9-0.8
			C563.7,585.4,563.2,585.3,562.7,585.3z M667.2,593.8c-0.5,0.7-1.3,0.9-0.9,1.7c0.1,0.3,0.5,0.5,0.7,0.3
			C667.8,595.4,667.5,594.8,667.2,593.8z M527.7,463.5c0.3,0,0.7-0.1,0.8-0.7c0.1-0.5-0.2-0.8-0.7-0.8c-0.6,0-1.1,0.1-1.1,0.8
			C526.7,463.4,527,463.6,527.7,463.5z M602.5,569.8c0.2,1.3,1,2,1.6,2.7c0,0,0.4-0.2,0.4-0.3C604.2,571.2,603.7,570.4,602.5,569.8z
			 M442.3,585.5c-0.7,0.3-0.9,0.4-1.1,0.5c-0.6,0.3-0.8,0.8-0.8,1.4c0,0.3,0.2,0.5,0.4,0.4c0.7-0.1,0.6-0.8,0.8-1.2
			C441.8,586.4,442,586.1,442.3,585.5z"/>
		<path d="M759.8,584.4c-0.4,0.2-0.9,0.4-1.3,0.6c-2.4,0.6-3.4-1.4-4.8-2.6c-1.1-0.9-0.8-2.2-0.2-3.4c0.2-0.4,0.9-1.1,0.1-1.5
			c-0.8-0.5-0.9,0.3-1.2,0.8c-0.2,0.4-0.5,0.7-0.9,1.3c0-0.7,0-1.1,0-1.6c0-0.5,0.2-1.2-0.6-1.2c-0.6,0-0.9,0.5-1,1
			c-0.1,0.7-0.2,1.5-0.4,2.4c-0.7-1.7-1.2-1.4,0.7-5.4c-1.8,1.4-3.6,2.8-5.9,2.2c0.7-1.1-1.3-2.5-0.1-3.9c-1.4,0.4-2.5,1-4.1,0.6
			c-1-0.2-1.3,1.6-1.3,3c-1.1-2.6,0.3-6.1,2.8-7.1c2-0.8,4.1-1.5,6.3-1.8c1.2-0.2,2.4-0.1,3.5,0.4c1.8,0.8,3.6,1,5.5,0.8
			c0.9-0.1,1.8,0.1,2.7,0.1c0,4.4,0,8.8,0,13.2c-0.9,0.2-1.8,0.3-2.7,0.5c0.7,1.2,1.8,0.8,2.7,1
			C759.8,583.9,759.8,584.1,759.8,584.4z M758.3,581.4c-0.4-1.7-1.8-1.6-2.8-2.1c-0.4-0.2-1-0.5-1.3,0c-0.3,0.7-0.7,1.4-0.4,2.2
			c0.2,0.6,0.7,0.5,1.2,0.4C756.1,581.7,757.1,581.6,758.3,581.4z"/>
		<path d="M358.8,605.1c1.4,1.6,1.5,3.6,1.3,5.6c-0.1,0.8-0.8,0.7-1.3,0.9C358.8,609.4,358.8,607.2,358.8,605.1z"/>
		<path d="M398.5,616.9c-0.3-1.8,0.2-2.2,1.9-1.5c1.1,0.4,2.2,0.8,3.1,1.5C401.8,616.9,400.1,616.9,398.5,616.9z"/>
		<path d="M685.8,616.9c-0.6-0.4-1.1-0.7-1.7-1.1c2.6-0.2,5,0.2,7.4,1.1C689.6,616.9,687.7,616.9,685.8,616.9z"/>
		<path d="M404.6,616.9c-1.3-0.8-2.6-1.5-4.3-2.1c0.9-0.5,1.5-0.4,2.1-0.2c0.2,0.1,0.5,0.3,0.7,0.4c0.8,0.6,1.8,0.9,2.2,1.9
			C405,616.9,404.8,616.9,404.6,616.9z"/>
		<path d="M647.5,616.9c0.4-1.1,0.8-2.1,2.2-2.2c0.2,1-1.1,1.3-1.1,2.2C648.2,616.9,647.8,616.9,647.5,616.9z"/>
		<path d="M696.8,564c-0.8-0.2-1.4,0.1-2.1,0.4c-1.2,0.6-2.1,0.4-2.9-0.8c0.6-0.5,1.5-0.7,1.8-1.7c-1.2-0.5-2.3,0.4-3.8,0.3
			c2.1-0.9,4-1.4,5.2-3.1c-1.2-0.5-1.1-0.6,1.6-3.1c-0.9-0.3-1.8-0.6-3-1c1.2-0.4,1.3-1.2,1.3-2.3c1.2,1.2,2.4,1.1,3.7,1.3
			c0.4,0.1,0.9,0.2,1.1-0.3c0.2-0.8-0.8-0.2-1-1c2,0.4,4,0.5,6,0.5c0-0.9-1.2-0.5-1.3-1.3c0.9-0.9,2,0,3-0.3c-0.1-0.8-1.2-0.2-1.3-1
			c3.8-1.2,7.3-0.6,10.7,1.4c1.5,0.8,2.9,1.9,4.7,2.2c2.3,0.4,4,2,5.8,3.4c1.2,1,2.8,1.6,3.7,3c0.3,0.4,0.9,0.6,1.3,0.3
			c0.7-0.5-0.2-1-0.2-1.7c2.3,0.1,4.6,0.4,6.8,0.9c0.3,0.1,0.7,0.3,0.9,0.6c0.3,0.3,1,0.5,0.7,1c-0.3,0.5-0.9,0.5-1.4,0.3
			c-1.7-0.7-1.2,1.4-2.1,1.8c-0.3,0.1,0.8,0.7,1.3,1c0.2,0.1,0.4,0.1,0.5,0.2c0.5,0.4,1.7-0.2,1.6,0.7c-0.1,1.1-1.2-0.5-1.7,0.5
			c0.6,0.6,1.4,1.3,2,2c0.4,0.4,0.4,1.1-0.1,1.4c-0.7,0.5-0.5-0.2-0.7-0.6c-0.3-0.6-0.8-0.3-1.1,0.1c-0.4,0.6-0.8,1.3-1.2,2
			c-0.3,0.4-0.6,0.8-1.1,0.7c-0.6-0.2-0.7-0.8-0.6-1.3c0.2-0.8,0.5-1.5-0.6-2c-0.9-0.4,0.2-1.1,0-1.8c-1.9,0.1-2.1,2.5-3.8,3
			c-0.2-0.9,0.8-1.2,0.5-2c-0.3-0.7,0.8-2.5-1.3-1.4c-0.7-1.6-2.5,0.5-3.2-1.1c-0.1-0.2-0.4-0.3-0.4-0.5c-0.2-0.4,0.3-1.2-0.5-1.3
			c-0.8-0.1-0.8,0.9-1.2,1.4c-0.2,0.3-0.2,0.9-0.7,0.9c-0.6,0-0.4-0.7-0.6-0.9c-0.9-0.8-1.4-1.4-0.4-2.5c0.5-0.6-0.4-0.6-0.8-0.7
			c-1.6-0.4-3.2-0.8-4.9-1.2c0.3-0.8,1.1-0.6,1.4-1.3c-1.7-0.5-3.3,1.8-5,0.1c0.1-0.7,1.1-0.6,1.3-1.3c-0.8-0.4-1.6,0-1.8,0.5
			c-0.6,1.4-1.3,0.8-2.2,0.3c1-0.6,1.6-1.4,1.9-2.4c0.1-0.4,0.2-0.9-0.4-1c-0.5-0.2-0.5,0.3-0.7,0.6c-0.4,0.9-0.7,1.4-1.8,0.5
			c-0.7-0.6-1.5,0.1-1.7,0.7c-0.5,1.6-1.6,1.4-2.7,1.1c-2.4-0.7-4.7,0.2-7.5,0.4c1.8,1.3,4.2-0.2,5.2,2c-1,0-2,0-3,0
			c1.9,1.1,4.2,0.1,6.3,1c-1.1,0.1-2.1-0.1-2.4,1.3c-0.2,0.8-1.2,0.6-1.9,0.6c-1.2,0-2.5,0-3.7,0C697.5,563.2,696.9,563.3,696.8,564
			C696.8,564.1,696.8,564,696.8,564z M733.6,562.1c-0.6,0-0.7,0.5-0.7,0.9c0,1,1.1,0.8,1.6,1.3c0.2,0.2,0.6-0.1,0.5-0.5
			C734.8,562.9,734.3,562.4,733.6,562.1z"/>
		<path d="M678.5,552.8c1.1-1.1,4.3-0.6,4.9,0.7c0.1,0.3,0.3,0.7,0,1c-0.1,0.1-0.4,0.1-0.5,0C681.9,552.9,679.8,553.9,678.5,552.8
			C678.5,552.8,678.5,552.8,678.5,552.8z"/>
		<path d="M642.7,545.8c-0.8-0.2-1.5-0.9-2.5-0.7c-0.6,0.1-0.9-0.4-0.8-0.9c0.1-0.4,0.6-0.8,1.1-0.5c0.6,0.4,1.2,0.5,1.8,0.6
			C643.8,544.6,643.4,545.2,642.7,545.8C642.7,545.9,642.7,545.8,642.7,545.8z"/>
		<path d="M671.6,568.5c2.5-0.2,4.4,1.2,6.4,2.5C675.8,570.1,673.7,569.3,671.6,568.5C671.6,568.4,671.6,568.5,671.6,568.5z"/>
		<path d="M696.5,594.2c1.8,0.5,3.6,1,5.5,1.5c-2,0.2-3.7-0.5-5.5-1.1C696.4,594.5,696.4,594.4,696.5,594.2z"/>
		<path d="M403.1,615c-0.2-0.1-0.5-0.3-0.7-0.4c-1.1-0.4-1.7-1.8-3.2-1.5c-0.3,0.1-0.5-0.3-0.3-0.6c0.4-0.7,2.4-1.1,3.2-0.6
			c0.5,0.3,1,0.5,1.4,0.7c0.4,0.3,1.1,0.4,0.7,1.1c-0.1,0.1-0.6,0-1.2,0c0.6,0.5,1.1,0.8,1.8,1.3C404.1,615.5,403.6,615.2,403.1,615
			z"/>
		<path d="M515.7,611.5c0.8,0.6,1.7,1.2,2.5,1.8c-0.1,0.1-0.1,0.2-0.2,0.3c-1.2-0.6-2.5-1.3-3.7-1.9c-0.9-0.1-1.6-0.6-2.2-1.2
			C513.5,609.9,514.6,610.7,515.7,611.5z"/>
		<path d="M512,610.5c0.6,0.6,1.3,1.1,2.2,1.2c0.3,0.4,0.7,0.8,1.2,1.4c-1.7-0.1-3-0.3-3.8-1.8c0-0.2-0.1-0.4-0.1-0.6
			c0.1-0.1,0.3-0.1,0.4-0.2L512,610.5z"/>
		<path d="M481.1,602.2c-1.5-1.4-3.6-2.1-4.9-3.9c1.6,1.1,3.3,2.1,4.9,3.2C481.4,601.8,481.4,602,481.1,602.2
			C481,602.2,481.1,602.2,481.1,602.2z"/>
		<path d="M432.9,589.8c1.4-0.9,2.4,0.5,3.5,0.5c0,0,0.1,0.3,0,0.5c-0.1,0.1-0.4,0.2-0.4,0.1C435.2,590.1,433.9,590.6,432.9,589.8z"
			/>
		<path d="M361.9,613.4c-0.4-1.6-0.8-3.2-0.5-5.2C361.9,610.1,362.8,611.6,361.9,613.4z"/>
		<path d="M570.6,609.7c-0.2,1.8,0.1,3.7-1.1,5.7C569.8,613.3,569,611.3,570.6,609.7C570.6,609.7,570.6,609.7,570.6,609.7z"/>
		<path d="M599.5,480c-0.7,0.6-1.2,0.7-1.8,0.4c-0.9-0.5-1.8-0.7-2.7-0.7c-0.6,0-1-0.2-1.3-0.8c-0.6-1.4-1.8-1.6-3-1.2
			c-0.5,0.2-0.6,0-0.8-0.3c-1.2-2-3.7-2-5.4-3.3c-0.5-0.3-0.9,0-1.1,0.6c-0.1,0.5-0.2,1.1,0.5,1.4c0.2,0.1,0.9,0,0.6,0.2
			c-1.4,1.4,0.3,2.5,0.2,3.8c0,0.5,0.3,1.2-0.3,1.5c-1.2,0.6-0.8,1.6-0.3,2.2c0.8,0.9,0.5,2.6,2.6,2.8c-1.5,0.2-1.5,0.2-2.3-0.1
			c-1.1-0.3-2-0.5-3.3,0.2c-1.2,0.6-3.1,0.6-4.6,0.1c-0.8-0.2-0.9-3.1-0.1-3.8c0.5-0.5,1.8-0.6,1.2-1.6c-0.5-0.8-1.4-1.5-2.5-1.5
			c-1.7,0-3.2-0.2-3.8-2.2c-0.3-0.9-1.1-1.3-2-1.5c-2-0.5-2.3-1.2-1.2-2.8c0.9-1.3,1.2-2.8,2.4-4c0.8-0.8-0.3-1.5-0.8-2
			c-0.6-0.7-2.2-0.4-2.2-1.5c0-1.3,1-2.4,1.7-3.6c0.3-0.6,0.7-1.1,1.1-1.6c-0.5-0.6-1,0.5-1.5-0.2c1.1-0.7,1.5-2.2,3-2.5
			c-1.5-1.7-1.3-3.2,0.5-4.6c0.1-0.1,0.3-0.3,0.3-0.4c-0.3-2.7,1.2-1.2,1.9-0.8c1.7,1,3-0.5,3.7-1.2c2.2-1.8,4.7-2.2,7.1-2.2
			c3.4,0,6.8-0.7,10.3-0.6c1.1,0,2.1-0.2,3.1-0.4c1.5-0.4,3.1-1,4.7,0.3c-0.6-1.4-0.2-1.9,1-1.5c0.8,0.3,1.5,0,2.3,0
			c0.7,0,1.1-0.1,1.5-0.7c0.4-0.8-0.7-0.8-0.7-1.3c1.5-1.3,2.7-0.2,3.6,0.7c1.5,1.3,3.2,1.8,5.1,1.8c1.2,0,2.2,0.4,3.1,1.3
			c1.3,1.2,3.2,1.8,4.5,3.1c1.1,1.1,2.1,2.2,2.4,3.9c0.1,0.6,0.5,0.9,0.9,1.3c0.4,0.4,1.5,1.2-0.3,1c-0.4,0-0.5,0.3-0.4,0.6
			c0.1,0.7,0.3,1.3,1.1,1.5c0.7,0.2,1.3-0.1,1.9-0.4c0.5-0.2,1.1,0,1.2,0.4c0.2,0.7-0.5,1.2-0.8,1.7c-0.3,0.5-0.7,0.3-1-0.1
			c-1.1-1.4-2.5-1-3.8-0.5c-0.8,0.3-0.8-0.3-1.1-0.4c-0.8-0.4-1.2,0.2-1.4,0.7c-0.4,1,0.4,1.6,0.9,2.3c0.3,0.3,1,0.1,1-0.3
			c0.1-0.8,0.3-1.3,1.3-1.3c1.1,0,2.4,0.1,2.9,1c0.7,1.2,1.3,2.6,1,4c-0.3,1.1-1.2,1.8-2.4,2.1c-2.1,0.5-4.3,0.6-6.1,2.1
			c-0.6,0.5-1.4-0.2-1.9-0.6c-0.8-0.6-1.2-0.4-1.5,0.4c-0.3,1-1.1,1.2-2,1.4c-2.1,0.4-4.2,1.1-6.3,1.4c-2.8,0.3-5.7,0.4-8.5,0.4
			c-1.4,0-2.8-0.2-4.3-0.2c-1.5,0-2.6-1.3-4-1.7c-3.2-1-6.4-2.3-8.9-4.6c-0.3-0.3-0.7-0.6-1.1-0.2c-0.4,0.4-0.8,1-0.3,1.6
			c0.5,0.7,1.1,1.5,1.8,2.1c1.9,1.7,3.8,3.6,6.4,4.2c1.1,0.3,1.8,1.1,2.6,1.8C594.7,478.9,597.4,478.6,599.5,480z M600.5,469.2
			c3.4,0.5,6.8,0.1,9.9-1.4c1.3-0.6,1.7-1.8,1-2.7c-1.4-1.8-4.2-1.9-5.8-0.2c-2.7,2.8-8.5,2.6-10.8-0.3c-0.6-0.7-0.3-2.2-1.8-2
			c-1,0.2-2,0.5-2.9,0.8c-0.4,0.2-0.8,0.6-1.2,0.7c-1.2,0.1-2,1.6-3.4,1c-0.6-0.3-1.5-0.9-1.8,0c-0.2,0.5,1,0.6,1.5,0.9
			c0.1,0.1,0.2,0,0.4,0.1C590.7,466.4,595.5,468.7,600.5,469.2c-0.7,0.1-1.5-0.1-2.2,0.5c2.9,1.1,5.9,0.7,8.8,0.8
			c0.3,0,0.8-0.1,0.7-0.5c0-0.3-0.4-0.4-0.7-0.4c-1.3,0.1-2.6,0-3.9,0.3C602.3,470,601.2,470.3,600.5,469.2z M599.5,456.9
			c4.6,0.4,8.6,0.8,12.6,1.1c0.6,0,1.5-0.2,1.4-1c-0.1-0.6,0.2-1.5-1-1.8c-2.5-0.6-5-0.7-7.5-0.5c-0.1,0-0.1,0-0.2,0.1
			C603.4,455.9,601.5,455.8,599.5,456.9z M584.3,463.5c4.7-2.6,10.3-1.9,15.4-3.7C596.9,458.5,586.5,461,584.3,463.5z M587.1,467.6
			c0,0.2-0.1,0.4-0.1,0.6c2.8,0.4,5.7,0.8,8.5,1.3C592.9,468.1,590.1,467.4,587.1,467.6z M602.9,460.1c0.8,0.3,1.7,0.5,2.5,0.8
			c0.8,0.3,1.6,0.3,2.4-0.1c0.3-0.1,0.6-0.3,0.4-0.6c-0.1-0.2-0.3-0.4-0.5-0.4C606.1,459.8,604.5,459.1,602.9,460.1z"/>
		<path d="M622.5,438.8c-1.3-0.1-2.1,0.1-1.1,1.3c0,0,0.1,0.1,0.1,0.2c0.1,0.4-0.1,1-0.2,0.9c-1.9-1.8-0.5,4-3.2,1.4
			c-1.3-1.3-0.5-3.1-1.9-3.9c0.2-0.2,0.3-0.4,0.5-0.5c0.7-0.2,0.6-0.5,0.6-1.2c0.1-1.1-0.2-2.7,1.1-3.4c1.2-0.7,3,0.9,3.2,2.6
			C621.7,437.9,621.7,437.9,622.5,438.8z"/>
		<path d="M621.6,446.7c0,0.5-0.3,0.8-0.7,0.9c-0.5,0.2-0.7-0.1-0.8-0.5c-0.3-0.9-0.9-1.1-1.8-1.2c-0.4,0-1.2-0.1-1.1-0.7
			c0.1-0.4,0.6-0.9,1-1.1C619.4,443.7,621.6,445.5,621.6,446.7z"/>
		<path d="M524.3,437.4c-2.2-0.3-1.9,2.2-3.3,2.8c-0.4,0.1-0.6,0.6-1,0.7c-0.4,0.2-0.9,0.3-1.1-0.2c-0.3-0.6,0.2-0.7,0.6-0.9
			c1.1-0.5,2.9-0.8,1.1-3.1C522.1,437.4,523.1,437.5,524.3,437.4z"/>
		<path d="M542.6,421.4c1.1-0.1,2.3-0.5,3.5,0.4C544.8,422.3,543.7,421.7,542.6,421.4z"/>
		<path d="M622.4,588.6c1.9,2.2,1,4.7,1.4,7C623.4,593.4,623,591.1,622.4,588.6z"/>
		<path d="M600,604.3c0.9-1.2,1.5-2.1,2.3-3.2C602.2,602.6,601.7,603.3,600,604.3z"/>
		<path d="M637.3,588.9c-0.9-0.8-0.9-0.8-1.2-2.3C637,586.9,637.1,587.1,637.3,588.9z"/>
		<path d="M529.5,495.4c0.4-1.2,0.2-2.3,1.5-2.6c0.6-0.1,1-0.8,0.2-1.4c-0.6-0.4-0.5-0.8,0-1.1c1.7-0.9,2.9-2.5,4.7-3.3
			C534.5,491.6,532.8,493.8,529.5,495.4z"/>
		<path d="M514.2,492.3c-0.1,0.4-0.3,0.5-0.6,0.5c-0.6,0-0.9-0.3-0.9-0.9c0-0.3,0.1-0.6,0.5-0.6C513.6,491.5,514,491.8,514.2,492.3z
			"/>
		<path d="M424.5,565.5c-0.3,1.7-1,2.1-3.5,1.8C422.1,566.4,423.8,566.9,424.5,565.5C424.5,565.5,424.5,565.5,424.5,565.5z"/>
		<path d="M618.6,566.1c-0.2-0.4-0.4-0.8-0.7-1.2c-0.2-0.4-0.6-0.7-0.2-1.1c0.4-0.3,0.8-0.4,1.3,0c0.6,0.6,1.3,1.2,1.9,1.8
			C620,566.3,619.2,565.6,618.6,566.1C618.6,566.1,618.6,566.1,618.6,566.1z"/>
		<path d="M602.8,554c-0.2-0.5-0.4-1,0.5-0.9c0.8,0.1,1.6,0.3,2.5,0.9C604.6,554.4,603.7,553.8,602.8,554
			C602.7,554,602.8,554,602.8,554z"/>
	</g>
</g>
</svg>
