<?xml version="1.0" encoding="utf-8"?>
<!-- Generator: Adobe Illustrator 23.1.0, SVG Export Plug-In . SVG Version: 6.00 Build 0)  -->
<svg version="1.1" id="fe80fb2b-bcaf-407e-919b-306adc32f78b"
	 xmlns="http://www.w3.org/2000/svg" xmlns:xlink="http://www.w3.org/1999/xlink" x="0px" y="0px" viewBox="0 0 1032 741.8"
	 style="enable-background:new 0 0 1032 741.8;" xml:space="preserve">
<style type="text/css">
	.st0{fill:#F2F2F2;}
	.st1{fill:none;stroke:#3F3D56;stroke-miterlimit:10;}
	.st2{opacity:0.3;fill:#6C63FF;enable-background:new    ;}
	.st3{fill:#6C63FF;}
	.st4{fill:#6855FF;stroke:#3F3D56;stroke-miterlimit:10;}
</style>
<title>profile</title>
<path class="st0" d="M256.9,129.6h698.2c10.7,0,19.4,8.7,19.4,19.4v460.2c0,10.7-8.7,19.4-19.4,19.4H256.9
	c-10.7,0-19.4-8.7-19.4-19.4V149C237.5,138.3,246.2,129.6,256.9,129.6z"/>
<path class="st1" d="M234.4,98.1h698.2c10.7,0,19.4,8.7,19.4,19.4v460.2c0,10.7-8.7,19.4-19.4,19.4H234.4
	c-10.7,0-19.4-8.7-19.4-19.4V117.5C215,106.8,223.7,98.1,234.4,98.1z"/>
<line class="st1" x1="215" y1="146" x2="952" y2="146"/>
<path class="st2" d="M662.6,258.1h186.8c3.9,0,7.1,3.2,7.1,7.1V282c0,3.9-3.2,7.1-7.1,7.1H662.6c-3.9,0-7.1-3.2-7.1-7.1v-16.8
	C655.5,261.3,658.7,258.1,662.6,258.1z"/>
<path class="st2" d="M624.1,344.1h263.8c3.9,0,7.1,3.2,7.1,7.1V362c0,3.9-3.2,7.1-7.1,7.1H624.1c-3.9,0-7.1-3.2-7.1-7.1v-10.8
	C617,347.3,620.2,344.1,624.1,344.1z"/>
<path class="st2" d="M624.1,412.1h263.8c3.9,0,7.1,3.2,7.1,7.1V430c0,3.9-3.2,7.1-7.1,7.1H624.1c-3.9,0-7.1-3.2-7.1-7.1v-10.8
	C617,415.3,620.2,412.1,624.1,412.1z"/>
<path class="st2" d="M624.1,480.1h263.8c3.9,0,7.1,3.2,7.1,7.1V498c0,3.9-3.2,7.1-7.1,7.1H624.1c-3.9,0-7.1-3.2-7.1-7.1v-10.8
	C617,483.3,620.2,480.1,624.1,480.1z"/>
<path class="st1" d="M672.6,248.1h186.8c3.9,0,7.1,3.2,7.1,7.1V272c0,3.9-3.2,7.1-7.1,7.1H672.6c-3.9,0-7.1-3.2-7.1-7.1v-16.8
	C665.5,251.3,668.7,248.1,672.6,248.1z"/>
<path class="st1" d="M634.1,334.1h263.8c3.9,0,7.1,3.2,7.1,7.1V352c0,3.9-3.2,7.1-7.1,7.1H634.1c-3.9,0-7.1-3.2-7.1-7.1v-10.8
	C627,337.3,630.2,334.1,634.1,334.1z"/>
<path class="st1" d="M634.1,402.1h263.8c3.9,0,7.1,3.2,7.1,7.1V420c0,3.9-3.2,7.1-7.1,7.1H634.1c-3.9,0-7.1-3.2-7.1-7.1v-10.8
	C627,405.3,630.2,402.1,634.1,402.1z"/>
<path class="st1" d="M634.1,470.1h263.8c3.9,0,7.1,3.2,7.1,7.1V488c0,3.9-3.2,7.1-7.1,7.1H634.1c-3.9,0-7.1-3.2-7.1-7.1v-10.8
	C627,473.3,630.2,470.1,634.1,470.1z"/>
<circle class="st2" cx="271" cy="128.1" r="15"/>
<circle class="st2" cx="313" cy="128.1" r="15"/>
<circle class="st2" cx="355" cy="128.1" r="15"/>
<circle class="st1" cx="277" cy="122.1" r="15"/>
<circle class="st1" cx="319" cy="122.1" r="15"/>
<circle class="st1" cx="361" cy="122.1" r="15"/>
<path class="st3" d="M447.9,576.1c-2.5-11.6-3.2-27.4-2.3-38.4c0,0-12.7-55.8-22.7-61l0,0c-0.2,0.2-5,6.6-5.6,26.2
	c-0.6,20-7.7,33.1-7.7,33.1s2.3,24.9,1,40L447.9,576.1z"/>
<path class="st3" d="M540.2,221.1H309.8c-13.1,0-23.8,10.6-23.8,23.8c0,0,0,0,0,0v307.5c0,13.1,10.6,23.8,23.8,23.8h0h80.9
	c-2.7-11.2-6.1-28.7-2.7-40.9l0,0l0,0c0.2-0.6,0.3-1.1,0.5-1.7c2.3-7.9,3.1-16.2,2.3-24.4c1.5-7,1.5-14.2,0-21.2
	c-2.5-11.7-4.2-23.1-4.2-23.1s-1.4-15.4-0.2-24.8c0-0.2,0.1-0.4,0.1-0.6c-0.4-0.1-0.7-0.2-0.7-0.2s3.5-16,4.8-26.2
	c0.3-2.4,0.7-5.5,1.1-8.7c-1.2-0.2-2.3-0.5-3.4-0.9c-11.2-4-14.8-39.8-14.8-39.8v-11.3c0,0-3.7-17.4,9.4-25.1
	c12.6-7.4,17.7-9.4,18-9.6c0.1-0.1,0.2-0.1,0.3-0.2c1.4-1.1,2.6-2.6,3.3-4.2c0-0.3,0-0.6,0-0.9c-0.2-4.1-3-7.8-5.7-11
	c-2.3-2.8-4.6-5.5-6.9-8.3c-0.8-0.8-1.4-1.8-1.8-2.9c-0.1-0.6-0.2-1.2-0.2-1.8c0-0.2,0-0.4,0-0.7c0-2.1,0.1-4.1,0.2-6.2
	c0.1-1.8,0.5-4.1,2.3-4.4c0.9-0.2,2.1,0.1,2.6-0.7c0.2-0.3,0.2-0.7,0.1-1.1c0,0,0,0.1,0,0.1c0,0,0-0.1,0-0.1
	c-0.4-1.4-0.6-2.9-0.7-4.4c0-0.7,0.1-1.3,0.3-2c1-3,4.5-4.2,7.6-4.8c3.1-0.6,6.6-1,8.5-3.5c0.5-0.8,1.1-1.6,1.7-2.4
	c0.9-0.8,2-1.4,3.2-1.6c3.8-1,7.9-0.6,11.5,1c1.5,0.7,3,1.6,4.6,1.5c1.7-0.1,3.2-1.3,4.8-1.6c2.7-0.5,5.3,1.6,6.7,4
	c0.9,1.5,1.3,3.3,1.2,5c0,1.7-0.6,3.4-1.8,4.7c-1.2,1.2-2.9,2.1-3.4,3.7c-0.2,0.7-0.2,1.4-0.3,2.1c0,0.1-0.1,0.2-0.1,0.2
	c0,0,0.1,0.1,0.1,0.1c7.1,9.3,5.3,22.7-4.1,29.7c-1.9,1.4-4,2.5-6.3,3.3c0,0.2,0,0.4,0,0.6c-0.1,2.7,0.9,5.2,2.8,7.1l18.5,7.6
	c0,0,11.2-1.4,15.2,15.3c0.6,2.8,0.9,5.6,0.7,8.5c-0.1,2.5,0.2,6.9,3.1,12.7c4.6,9.2,3.5,30.2-5.8,32.3c-8.9,2-12.3,1.1-12.7,1.1
	l0,0.4c0.1,3.9,1.6,38,6.6,42.1c1.4,1.1,1.1,1.9,0,2.4l0,0c0,0,0,0.2,0,0.6c0.2,2.5,0.9,12,4.4,17.4c4,6.2,3.5,42.3,3.5,42.3
	l2.7,21.2c0,0-1.7,13.1,0,15.4c0.9,1.3,2.1,21.4,2.9,38.6h69.5c13.1,0,23.8-10.6,23.8-23.8V244.9C564,231.8,553.4,221.1,540.2,221.1
	L540.2,221.1z"/>
<path class="st1" d="M285.8,194.1h230.5c13.1,0,23.8,10.6,23.8,23.8v307.5c0,13.1-10.6,23.8-23.8,23.8H285.8
	c-13.1,0-23.8-10.6-23.8-23.8V217.9C262,204.8,272.6,194.1,285.8,194.1z"/>
<path class="st1" d="M929.4,9.3c-8.7,0.5-16.4,5.9-19.8,13.9c-5,12,1.4,26,11,34.8s21.9,13.7,33,20.3c15,8.8,28.5,21,36,36.7
	s8.3,35.2-0.5,50.1c-8.2,13.9-23.1,22.3-37.3,29.9"/>
<ellipse class="st3" cx="942" cy="10.4" rx="17.5" ry="8.5"/>
<ellipse class="st3" cx="956" cy="66.4" rx="17.5" ry="8.5"/>
<ellipse class="st3" cx="924" cy="75.4" rx="17.5" ry="8.5"/>
<ellipse class="st3" cx="974" cy="122.4" rx="17.5" ry="8.5"/>
<ellipse class="st3" cx="1009" cy="122.4" rx="17.5" ry="8.5"/>
<rect x="140.9" y="389.2" class="st4" width="193.1" height="131.4"/>
<g id="AI_x5F_Image.psd">
	<defs>
		
			<rect id="SVGID_1_" x="52.7" y="390" transform="matrix(0.1033 -0.9947 0.9947 0.1033 -252.5138 656.8892)" width="370.6" height="157"/>
	</defs>
	<clipPath id="SVGID_2_">
		<use xlink:href="#SVGID_1_"  style="overflow:visible;"/>
	</clipPath>
	<g transform="matrix(1 7.450581e-09 0 1 0 0)" style="clip-path:url(#SVGID_2_);">
		
			<image style="overflow:visible;" width="430" height="965" id="AI_x5F_Image" xlink:href="38F25807.png"  transform="matrix(0.3508 3.642356e-02 -3.789449e-02 0.365 180.8026 287.3068)">
		</image>
	</g>
</g>
</svg>
